<svg width="390" height="411" viewBox="0 0 390 411" fill="none" xmlns="http://www.w3.org/2000/svg">
<mask id="path-1-inside-1" fill="white">
<path d="M389.093 410.017C388.113 407.397 386.807 404.449 385.501 401.337C381.908 393.313 376.684 383.486 368.52 374.151C360.519 364.653 349.253 355.645 335.537 348.767C328.68 345.328 321.332 342.38 313.658 339.432C305.984 336.484 297.983 333.7 290.146 330.261C282.309 326.822 274.308 322.891 266.96 317.65C263.368 315.03 259.776 312.41 256.511 308.971L253.898 306.514C253.245 305.859 252.429 304.876 251.612 304.057C250.143 302.256 248.51 300.618 247.04 298.817C241.162 291.611 236.591 283.258 232.672 274.415C228.753 265.571 225.651 256.236 222.222 246.738C218.957 237.239 215.364 227.74 210.466 218.405C209.16 216.112 208.017 213.82 206.711 211.527L204.588 208.251L203.608 206.614L202.465 204.976C200.833 202.847 199.363 200.554 197.567 198.753L192.342 193.021C184.995 185.487 176.341 179.264 167.197 174.187C158.054 169.11 148.584 165.343 139.113 161.74C129.807 158.138 120.5 154.862 112.009 150.768C107.764 148.803 103.519 146.51 99.6 144.053C97.6407 142.743 95.6814 141.433 93.8853 140.287C92.0892 138.976 90.4564 137.502 88.6604 136.192C87.844 135.537 86.8643 134.718 86.0479 133.899L83.4355 131.443L82.1292 130.296L81.4761 129.641L81.3128 129.478C81.6394 129.641 81.3128 129.478 81.3128 129.478L80.9863 129.15L78.7004 126.694C75.5981 123.418 73.149 119.815 70.5365 116.376C65.6381 109.17 62.046 101.309 58.7804 93.448C55.5149 85.587 52.9024 77.5622 50.1267 69.7012C47.3509 61.8402 44.5752 54.3068 40.9831 47.1009C37.5542 39.8949 33.7988 33.3441 29.227 27.2846C28.084 25.8106 26.9411 24.1729 25.7982 22.8628C24.6552 21.5526 23.5122 20.4062 22.5326 19.096C22.0428 18.441 21.3896 17.9496 20.8998 17.2945L20.5733 16.8032L20.41 16.6395C19.9201 16.1482 20.2467 16.4757 20.0834 16.3119L19.9202 16.1482L18.9405 15.3293C17.6342 14.1829 16.4913 13.0365 15.3483 11.8901C10.45 7.4683 5.55164 4.02911 0.816559 0.917463L0.816558 16.1482C2.93918 17.6221 5.0618 19.2598 7.18442 21.0613C8.32736 22.0439 9.30704 23.0265 10.45 24.0092L11.2664 24.828L11.4297 24.9918C11.4297 24.9918 11.5929 25.1556 11.4297 24.9918L11.7562 25.3193C12.2461 25.9744 12.8992 26.4657 13.389 27.1208C14.532 28.2672 15.6749 29.5774 16.8178 30.7238C17.9608 32.0339 18.7772 33.1803 19.7569 34.4905C21.7162 36.7833 23.5123 39.7312 25.4716 42.679C26.4513 44.153 27.2677 45.6269 28.0841 47.2646C28.9005 48.9023 29.8801 50.3763 30.6965 52.014C33.9621 58.5648 36.9011 65.7707 39.8401 73.3042C42.7791 80.8377 45.5549 89.0262 49.147 97.2147C52.7391 105.403 56.8211 113.919 62.3726 121.78C65.3116 125.711 68.0873 129.641 71.5161 133.081L73.9653 135.701L74.2919 136.028C74.4551 136.192 74.2919 136.028 74.6184 136.356L74.7817 136.52L75.4348 137.175L76.7411 138.321L79.3535 140.614C80.1699 141.433 80.9863 142.252 82.1292 142.907C84.0886 144.381 86.2112 146.018 88.3338 147.492C90.4564 148.803 92.5791 150.113 94.7017 151.587C99.1102 154.043 103.519 156.5 108.091 158.465C117.234 162.559 126.704 165.835 136.174 169.11C145.481 172.386 154.788 175.989 163.442 180.41C172.096 184.996 180.26 190.564 187.281 197.443L192.342 202.847C193.322 203.83 193.975 204.812 194.628 205.631L196.914 208.415L198.057 209.889L199.037 211.363L200.996 214.475C202.465 216.44 203.608 218.733 204.751 220.862C209.486 229.542 213.242 238.713 216.671 248.048C220.263 257.383 223.528 266.881 227.774 275.889C232.019 284.896 237.08 293.576 243.285 300.946C244.755 302.911 246.551 304.549 248.183 306.35C249 307.169 249.653 308.152 250.796 308.971L253.408 311.263C256.674 314.375 260.756 317.323 264.511 319.943C272.185 325.184 280.513 329.114 288.513 332.39C296.677 335.665 304.678 338.449 312.352 341.233C320.026 344.017 327.373 346.802 334.231 350.077C347.947 356.464 359.05 365.144 367.213 374.315C375.377 383.486 380.766 392.985 384.521 401.01C385.99 404.121 387.297 406.906 388.276 409.526L389.093 409.526L389.093 410.017Z"/>
</mask>
<path d="M389.093 410.017C388.113 407.397 386.807 404.449 385.501 401.337C381.908 393.313 376.684 383.486 368.52 374.151C360.519 364.653 349.253 355.645 335.537 348.767C328.68 345.328 321.332 342.38 313.658 339.432C305.984 336.484 297.983 333.7 290.146 330.261C282.309 326.822 274.308 322.891 266.96 317.65C263.368 315.03 259.776 312.41 256.511 308.971L253.898 306.514C253.245 305.859 252.429 304.876 251.612 304.057C250.143 302.256 248.51 300.618 247.04 298.817C241.162 291.611 236.591 283.258 232.672 274.415C228.753 265.571 225.651 256.236 222.222 246.738C218.957 237.239 215.364 227.74 210.466 218.405C209.16 216.112 208.017 213.82 206.711 211.527L204.588 208.251L203.608 206.614L202.465 204.976C200.833 202.847 199.363 200.554 197.567 198.753L192.342 193.021C184.995 185.487 176.341 179.264 167.197 174.187C158.054 169.11 148.584 165.343 139.113 161.74C129.807 158.138 120.5 154.862 112.009 150.768C107.764 148.803 103.519 146.51 99.6 144.053C97.6407 142.743 95.6814 141.433 93.8853 140.287C92.0892 138.976 90.4564 137.502 88.6604 136.192C87.844 135.537 86.8643 134.718 86.0479 133.899L83.4355 131.443L82.1292 130.296L81.4761 129.641L81.3128 129.478C81.6394 129.641 81.3128 129.478 81.3128 129.478L80.9863 129.15L78.7004 126.694C75.5981 123.418 73.149 119.815 70.5365 116.376C65.6381 109.17 62.046 101.309 58.7804 93.448C55.5149 85.587 52.9024 77.5622 50.1267 69.7012C47.3509 61.8402 44.5752 54.3068 40.9831 47.1009C37.5542 39.8949 33.7988 33.3441 29.227 27.2846C28.084 25.8106 26.9411 24.1729 25.7982 22.8628C24.6552 21.5526 23.5122 20.4062 22.5326 19.096C22.0428 18.441 21.3896 17.9496 20.8998 17.2945L20.5733 16.8032L20.41 16.6395C19.9201 16.1482 20.2467 16.4757 20.0834 16.3119L19.9202 16.1482L18.9405 15.3293C17.6342 14.1829 16.4913 13.0365 15.3483 11.8901C10.45 7.4683 5.55164 4.02911 0.816559 0.917463L0.816558 16.1482C2.93918 17.6221 5.0618 19.2598 7.18442 21.0613C8.32736 22.0439 9.30704 23.0265 10.45 24.0092L11.2664 24.828L11.4297 24.9918C11.4297 24.9918 11.5929 25.1556 11.4297 24.9918L11.7562 25.3193C12.2461 25.9744 12.8992 26.4657 13.389 27.1208C14.532 28.2672 15.6749 29.5774 16.8178 30.7238C17.9608 32.0339 18.7772 33.1803 19.7569 34.4905C21.7162 36.7833 23.5123 39.7312 25.4716 42.679C26.4513 44.153 27.2677 45.6269 28.0841 47.2646C28.9005 48.9023 29.8801 50.3763 30.6965 52.014C33.9621 58.5648 36.9011 65.7707 39.8401 73.3042C42.7791 80.8377 45.5549 89.0262 49.147 97.2147C52.7391 105.403 56.8211 113.919 62.3726 121.78C65.3116 125.711 68.0873 129.641 71.5161 133.081L73.9653 135.701L74.2919 136.028C74.4551 136.192 74.2919 136.028 74.6184 136.356L74.7817 136.52L75.4348 137.175L76.7411 138.321L79.3535 140.614C80.1699 141.433 80.9863 142.252 82.1292 142.907C84.0886 144.381 86.2112 146.018 88.3338 147.492C90.4564 148.803 92.5791 150.113 94.7017 151.587C99.1102 154.043 103.519 156.5 108.091 158.465C117.234 162.559 126.704 165.835 136.174 169.11C145.481 172.386 154.788 175.989 163.442 180.41C172.096 184.996 180.26 190.564 187.281 197.443L192.342 202.847C193.322 203.83 193.975 204.812 194.628 205.631L196.914 208.415L198.057 209.889L199.037 211.363L200.996 214.475C202.465 216.44 203.608 218.733 204.751 220.862C209.486 229.542 213.242 238.713 216.671 248.048C220.263 257.383 223.528 266.881 227.774 275.889C232.019 284.896 237.08 293.576 243.285 300.946C244.755 302.911 246.551 304.549 248.183 306.35C249 307.169 249.653 308.152 250.796 308.971L253.408 311.263C256.674 314.375 260.756 317.323 264.511 319.943C272.185 325.184 280.513 329.114 288.513 332.39C296.677 335.665 304.678 338.449 312.352 341.233C320.026 344.017 327.373 346.802 334.231 350.077C347.947 356.464 359.05 365.144 367.213 374.315C375.377 383.486 380.766 392.985 384.521 401.01C385.99 404.121 387.297 406.906 388.276 409.526L389.093 409.526L389.093 410.017Z" stroke="white" stroke-opacity="0.015" stroke-width="2" mask="url(#path-1-inside-1)"/>
</svg>
