<svg width="218" height="203" viewBox="0 0 218 203" fill="none" xmlns="http://www.w3.org/2000/svg">
<path d="M216.847 201.809C212.635 199.879 207.84 197.223 202.596 193.975C201.859 193.482 201.082 192.99 200.311 192.501L200.307 192.499C199.536 192.01 198.771 191.526 198.047 191.042C197.55 190.654 197.042 190.237 196.522 189.811C195.55 189.015 194.536 188.184 193.469 187.435C192.682 186.882 191.968 186.247 191.235 185.572C191.126 185.473 191.017 185.372 190.908 185.271C190.282 184.693 189.632 184.093 188.923 183.524L188.61 183.914L188.923 183.524C188.132 182.889 187.497 182.253 186.678 181.432L186.324 181.785L186.678 181.432C186.38 181.133 186.081 180.797 185.752 180.428L185.697 180.367C185.351 179.978 184.975 179.559 184.556 179.139C184.158 178.74 183.799 178.34 183.431 177.93L183.427 177.925C183.062 177.519 182.687 177.101 182.27 176.682L181.152 175.561L180.198 174.285C180.197 174.284 180.197 174.283 180.196 174.282C178.885 172.475 177.413 170.669 175.951 168.877L172.051 163.009C171.404 161.955 170.796 160.899 170.185 159.836L170.183 159.833C169.574 158.774 168.961 157.707 168.306 156.64C163.429 147.832 159.522 138.201 155.769 128.22C152.015 118.232 148.087 107.888 143.01 98.0327L143.007 98.0269C142.349 96.7898 141.651 95.5952 140.959 94.4106L140.956 94.4064C140.262 93.2177 139.573 92.0389 138.925 90.821L138.916 90.803L138.905 90.7859C138.166 89.6341 137.388 88.4832 136.613 87.3384L136.612 87.3364C135.836 86.1891 135.064 85.0478 134.333 83.9076L134.322 83.8898L134.309 83.8731C133.489 82.8039 132.628 81.7355 131.773 80.6726L131.771 80.6702C130.913 79.6049 130.059 78.545 129.247 77.486L129.231 77.4656L129.214 77.447L123.336 71.2237L123.321 71.2084L123.306 71.1943L117.264 65.7899L117.251 65.7778L117.236 65.7667C116.172 64.945 115.066 64.1239 113.965 63.306L113.964 63.3046C112.861 62.4853 111.762 61.6692 110.705 60.8536L110.682 60.8359L110.658 60.821C109.942 60.3906 109.243 59.9754 108.555 59.5669C106.877 58.5699 105.265 57.6128 103.65 56.5712L103.639 56.5641L103.628 56.5576C101.334 55.2432 98.8736 53.9267 96.4097 52.7732C86.9399 48.1827 77.0174 44.8137 67.2586 41.5003C66.8885 41.3747 66.5186 41.2491 66.149 41.1235C56.0328 37.6867 46.1051 34.0946 36.9977 29.5284C35.9763 28.9435 34.955 28.4231 33.9602 27.9162C33.8331 27.8514 33.7064 27.7868 33.5802 27.7224C32.4579 27.1493 31.3719 26.5841 30.3295 25.9407C29.2725 25.2884 28.2557 24.6356 27.2347 23.9802L27.2339 23.9797C26.2204 23.3292 25.2029 22.6759 24.1445 22.0224L18.2918 17.6197L18.2848 17.6143L16.8338 16.4822L15.5383 15.3453L15.53 15.338L15.5214 15.3311C15.1266 15.0143 14.7294 14.6559 14.319 14.2855L14.313 14.2801C13.9125 13.9186 13.4993 13.5455 13.0836 13.2113C8.50398 9.07634 4.50487 4.94807 1.2164 0.826651L15.6385 0.826651C17.048 2.39717 18.4808 3.98327 20.0684 5.42005C20.41 5.84362 20.7878 6.22099 21.1707 6.58486C21.3002 6.70791 21.4288 6.82809 21.5572 6.94803C21.8256 7.1989 22.093 7.44877 22.3652 7.72182L23.5082 8.86822L23.5217 8.88182L23.5363 8.89434L24.6793 9.87696L24.6857 9.88249L24.6923 9.8878L24.7019 9.89547L24.7114 9.90315L24.721 9.91083L24.7306 9.9185L24.7401 9.92618L24.7497 9.93386L24.7593 9.94153L24.7688 9.94921L24.7784 9.95689L24.788 9.96456L24.7975 9.97224L24.8071 9.97992L24.8167 9.98759L24.8262 9.99527L24.8358 10.0029L24.8454 10.0106L24.8549 10.0183L24.8645 10.026L24.8741 10.0337L24.8836 10.0413L24.8932 10.049L24.9028 10.0567L24.9123 10.0644L24.9219 10.072L24.9315 10.0797L24.941 10.0874L24.9506 10.0951L24.9602 10.1027L24.9697 10.1104L24.9793 10.1181L24.9889 10.1258L24.9984 10.1335L25.008 10.1411L25.0176 10.1488L25.0271 10.1565L25.0367 10.1642L25.0463 10.1718L25.0558 10.1795L25.0654 10.1872L25.075 10.1949L25.0845 10.2025L25.0941 10.2102L25.1037 10.2179L25.1133 10.2256L25.1228 10.2332L25.1324 10.2409L25.142 10.2486L25.1515 10.2563L25.1611 10.264L25.1707 10.2716L25.1802 10.2793L25.1898 10.287L25.1994 10.2947L25.2089 10.3023L25.2185 10.31L25.2281 10.3177L25.2376 10.3254L25.2472 10.333L25.2568 10.3407L25.2663 10.3484L25.2759 10.3561L25.2855 10.3638L25.295 10.3714L25.3046 10.3791L25.3142 10.3868L25.3237 10.3945L25.3333 10.4021L25.3429 10.4098L25.3524 10.4175L25.362 10.4252L25.3716 10.4328L25.3811 10.4405L25.3907 10.4482L25.4003 10.4559L25.4098 10.4636L25.4194 10.4712L25.429 10.4789L25.4385 10.4866L25.4481 10.4943L25.4577 10.5019L25.4672 10.5096L25.4768 10.5173L25.4864 10.525L25.4959 10.5326L25.5055 10.5403L25.5151 10.548L25.5246 10.5557L25.5342 10.5634L25.5438 10.571L25.5533 10.5787L25.5629 10.5864L25.5725 10.5941L25.582 10.6017L25.5916 10.6094L25.6012 10.6171L25.6107 10.6248L25.6203 10.6324L25.6299 10.6401L25.6394 10.6478L25.649 10.6555L25.6586 10.6631L25.6681 10.6708L25.6777 10.6785L25.6873 10.6862L25.6968 10.6939L25.7064 10.7015L25.716 10.7092L25.7255 10.7169L25.7351 10.7246L25.7447 10.7322L25.7542 10.7399L25.7638 10.7476L25.7734 10.7553L25.7829 10.7629L25.7925 10.7706L25.8021 10.7783L25.8116 10.786L25.8212 10.7937L25.8308 10.8013L25.8403 10.809L25.8499 10.8167L25.8595 10.8244L25.869 10.832L25.8786 10.8397L25.8882 10.8474L25.8978 10.8551L25.9073 10.8627L25.9169 10.8704L25.9265 10.8781L25.936 10.8858L25.9456 10.8935L25.9552 10.9011L25.9647 10.9088L25.9743 10.9165L25.9839 10.9242L25.9934 10.9318L26.003 10.9395L26.0126 10.9472L26.0221 10.9549L26.0317 10.9625L26.0413 10.9702L26.0508 10.9779L26.0604 10.9856L26.07 10.9932L26.0795 11.0009L26.0891 11.0086L26.0987 11.0163L26.1082 11.024L26.1178 11.0316L26.1274 11.0393L26.1369 11.047L26.1465 11.0547L26.1561 11.0623L26.1656 11.07L26.1752 11.0777L26.1848 11.0854L26.1943 11.093L26.2039 11.1007L26.2135 11.1084L26.223 11.1161L26.2326 11.1238L26.2422 11.1314L26.2517 11.1391L26.2613 11.1468L26.2709 11.1545L26.2804 11.1621L26.29 11.1698L26.2996 11.1775L26.3091 11.1852L26.3187 11.1928L26.3283 11.2005L26.3378 11.2082L26.3474 11.2159L26.357 11.2236L26.3665 11.2312L26.3761 11.2389L26.3857 11.2466L26.3952 11.2543L26.4048 11.2619L26.4144 11.2696L26.4239 11.2773L26.4335 11.285L26.4431 11.2926L26.4526 11.3003L26.4622 11.308L26.4718 11.3157L26.4813 11.3234L26.4909 11.331L26.5005 11.3387L26.51 11.3464L26.5196 11.3541L26.5292 11.3617L26.5387 11.3694L26.5483 11.3771L26.5579 11.3848L26.5674 11.3924L26.577 11.4001L26.5866 11.4078L26.5961 11.4155L26.6057 11.4231L26.6153 11.4308L26.6248 11.4385L26.6344 11.4462L26.644 11.4539L26.6535 11.4615L26.6631 11.4692L26.6727 11.4769L26.6823 11.4846L26.6918 11.4922L26.7014 11.4999L26.711 11.5076L26.7205 11.5153L26.7301 11.5229L26.7397 11.5306L26.7492 11.5383L26.7588 11.546L26.7684 11.5537L26.7779 11.5613L26.7875 11.569L26.7971 11.5767L26.8066 11.5844L26.8162 11.592L26.8258 11.5997L26.8353 11.6074L26.8449 11.6151L26.8545 11.6227L26.864 11.6304L26.8736 11.6381L26.8832 11.6458L26.8927 11.6535L26.9023 11.6611L26.9119 11.6688L26.9214 11.6765L26.931 11.6842L26.9406 11.6918L26.9501 11.6995L26.9597 11.7072L26.9693 11.7149L26.9788 11.7225L26.9884 11.7302L26.998 11.7379L27.0075 11.7456L27.0171 11.7532L27.0267 11.7609L27.0362 11.7686L27.0458 11.7763L27.0554 11.784L27.0649 11.7916L27.0745 11.7993L27.0841 11.807L27.0936 11.8147L27.1032 11.8223L27.1128 11.83L27.1223 11.8377L27.1319 11.8454L27.1415 11.853L27.151 11.8607L27.1606 11.8684L27.1702 11.8761L27.1797 11.8838L27.1893 11.8914L27.1989 11.8991L27.2084 11.9068L27.218 11.9145L27.2276 11.9221L27.2371 11.9298L27.2467 11.9375L27.2563 11.9452L27.2658 11.9528L27.2754 11.9605L27.285 11.9682L27.2945 11.9759L27.3041 11.9836L27.3137 11.9912L27.3232 11.9989L27.3328 12.0066L27.3424 12.0143L27.3519 12.0219L27.3615 12.0296L27.3711 12.0373L27.3806 12.045L27.3902 12.0526L27.3998 12.0603L27.4093 12.068L27.4189 12.0757L27.4285 12.0833L27.438 12.091L27.4476 12.0987L27.4572 12.1064L27.4668 12.1141L27.4763 12.1217L27.4859 12.1294L27.4955 12.1371L27.505 12.1448L27.5146 12.1524L27.5242 12.1601L27.5337 12.1678L27.5433 12.1755L27.5529 12.1831L27.5624 12.1908L27.572 12.1985L27.5816 12.2062L27.5911 12.2139L27.6007 12.2215L27.6103 12.2292L27.6198 12.2369L27.6294 12.2446L27.639 12.2522L27.6485 12.2599L27.6581 12.2676L27.6677 12.2753L27.6772 12.2829L27.6868 12.2906L27.6964 12.2983L27.7059 12.306L27.7155 12.3137L27.7251 12.3213L27.7346 12.329L27.7442 12.3367L27.7538 12.3444L27.7633 12.352L27.7729 12.3597L27.7825 12.3674L27.792 12.3751L27.8016 12.3827L27.8112 12.3904L27.8207 12.3981L27.8303 12.4058L27.8399 12.4135L27.8494 12.4211L27.859 12.4288L27.8686 12.4365L27.8781 12.4442L27.8877 12.4518L27.8973 12.4595L27.9068 12.4672L27.9164 12.4749L27.926 12.4825L27.9355 12.4902L27.9451 12.4979L27.9547 12.5056L27.9642 12.5132L27.9738 12.5209L27.9834 12.5286L27.9929 12.5363L28.0025 12.544L28.0121 12.5516L28.0216 12.5593L28.0312 12.567L28.0408 12.5747L28.0503 12.5823L28.0599 12.59L28.0695 12.5977L28.079 12.6054L28.0886 12.613L28.0982 12.6207L28.1077 12.6284L28.1173 12.6361L28.1269 12.6438L28.1364 12.6514L28.146 12.6591L28.1556 12.6668L28.1651 12.6745L28.1747 12.6821L28.1843 12.6898L28.1938 12.6975L28.2034 12.7052L28.213 12.7128L28.2225 12.7205L28.2321 12.7282L28.2417 12.7359L28.2513 12.7436L28.2608 12.7512L28.2704 12.7589L28.28 12.7666L28.2895 12.7743L28.2991 12.7819L28.3087 12.7896L28.3182 12.7973L28.3278 12.805L28.3374 12.8126L28.3469 12.8203L28.3565 12.828L28.3661 12.8357L28.3756 12.8433L28.3852 12.851L28.3948 12.8587L28.4043 12.8664L28.4139 12.8741L28.4235 12.8817L28.433 12.8894L28.4426 12.8971L28.4522 12.9048L28.4617 12.9124L28.4713 12.9201L28.4809 12.9278L28.4904 12.9355L28.5 12.9431L28.5096 12.9508L28.5191 12.9585L28.5287 12.9662L28.5383 12.9739L28.5478 12.9815L28.5574 12.9892L28.567 12.9969L28.5765 13.0046L28.5861 13.0122L28.5957 13.0199L28.6052 13.0276L28.6148 13.0353L28.6244 13.0429L28.6339 13.0506L28.6435 13.0583L28.6531 13.066L28.6626 13.0737L28.6722 13.0813L28.6818 13.089L28.6913 13.0967L28.7009 13.1044L28.7105 13.112L28.72 13.1197L28.7296 13.1274L28.7392 13.1351L28.7487 13.1427L28.7583 13.1504L28.7679 13.1581L28.7774 13.1658L28.787 13.1734L28.7966 13.1811L28.8061 13.1888L28.8157 13.1965L28.8253 13.2042L28.8348 13.2118L28.8444 13.2195L28.854 13.2272L28.8635 13.2349L28.8731 13.2425L28.8827 13.2502L28.8922 13.2579L28.9018 13.2656L28.9114 13.2732L28.9209 13.2809L28.9305 13.2886L28.9401 13.2963L28.9496 13.304L28.9592 13.3116L28.9688 13.3193L28.9783 13.327L28.9879 13.3347L28.9975 13.3423L29.007 13.35L29.0166 13.3577L29.0262 13.3654L29.0358 13.373L29.0453 13.3807L29.0549 13.3884L29.0645 13.3961L29.074 13.4038L29.0836 13.4114L29.0932 13.4191L29.1027 13.4268L29.1123 13.4345L29.1219 13.4421L29.1314 13.4498L29.141 13.4575L29.1506 13.4652L29.1601 13.4728L29.1697 13.4805L29.1793 13.4882L29.1888 13.4959L29.1984 13.5036L29.208 13.5112L29.2175 13.5189L29.2271 13.5266L29.2367 13.5343L29.2462 13.5419L29.2558 13.5496L29.2654 13.5573L29.2749 13.565L29.2845 13.5726L29.2941 13.5803L29.3036 13.588L29.3132 13.5957L29.3228 13.6033L29.3323 13.611L29.3419 13.6187L29.3515 13.6264L29.361 13.6341L29.3706 13.6417L29.3802 13.6494L29.3897 13.6571L29.3993 13.6648L29.4089 13.6724L29.4184 13.6801L29.428 13.6878L29.4376 13.6955L29.4471 13.7031L29.4567 13.7108L29.4663 13.7185L29.4758 13.7262L29.4854 13.7339L29.495 13.7415L29.5045 13.7492L29.5141 13.7569L29.5237 13.7646L29.5332 13.7722L29.5428 13.7799L29.5524 13.7876L29.5619 13.7953L29.5715 13.8029L29.5811 13.8106L29.5906 13.8183L29.5996 13.8255L29.6089 13.8323C30.5172 14.4948 31.4649 15.1148 32.4001 15.7265L32.4056 15.7301C33.3463 16.3455 34.2744 16.9527 35.1604 17.599L35.1808 17.6139L35.2025 17.6266C36.1859 18.202 37.2095 18.7769 38.2285 19.3493L38.2308 19.3506C39.2521 19.9242 40.2686 20.4952 41.2438 21.0658L41.251 21.07L41.2582 21.0739C49.4507 25.5112 58.7813 29.4508 68.7503 33.221L69.1517 33.3728C78.9938 37.0947 89.2724 40.9816 99.3893 46.2967C100.937 47.1248 102.477 48.0142 104.067 48.932C104.982 49.4604 105.914 49.9982 106.872 50.5391L110.53 52.9852L114.179 55.425C116.46 57.3854 118.741 59.1828 121.012 60.9726L127.511 67.1659L133.202 73.5259C134.984 75.8016 136.767 78.2401 138.556 80.6872C139.291 81.9138 140.065 83.1394 140.835 84.3592L140.837 84.3624C141.609 85.5861 142.378 86.8038 143.107 88.0206C143.758 89.3278 144.41 90.5941 145.06 91.8572L145.06 91.8577C145.713 93.1255 146.363 94.3901 147.014 95.695C151.898 106.146 155.481 116.601 158.91 126.754C162.338 136.907 165.777 146.601 170.204 155.317L170.204 155.317L170.209 155.327C170.584 156.026 170.963 156.748 171.342 157.473C172.107 158.935 172.879 160.409 173.646 161.729C174.222 162.718 174.837 163.706 175.448 164.687L175.45 164.69C176.063 165.673 176.671 166.649 177.238 167.624L177.251 167.646L177.266 167.666L181.184 173.071L181.189 173.077L182.169 174.387L182.19 174.415L182.215 174.441L183.338 175.568C183.67 175.981 184.038 176.392 184.396 176.791L184.401 176.796C184.77 177.208 185.128 177.606 185.444 178.002L185.478 178.046L185.522 178.081C186.286 178.694 186.904 179.465 187.562 180.289C187.834 180.653 188.228 181.044 188.613 181.41C188.757 181.547 188.899 181.68 189.038 181.809C189.285 182.04 189.52 182.259 189.726 182.465L189.736 182.476L189.747 182.486C190.325 183.001 190.902 183.567 191.489 184.142C191.637 184.287 191.786 184.433 191.935 184.579C192.666 185.292 193.414 186.001 194.168 186.591C195.633 187.897 196.947 189.05 198.426 190.204L198.44 190.215L198.456 190.225C199.175 190.706 199.856 191.228 200.552 191.762L200.558 191.767C201.247 192.295 201.951 192.835 202.698 193.335C207.83 196.874 212.649 199.626 216.847 201.745L216.847 201.809Z" stroke="white" stroke-opacity="0.015"/>
</svg>
