<svg width="396" height="410" viewBox="0 0 396 410" fill="none" xmlns="http://www.w3.org/2000/svg">
<path d="M357.319 347.421L357.311 347.415C350.82 342.044 343.184 337.479 334.884 333.561L334.881 333.56C326.74 329.64 317.78 326.208 308.802 322.934L308.794 322.931C308.025 322.637 307.254 322.342 306.481 322.047C298.227 318.896 289.728 315.651 281.638 311.444L281.631 311.44C280.566 310.865 279.461 310.249 278.36 309.635C277.257 309.021 276.158 308.408 275.1 307.837L275.087 307.83L275.075 307.823C274.008 307.164 272.942 306.465 271.883 305.77L271.879 305.768C270.817 305.071 269.762 304.379 268.707 303.728L268.696 303.721L268.685 303.713C267.61 302.967 266.62 302.181 265.644 301.406L265.638 301.402C264.658 300.623 263.691 299.856 262.646 299.13C262.129 298.784 261.621 298.358 261.129 297.926C260.959 297.777 260.793 297.629 260.629 297.482C260.306 297.194 259.99 296.912 259.669 296.644L259.663 296.639L259.657 296.634L256.718 294.013L256.711 294.008L256.704 294.001C249.317 286.921 242.918 278.362 237.995 268.817C232.913 259.444 229.147 249.259 225.555 238.775C221.963 228.297 218.218 217.682 213.174 207.399L209.102 199.883C208.372 198.664 207.602 197.444 206.828 196.218L206.825 196.214C206.056 194.996 205.284 193.774 204.552 192.55C203.658 191.408 202.765 190.227 201.875 189.05L201.872 189.047C200.977 187.863 200.084 186.684 199.193 185.545L193.496 179.178C185.378 170.874 175.793 164.192 165.712 158.974C155.456 153.749 144.871 149.828 134.583 146.061L134.576 146.059C124.291 142.129 114.3 138.187 105.122 133.091L105.116 133.087L101.687 131.122L101.675 131.115L101.663 131.107L98.3972 128.978L95.1316 126.849L95.1139 126.837L95.0972 126.824L92.1581 124.532L89.2191 122.239L89.2125 122.234L89.206 122.228C88.7069 121.811 88.2097 121.354 87.7229 120.906L87.7188 120.903C87.2272 120.451 86.7462 120.008 86.267 119.608L86.2551 119.598L86.2438 119.587L83.3048 116.803L83.2996 116.798L83.2946 116.793L82.6414 116.138L82.4782 115.974L82.1516 115.647L82.1412 115.636L82.1315 115.625L80.8335 114.16C80.832 114.159 80.8305 114.157 80.829 114.156C73.9341 106.745 68.5211 98.3514 64.2592 89.6377L64.2576 89.6344C60.2186 81.2204 57.0649 72.5132 53.9661 63.9579C53.7979 63.4935 53.6299 63.0296 53.4619 62.5662L53.46 62.5611C47.0893 44.3742 40.4182 26.4377 29.2115 12.2648C29.2114 12.2647 29.2113 12.2646 29.2113 12.2645L29.6035 11.9544M357.319 347.421L27.4809 9.33404C28.0518 9.90666 28.5428 10.5594 29.0098 11.1801C29.2107 11.4471 29.4071 11.7081 29.6035 11.9544M357.319 347.421C370.631 358.006 379.407 371.202 385.427 383.441C389.281 391.481 392.114 398.937 394.48 405.814C391.988 399.162 389.052 391.771 385.18 384.143L385.179 384.142M357.319 347.421L385.179 384.142M29.6035 11.9544C40.8697 26.2024 47.5641 44.2172 53.932 62.3958C54.0993 62.8573 54.2666 63.3193 54.4341 63.7816C57.5348 72.3422 60.6806 81.0275 64.7084 89.418C68.9536 98.0979 74.3418 106.45 81.1995 113.82L82.5057 115.294L82.8323 115.621L82.9955 115.785L83.6487 116.44M29.6035 11.9544L83.6487 116.44M83.6487 116.44L86.5877 119.224C87.0775 119.634 87.5674 120.084 88.0573 120.535C88.5471 120.985 89.0369 121.435 89.5267 121.845M83.6487 116.44L89.5267 121.845M89.5267 121.845L92.4657 124.137L95.4047 126.43L98.6703 128.559L101.936 130.688L105.365 132.654M89.5267 121.845L105.365 132.654M105.365 132.654C114.508 137.73 124.468 141.661 134.755 145.591C145.041 149.358 155.654 153.289 165.941 158.529C176.064 163.77 185.698 170.485 193.862 178.837L199.576 185.224C200.474 186.37 201.372 187.558 202.27 188.745C203.169 189.932 204.067 191.12 204.965 192.266C205.699 193.494 206.475 194.723 207.251 195.951C208.026 197.179 208.802 198.408 209.536 199.636L213.618 207.169C218.68 217.487 222.435 228.132 226.028 238.613C229.62 249.095 233.375 259.248 238.437 268.583C243.335 278.082 249.703 286.598 257.05 293.64M105.365 132.654L257.05 293.64M257.05 293.64L259.989 296.261M257.05 293.64L259.989 296.261M259.989 296.261C260.316 296.534 260.643 296.825 260.969 297.116M259.989 296.261L260.969 297.116M262.928 298.717C263.99 299.454 264.969 300.232 265.949 301.01C266.929 301.788 267.908 302.566 268.97 303.303C270.031 303.958 271.093 304.654 272.154 305.35C273.215 306.046 274.276 306.742 275.338 307.397C276.399 307.97 277.501 308.584 278.603 309.199C279.705 309.813 280.807 310.427 281.869 311C289.932 315.193 298.404 318.428 306.662 321.581C307.434 321.876 308.205 322.17 308.973 322.464C317.953 325.739 326.934 329.179 335.098 333.109L262.928 298.717ZM262.928 298.717C262.275 298.28 261.622 297.698 260.969 297.116M262.928 298.717L260.969 297.116M78.0937 122.773L78.1034 122.782L81.0303 125.391C81.0324 125.393 81.0344 125.395 81.0365 125.397C81.5337 125.813 82.029 126.268 82.514 126.714L82.5176 126.717C83.0063 127.167 83.4846 127.606 83.9609 128.005L87.3811 130.619L90.7931 133.226L94.3675 135.507L97.9414 137.789L101.678 139.744L101.679 139.744C111.605 144.968 122.026 148.888 132.475 152.654C133.94 153.182 135.402 153.704 136.861 154.225C145.796 157.413 154.61 160.558 163.06 164.796C172.902 169.567 181.926 175.821 189.64 183.393L189.65 183.402L189.659 183.412L195.21 189.472L195.225 189.488L195.238 189.505C196.872 191.636 198.499 193.757 200.124 195.713L200.144 195.737L200.161 195.763L204.569 202.641L204.579 202.657L204.587 202.672L208.506 209.878L208.51 209.885C213.406 219.232 217.082 229.338 220.702 239.287C220.837 239.66 220.973 240.032 221.108 240.404C225.027 250.723 229.097 261.171 234.465 270.796C239.83 280.418 246.493 289.217 254.448 296.546C254.449 296.547 254.449 296.547 254.45 296.548L257.371 299.152C257.373 299.154 257.375 299.156 257.377 299.157C257.74 299.461 258.089 299.773 258.438 300.085C259.077 300.657 259.716 301.228 260.444 301.75L260.451 301.755L260.458 301.76C262.58 303.398 264.683 305.02 266.944 306.478C268.092 307.137 269.197 307.835 270.293 308.527L270.298 308.53C271.398 309.225 272.487 309.913 273.615 310.56C274.761 311.134 275.905 311.749 277.042 312.36L277.044 312.361C278.188 312.976 279.325 313.586 280.46 314.156C288.884 318.381 297.588 321.49 306.088 324.527C306.78 324.774 307.472 325.022 308.162 325.269C308.622 325.433 309.081 325.598 309.54 325.762C318.187 328.857 326.551 331.851 334.327 335.439C342.509 339.214 350.225 343.492 356.639 348.77C356.902 348.982 357.159 349.171 357.425 349.366C357.563 349.468 357.704 349.571 357.849 349.68C358.259 349.989 358.682 350.327 359.107 350.751C359.935 351.418 360.6 352.085 361.402 352.889C361.742 353.192 362.094 353.497 362.451 353.808C363.61 354.814 364.826 355.869 365.842 357.016C367.136 358.477 368.595 359.94 369.903 361.252L369.914 361.263L369.923 361.274C371.24 362.76 372.392 364.244 373.532 365.715L373.535 365.719L78.0937 122.773ZM78.0937 122.773L78.0836 122.765M78.0937 122.773L78.0836 122.765M78.0836 122.765L77.2888 122.127L77.145 121.983L76.8185 121.655L76.4919 121.328L75.0261 119.858L78.0836 122.765ZM385.179 384.142C382.066 378.06 378.294 371.81 373.537 365.721L385.179 384.142Z" stroke="white" stroke-opacity="0.015"/>
</svg>
