<svg width="25" height="37" viewBox="0 0 25 37" fill="none" xmlns="http://www.w3.org/2000/svg">
<path d="M21.248 30.4602L21.2572 30.4847L21.2689 30.5082C21.9428 31.8601 22.5355 33.2045 23.11 34.5075C23.2843 34.9027 23.4568 35.2942 23.6295 35.6809L21.995 35.6809C21.7474 35.2779 21.4945 34.8532 21.2338 34.4153C20.7072 33.5311 20.1487 32.5932 19.5374 31.6717C19.0373 30.6772 18.3479 29.7582 17.709 28.9066C17.4836 28.6061 17.2644 28.3139 17.0621 28.0298C16.8373 27.7142 16.6079 27.3788 16.3717 27.0334C15.776 26.1625 15.1373 25.2287 14.4224 24.3921C13.4416 23.2444 12.4722 22.1097 11.5037 20.8145L11.494 20.8015L11.4834 20.7891C10.9871 20.2083 10.4508 19.629 9.92255 19.0585L9.91903 19.0547C9.38708 18.4801 8.86334 17.9142 8.38109 17.3499L8.37635 17.3444L8.37145 17.3389L6.73866 15.5375L6.70675 15.5023L6.66877 15.4737C6.37529 15.253 6.11404 14.9921 5.82424 14.7014L5.81354 14.6907C5.54109 14.4174 5.24183 14.1172 4.89703 13.8544L1.32999 10.4392L1.31673 10.4259L1.31673 1.95607C1.51549 2.1874 1.72276 2.42329 1.93214 2.63331L2.28623 2.28029L1.93214 2.63331C3.07308 3.77769 4.3621 5.07087 5.48932 6.36167C5.98181 7.01946 6.51341 7.67571 7.03784 8.32311L7.041 8.32701C7.57281 8.98352 8.09721 9.63099 8.58023 10.277L8.6015 10.3054L8.62658 10.3306C9.24886 10.9547 9.71796 11.5801 10.2073 12.2346L11.6715 14.3558L11.6768 14.3636L11.6825 14.3712C11.9554 14.7362 12.2345 15.0937 12.5123 15.4495C13.2635 16.4118 14.0046 17.3613 14.5846 18.4083L14.5908 18.4196L14.5976 18.4305C15.0017 19.0789 15.4064 19.769 15.8153 20.4662L15.8172 20.4693C16.2241 21.1632 16.6351 21.864 17.0468 22.5248L17.058 22.5428L17.0707 22.5598C17.8585 23.6133 18.4253 24.7729 18.9785 25.9048C19.0889 26.1306 19.1987 26.3552 19.3096 26.5777C19.5308 27.0214 19.7736 27.4712 20.0118 27.9123C20.1288 28.1288 20.2445 28.3433 20.3561 28.5539C20.7007 29.2044 21.0148 29.8364 21.248 30.4602Z" stroke="white" stroke-opacity="0.015"/>
</svg>
