<svg width="275" height="255" viewBox="0 0 275 255" fill="none" xmlns="http://www.w3.org/2000/svg">
<path d="M267.766 251.49C266.221 250.897 264.608 250.287 262.927 249.651L262.639 249.542C259.23 248.252 255.553 246.859 251.63 245.301C243.78 242.185 234.93 238.241 226.239 232.648C221.811 229.852 217.551 226.565 213.459 222.955C212.565 222.311 211.758 221.467 211.012 220.688C210.777 220.442 210.547 220.203 210.324 219.978L208.712 218.523L207.907 217.877L207.863 217.842L207.829 217.799L207.184 216.99C207.183 216.989 207.181 216.987 207.18 216.985C206.456 216.127 205.678 215.269 204.884 214.393C204.703 214.193 204.521 213.992 204.338 213.789C203.358 212.704 202.369 211.588 201.46 210.428C194.07 201.203 188.333 189.852 183.751 177.871C183.751 177.87 183.751 177.87 183.751 177.869L267.766 251.49ZM267.766 251.49C266.231 250.947 264.624 250.388 262.951 249.806L262.552 249.667C259.082 248.459 255.33 247.15 251.335 245.678C243.343 242.733 234.398 239.143 225.458 233.763L225.456 233.762C221.073 231.156 216.521 227.896 212.128 224.306L212.116 224.296L212.103 224.286C211.35 223.747 210.683 223.146 209.968 222.502C209.621 222.189 209.262 221.865 208.877 221.533C208.875 221.532 208.874 221.531 208.872 221.53L207.258 220.073L206.451 219.263L205.642 218.451C204.97 217.721 204.284 216.996 203.595 216.268C202.257 214.855 200.907 213.428 199.619 211.921C191.829 202.805 185.648 191.393 180.598 179.301C178.576 174.396 176.677 169.39 174.77 164.362C171.923 156.856 169.056 149.299 165.733 141.946L165.733 141.946L165.727 141.934L165.718 141.916C162.787 135.873 159.836 129.788 155.899 124.191C154.611 122.08 153.149 120.205 151.717 118.37C151.136 117.624 150.56 116.886 150.003 116.141C149.493 115.459 148.903 114.826 148.309 114.21C148.187 114.083 148.064 113.957 147.942 113.831C147.467 113.341 146.997 112.856 146.55 112.345L146.543 112.336L146.535 112.328L142.943 108.562L142.931 108.549L142.918 108.537L139.326 105.262L139.319 105.256C139.014 104.987 138.713 104.715 138.412 104.443C137.459 103.58 136.5 102.712 135.36 101.948C134.897 101.6 134.432 101.244 133.963 100.887C131.818 99.2483 129.601 97.5544 127.165 96.1954C121.935 92.8028 116.133 90.1337 110.468 87.5276C110.084 87.3511 109.701 87.1748 109.319 86.9987L109.31 86.9946L109.301 86.9909C103.164 84.4467 96.8665 82.1909 90.559 79.9797C89.5323 79.6198 88.5054 79.2611 87.4789 78.9025C82.1955 77.0568 76.9222 75.2147 71.7341 73.229L71.7287 73.227C68.6253 72.0802 65.5527 70.9442 62.6454 69.4871C61.1636 68.6621 59.6841 68.0021 58.227 67.3526C57.4892 66.9421 56.7528 66.5728 56.0272 66.209L56.0231 66.2069C55.2869 65.8377 54.5618 65.474 53.8381 65.0707L53.8382 65.0706L53.8287 65.0656C47.9835 61.9713 42.7822 58.3856 37.5675 54.4628C36.7135 53.8204 36.0169 53.1913 35.3017 52.5454C34.9352 52.2145 34.5638 51.8791 34.164 51.5353C33.6006 51.051 33.0765 50.5658 32.5449 50.0737L32.5429 50.0717C32.0138 49.5819 31.4772 49.0851 30.8984 48.5875L30.892 48.5819L30.8854 48.5766L30.0905 47.9388L29.7836 47.631L29.6203 47.4672L29.492 47.3385L29.1928 46.8884L29.1654 46.8471L29.1305 46.8121L27.4977 45.1744C26.3528 44.026 25.3866 43.0566 24.4215 41.9271L24.4155 41.9204C20.5182 37.5227 17.1048 32.7955 14.1761 28.226C8.32715 18.9366 4.42346 9.80581 1.16153 1.79047C1.07346 1.52882 0.947021 1.23299 0.830841 0.961066L0.825714 0.949048C0.808044 0.907701 0.790619 0.866884 0.773499 0.826648L12.9247 0.826649C15.67 7.78119 18.7565 15.2315 23.119 22.6866C25.5822 26.9689 28.5376 31.2505 31.9852 35.3671L267.766 251.49Z" stroke="white" stroke-opacity="0.015"/>
</svg>
