<svg width="292" height="273" viewBox="0 0 292 273" fill="none" xmlns="http://www.w3.org/2000/svg">
<path d="M41.0137 53.2512L41.1053 53.343L41.1056 53.3433L41.106 53.3437L41.1061 53.3438L41.1062 53.3439L41.1063 53.3441L41.1067 53.3445L41.1069 53.3446L41.107 53.3447L41.1071 53.3449L41.1073 53.345L41.1074 53.3451L41.1076 53.3454L41.1078 53.3455L41.108 53.3457L41.1081 53.3459L41.1083 53.3461L41.1084 53.3462L41.1085 53.3463L41.1087 53.3465L41.1089 53.3466L41.1091 53.3468L41.1092 53.347L41.1093 53.3471L41.1095 53.3473L41.1097 53.3475L41.11 53.3477L41.1101 53.3478L41.1102 53.3479L41.1103 53.348L41.1104 53.3482L41.1106 53.3484L41.1109 53.3486L41.111 53.3488L41.1111 53.3489L41.1112 53.349L41.1114 53.3491L41.1116 53.3494L41.1119 53.3496L41.112 53.3498L41.1121 53.3499L41.1124 53.3502L41.1127 53.3505L41.1129 53.3506L41.113 53.3507L41.1131 53.3508L41.1133 53.351L41.1136 53.3513L41.1137 53.3515L41.1138 53.3516L41.114 53.3517L41.1141 53.3519L41.1145 53.3522L41.1146 53.3524L41.1148 53.3525L41.1149 53.3526L41.1151 53.3528L41.1154 53.3532L41.1156 53.3533L41.1157 53.3535L41.1161 53.3538L41.1163 53.3541L41.1164 53.3542L41.1165 53.3543L41.1167 53.3545L41.1171 53.3549L41.1173 53.355L41.1174 53.3552L41.1178 53.3556L41.118 53.3558L41.1182 53.3559L41.1183 53.3561L41.1185 53.3563L41.1188 53.3566L41.1189 53.3567L41.1191 53.3568L41.1193 53.3571L41.1196 53.3574L41.1197 53.3575L41.1199 53.3576L41.1201 53.3578L41.1205 53.3583L41.1206 53.3584L41.1209 53.3587L41.1213 53.3591L41.1215 53.3593L41.1217 53.3595L41.122 53.3598L41.1221 53.3599L41.1223 53.3601L41.1225 53.3603L41.1229 53.3607L41.123 53.3608L41.1232 53.3609L41.1234 53.3612L41.1237 53.3615L41.1239 53.3616L41.124 53.3618L41.1243 53.3621L41.1246 53.3624L41.1248 53.3625L41.1249 53.3627L41.1252 53.363L41.1255 53.3632L41.1257 53.3635L41.126 53.3638L41.1262 53.364L41.1263 53.3641L41.1266 53.3644L41.1269 53.3647L41.1271 53.3649L41.1272 53.365L41.1275 53.3653L41.1276 53.3654L41.1278 53.3656L41.1281 53.3659L41.1284 53.3662L41.1286 53.3664L41.1287 53.3665L41.129 53.3668L41.1291 53.3669L41.1293 53.3671L41.1296 53.3674L41.1299 53.3678L41.1302 53.368L41.1302 53.3681L41.1306 53.3684L41.1307 53.3685L41.1309 53.3687L41.1312 53.369L41.1315 53.3693L41.1317 53.3696L41.1321 53.3699L41.1323 53.3701L41.1324 53.3702L41.1327 53.3705L41.1328 53.3707L41.133 53.3709L41.1334 53.3712L41.1337 53.3715L41.134 53.3718L41.1343 53.3721L41.1345 53.3724L41.1349 53.3727L41.1351 53.3729L41.1352 53.3731L41.1356 53.3734L41.1357 53.3735L41.1359 53.3737L41.1362 53.374L41.1363 53.3741L41.1365 53.3743L41.1369 53.3747L41.1371 53.375L41.1375 53.3753L41.1378 53.3756L41.1381 53.3759L41.1384 53.3762L41.1387 53.3765L41.1391 53.3769L41.1393 53.3772L41.1397 53.3775L41.1399 53.3778L41.1403 53.3782L41.1406 53.3784L41.141 53.3788L41.1412 53.3791L41.1416 53.3794L41.1419 53.3797L41.1422 53.3801L41.1425 53.3804L41.1429 53.3807L41.1432 53.381L41.1435 53.3814L41.1438 53.3817L41.1441 53.382L41.1445 53.3824L41.1448 53.3826L41.1451 53.383L41.1452 53.383L41.1454 53.3833L41.1457 53.3836L41.1459 53.3837L41.146 53.3839L41.1464 53.3842L41.1466 53.3844L41.1467 53.3845L41.147 53.3849L41.1473 53.3851L41.1476 53.3855L41.148 53.3858L41.1482 53.3861L41.1486 53.3864L41.1487 53.3865L41.1489 53.3867L41.1492 53.387L41.1494 53.3873L41.1495 53.3874L41.1498 53.3877L41.1501 53.388L41.1504 53.3883L41.1507 53.3886L41.1508 53.3887L41.151 53.3889L41.1513 53.3892L41.1516 53.3895L41.152 53.3898L41.1523 53.3902L41.1526 53.3904L41.1529 53.3907L41.1531 53.391L41.1535 53.3913L41.1539 53.3917L41.1541 53.3919L41.1544 53.3923L41.1546 53.3925L41.155 53.3928L41.1553 53.3931L41.1554 53.3933L41.1555 53.3934L41.1559 53.3937L41.1562 53.3941L41.1564 53.3943L41.1567 53.3946L41.1569 53.3948L41.1573 53.3952L41.1576 53.3955L41.1578 53.3956L41.1579 53.3958L41.1582 53.396L41.1584 53.3963L41.1586 53.3964L41.1587 53.3966L41.159 53.3969L41.1594 53.3973L41.1596 53.3975L41.1598 53.3977L41.1602 53.3981L41.1604 53.3983L41.1607 53.3986L41.161 53.3989L41.1612 53.3991L41.1615 53.3994L41.1617 53.3996L41.1618 53.3997L41.162 53.3999L41.1623 53.4002L41.1625 53.4004L41.1627 53.4006L41.1628 53.4007L41.163 53.4009L41.1633 53.4012L41.1635 53.4014L41.1638 53.4017L41.1641 53.402L41.1644 53.4023L41.1645 53.4025L41.1648 53.4027L41.1651 53.403L41.1652 53.4031L41.1655 53.4034L41.1658 53.4037L41.1661 53.404L41.1662 53.4042L41.1665 53.4044L41.1667 53.4046L41.167 53.4049L41.1672 53.4051L41.1674 53.4053L41.1676 53.4055L41.1678 53.4058L41.1681 53.406L41.1683 53.4062L41.1685 53.4064L41.1687 53.4066L41.1689 53.4068L41.1691 53.4071L41.1693 53.4073L41.1696 53.4075L41.1697 53.4077L41.1699 53.4079L41.1701 53.4081L41.1703 53.4083L41.1705 53.4084L41.1707 53.4086L41.1709 53.4088L41.1711 53.409L41.1713 53.4092L41.1714 53.4094L41.1716 53.4096L41.1718 53.4097L41.172 53.4099L41.1722 53.4101L41.1723 53.4103L41.1725 53.4104L41.1727 53.4106L41.1728 53.4108L41.173 53.4109L41.1731 53.4111L41.1733 53.4112L41.1734 53.4114L41.1736 53.4115L41.1737 53.4117L41.1739 53.4118L41.174 53.4119L41.1741 53.4121L41.1744 53.4123L41.1745 53.4125L41.1746 53.4126L41.1748 53.4127L41.1749 53.4128L41.175 53.413L41.1751 53.4131L41.1752 53.4132L41.1753 53.4133L41.1754 53.4134L41.1756 53.4135L41.1756 53.4136L41.1757 53.4137L41.1758 53.4138L41.1759 53.4139L41.176 53.414L41.1763 53.4143L41.1765 53.4144L41.1766 53.4145L41.1767 53.4146L41.1768 53.4147L41.1769 53.4148L41.177 53.415L41.1863 53.4243L41.1961 53.4331L42.8231 54.9018C42.8241 54.9027 42.825 54.9035 42.826 54.9044C43.289 55.3357 43.7615 55.7832 44.2401 56.2365C46.0928 57.9912 48.0365 59.8322 49.8757 61.1528C50.4567 61.6508 51.0756 62.106 51.6771 62.5484L51.6847 62.554C52.2996 63.0063 52.8964 63.4456 53.451 63.9224L53.4796 63.947L53.5114 63.9669C54.1537 64.3695 54.7977 64.8135 55.4525 65.2651L55.4571 65.2683C56.1065 65.7161 56.7666 66.1713 57.4285 66.5863C62.8392 70.0397 68.7374 73.1615 74.7939 75.9527L74.7962 75.9537C80.9366 78.7457 87.4425 81.208 94.0931 83.7249L94.1023 83.7284C100.755 86.246 107.555 88.8194 114.313 91.8408L114.312 91.8409L114.324 91.8457C127.983 97.5543 141.147 105.869 151.868 116.782L155.607 121.022L155.614 121.03L157.403 123.151L157.417 123.167L157.431 123.181C157.73 123.481 157.998 123.825 158.28 124.209C158.353 124.308 158.426 124.41 158.502 124.514C158.713 124.805 158.939 125.116 159.183 125.423L162.605 130.163L162.61 130.17L162.615 130.177C163.736 131.623 164.701 133.234 165.684 134.877L165.691 134.889L165.7 134.902C167.224 137.137 168.487 139.531 169.758 141.94C170.24 142.853 170.722 143.769 171.221 144.678C172.85 147.947 174.472 151.365 175.768 154.777L175.768 154.778L175.773 154.789C178.534 161.55 180.891 168.393 183.212 175.131L183.233 175.193C185.559 181.946 187.85 188.593 190.469 194.915C195.709 207.562 202.592 219.076 211.127 228.298L212.586 230.087L212.602 230.106L212.619 230.124L214.252 231.762C214.83 232.341 215.407 232.879 215.977 233.409L215.98 233.412C216.552 233.945 217.117 234.471 217.681 235.037C218.461 235.819 219.259 236.467 220.033 237.096C220.409 237.401 220.779 237.702 221.138 238.011C221.401 238.237 221.66 238.467 221.919 238.699C222.748 239.437 223.586 240.183 224.604 240.825C226.904 242.636 229.364 244.28 231.819 245.757C234.279 247.238 236.737 248.553 239.183 249.861L239.189 249.864C247.407 254.261 255.515 257.395 262.809 260.215C264.238 260.767 265.637 261.308 266.999 261.844L267.01 261.848C273.326 264.163 279.006 266.386 283.916 268.449C278.948 266.56 273.293 264.558 267.019 262.38C266.4 262.165 265.774 261.949 265.142 261.73C257.1 258.946 248.038 255.809 238.837 251.271C238.206 250.934 237.566 250.597 236.924 250.259C235.058 249.278 233.164 248.282 231.355 247.193L231.339 247.183L231.322 247.175C229.3 246.161 227.384 244.852 225.456 243.536C224.927 243.175 224.397 242.813 223.865 242.457L223.858 242.453L223.852 242.449C222.967 241.894 222.17 241.27 221.32 240.606C220.939 240.308 220.547 240.001 220.132 239.689C218.823 238.704 217.53 237.731 216.402 236.761C215.839 236.278 215.275 235.752 214.702 235.219L214.698 235.215C214.131 234.687 213.555 234.151 212.978 233.654C212.977 233.653 212.975 233.651 212.973 233.65L211.205 232.038L209.589 230.254L209.582 230.247L209.575 230.24C200.646 221.12 193.166 209.383 187.469 196.651C184.619 190.196 182.092 183.535 179.561 176.839L179.411 176.442C176.931 169.884 174.441 163.296 171.636 156.864C170.54 154.118 169.216 151.485 167.866 148.798C167.594 148.259 167.322 147.716 167.05 147.171L167.036 147.143L167.019 147.117C166.156 145.819 165.389 144.456 164.607 143.067C164.513 142.899 164.418 142.731 164.323 142.563C163.447 141.009 162.539 139.435 161.462 137.938L159.998 135.735L158.528 133.524L158.516 133.506L158.503 133.489L155.258 129.421C154.757 128.586 154.246 127.905 153.568 127.225L151.616 125.267L151.608 125.259L147.86 121.337L147.852 121.328L147.844 121.32C137.504 111.443 125.037 104.041 111.764 98.7815C105.262 96.1244 98.6034 93.7841 91.9753 91.4544L91.5989 91.3221C84.844 88.9477 78.1239 86.5782 71.6096 83.8832C65.0807 80.9363 58.7479 78.0032 52.9077 74.2612C52.1661 73.7655 51.4256 73.3116 50.6947 72.8636L50.6911 72.8614C49.9551 72.4102 49.2287 71.9649 48.5035 71.48C47.7844 70.9992 47.1032 70.4769 46.4072 69.943L46.401 69.9383C45.7118 69.4096 45.0078 68.8697 44.2604 68.3698C41.9645 66.7939 40.2223 65.2273 38.4534 63.6366C37.8586 63.1018 37.2607 62.5642 36.6378 62.0227C26.5724 52.9028 19.4224 42.3119 14.0537 32.0316L14.0508 32.0261C9.46878 23.5103 6.33969 15.3353 3.5405 8.02215C2.96252 6.51208 2.39859 5.03878 1.83884 3.60679C1.66937 3.01673 1.46011 2.47245 1.25757 1.96446C1.22232 1.87604 1.18741 1.78904 1.15295 1.70323C1.0777 1.51581 1.00476 1.33402 0.935394 1.15526L13.0954 1.15526C13.3325 1.81665 13.5708 2.48354 13.811 3.15556C16.5096 10.7055 19.4398 18.9038 23.4454 27.2371C23.4457 27.2377 23.4461 27.2383 23.4464 27.239L23.4505 27.2478C24.5861 29.6886 25.738 32.1646 27.2205 34.481C28.5331 36.9471 30.0069 39.2467 31.6392 41.5401C32.0894 42.3253 32.7005 43.1304 33.2874 43.9036C33.572 44.2785 33.8508 44.6458 34.1028 44.9997L34.1073 45.006C34.9208 46.1483 35.7482 47.3101 36.7425 48.4737C37.2384 49.054 37.7336 49.5921 38.2219 50.1226L38.2242 50.1251C38.7149 50.6583 39.1986 51.184 39.6815 51.7491L39.694 51.7637L39.7075 51.7773L40.489 52.5611L40.7881 53.0112L40.8155 53.0524L40.8505 53.0874L41.0137 53.2512ZM41.3826 53.21C41.3825 53.2101 41.3825 53.2101 41.3825 53.2101L41.5645 53.0921L41.5311 53.062L41.3826 53.21ZM44.5985 55.8871C44.1152 55.4294 43.6361 54.9757 43.1639 54.5359L53.777 63.5433C53.2055 63.052 52.5932 62.6016 51.9809 62.1512C51.3686 61.7009 50.7563 61.2505 50.1849 60.7592C48.3712 59.4598 46.4547 57.6449 44.5985 55.8871Z" stroke="white" stroke-opacity="0.015"/>
</svg>
