<svg width="227" height="215" viewBox="0 0 227 215" fill="none" xmlns="http://www.w3.org/2000/svg">
<path d="M215.671 210.322C210.85 208.21 205.854 205.764 200.748 202.823C191.395 197.556 182.207 190.315 174.168 180.937C170.056 176.317 166.61 171.046 163.341 165.636L163.333 165.623L163.326 165.611C162.972 164.94 162.607 164.265 162.237 163.583C161.087 161.462 159.898 159.269 158.901 156.895C158.53 156.058 158.143 155.215 157.753 154.365C156.784 152.255 155.794 150.099 154.975 147.87C152.555 141.918 150.433 135.779 148.276 129.541C148.174 129.245 148.071 128.948 147.968 128.651C145.703 122.1 143.381 115.44 140.612 108.742C137.84 102.201 134.752 95.5186 130.856 89.3317C130.416 88.6682 130.008 87.9727 129.597 87.2735C129.544 87.1824 129.49 87.0912 129.437 87.0001C128.969 86.2049 128.489 85.4029 127.932 84.6035L124.508 80.0244L124.503 80.0178L124.498 80.0111C123.373 78.3985 122.247 77.1071 121.103 75.7956L117.525 71.7183L113.459 67.8023L113.451 67.7953L113.451 67.7952C112.142 66.4815 110.865 65.2022 109.273 64.0846L109.263 64.0774L109.253 64.0697L104.844 60.6305C103.807 59.8216 102.696 59.1015 101.601 58.3909C101.163 58.1075 100.729 57.8256 100.302 57.5402L100.297 57.5369C94.1278 53.3031 87.6272 50.0418 81.1074 47.0991C74.5094 44.1579 67.9094 41.6242 61.4387 39.1469L61.109 39.0206C54.7579 36.5892 48.5316 34.2055 42.5798 31.5436C41.0186 30.8841 39.5414 30.1843 38.093 29.4886C37.8902 29.3912 37.688 29.2939 37.4862 29.1968C36.2428 28.5984 35.0159 28.0079 33.7586 27.4474L33.7429 27.4404L33.7277 27.4324C31.7786 26.3974 29.8253 25.2796 27.9364 24.1986C27.1282 23.7361 26.3318 23.2803 25.5526 22.8406L25.5425 22.835L25.5327 22.8288L25.5166 22.8187C24.232 22.0134 22.9103 21.1848 21.7457 20.1887C20.4669 19.387 19.1281 18.5475 18.1105 17.5314C16.9916 16.5708 15.8709 15.7675 14.7307 14.9506C13.946 14.3884 13.1444 13.6613 12.3691 12.9581C11.994 12.6178 11.6251 12.2832 11.2671 11.9754L11.2622 11.9712C7.53848 8.6844 4.35838 5.13078 1.47997 1.56105L1.47996 15.9743C2.43341 16.9191 3.39206 17.7588 4.46742 18.7007C4.61011 18.8257 4.75484 18.9524 4.90189 19.0815L4.9144 19.0925L4.92615 19.1043C6.72937 20.9129 9.13637 22.6041 11.5649 24.3103C11.943 24.5759 12.3215 24.8419 12.6984 25.1087L12.7197 25.1238L12.7393 25.141C13.9992 26.2468 15.4218 27.0415 16.8981 27.8642C17.6476 28.2818 18.3533 28.7398 19.0429 29.1874L19.0495 29.1917C19.7456 29.6435 20.4256 30.0846 21.1433 30.4845C24.0845 32.1234 27.0095 33.7531 30.0948 35.219C33.201 36.6948 36.2796 38.157 39.516 39.2931L39.5285 39.2975L39.5407 39.3025C45.6028 41.797 51.8147 43.9574 58.0489 46.1255C58.3475 46.2294 58.6461 46.3332 58.9448 46.4372C65.4738 48.7087 72.0191 51.0063 78.4036 53.7154C84.786 56.3419 91.0194 59.3025 96.9309 63.0907L96.9391 63.096C97.6643 63.581 98.3907 64.0263 99.1267 64.4774L99.1308 64.4799C99.863 64.9287 100.605 65.3834 101.348 65.8801L101.36 65.8888L101.373 65.8981L105.442 69.0004C106.582 69.7641 107.54 70.6317 108.493 71.4941C108.794 71.7664 109.094 72.0382 109.399 72.306L215.671 210.322ZM215.671 210.322C210.714 208.35 205.556 206.03 200.249 203.257C190.662 198.204 181.077 191.197 172.629 181.909L172.626 181.906C168.411 177.353 164.675 172.142 161.092 166.589C160.816 166.118 160.535 165.643 160.253 165.164C158.862 162.81 157.427 160.379 156.215 157.948C154.749 155.006 153.284 151.905 151.984 148.807L151.984 148.806L151.979 148.796C149.242 142.658 146.821 136.319 144.379 129.922L144.295 129.701C141.826 123.234 139.332 116.712 136.468 110.31L136.465 110.305C133.524 103.912 130.408 97.6591 126.466 91.8923C126.21 91.5075 125.961 91.115 125.711 90.7206C125.035 89.6547 124.351 88.5753 123.5 87.598L120.41 83.5198C120.41 83.5195 120.41 83.5192 120.41 83.5188C119.415 82.1891 118.258 80.8627 116.939 79.5395C116.938 79.5383 116.936 79.537 116.935 79.5357L113.187 75.6128L113.172 75.5964L113.154 75.5814L109.4 72.307L215.671 210.322Z" stroke="white" stroke-opacity="0.015"/>
</svg>
