<svg width="459" height="482" viewBox="0 0 459 482" fill="none" xmlns="http://www.w3.org/2000/svg">
<mask id="path-1-inside-1" fill="white">
<path d="M458.303 481.018C456.67 477.906 454.874 474.467 453.078 470.7C448.832 461.201 444.914 449.082 439.852 435.489C437.403 428.611 434.301 421.405 430.545 414.199C429.566 412.398 428.586 410.596 427.443 408.795C426.3 406.993 425.157 405.192 424.014 403.39C421.402 399.951 418.789 396.184 415.687 393.073C409.646 386.358 402.461 380.135 394.134 375.058C385.807 369.981 376.663 365.723 367.03 362.12C357.397 358.353 347.6 354.914 337.803 350.656C328.006 346.398 318.536 341.157 310.209 334.279L308.576 332.969L307.107 331.495L304.004 328.547L302.535 327.073C302.208 326.745 301.719 326.09 301.229 325.599L298.453 322.487C296.494 320.522 295.024 318.229 293.228 315.937C291.432 313.808 290.126 311.351 288.656 308.894C282.778 299.232 278.533 288.587 274.614 277.614C270.696 266.642 266.94 255.178 261.715 244.205C260.572 241.421 258.94 238.8 257.47 236.016C256.001 233.396 254.205 230.776 252.735 228.155C250.939 225.535 248.98 223.078 247.184 220.622L241.142 213.907C232.489 205.064 222.039 198.022 211.262 192.617C200.323 187.213 189.056 183.282 178.117 179.024C167.177 174.93 156.727 170.508 147.42 164.449C145.135 162.975 142.685 161.501 140.726 159.863C138.603 158.225 136.481 156.751 134.521 154.622L131.419 151.674L130.276 150.528L130.113 150.364L128.807 148.89L126.194 145.942L124.888 144.468L123.745 142.831C117.214 134.478 112.316 124.98 108.234 115.317C104.152 105.655 101.049 95.6647 97.4572 85.8385C93.8651 76.0122 89.7831 66.5135 84.7215 57.8337C83.4153 55.7046 81.9458 53.5756 80.6395 51.4466C79.17 49.3176 77.5373 47.3523 76.0677 45.3871C75.2514 44.2407 74.5982 43.5856 73.7818 42.603C72.9654 41.7841 72.3123 40.9653 71.4959 39.9826L70.353 38.6725L69.8632 38.0174L69.5366 37.6898C69.5366 37.6898 69.0468 37.1985 69.2101 37.3623L69.0468 37.1985C68.2304 36.3797 67.2507 35.5608 66.4343 34.742C63.0054 31.4665 59.4133 28.6824 55.8212 25.8983C54.0251 24.5882 52.0658 23.4418 50.2697 22.1316C48.4737 20.8214 46.5143 20.0026 44.7183 18.8562C37.2075 14.7619 29.86 11.4865 23.0023 8.86617C14.675 5.59075 7.16421 2.97041 0.469788 0.350078L0.469787 14.2706C6.18454 16.3996 12.2258 18.3649 18.4304 20.8214C25.1248 23.278 31.9825 26.2259 38.8402 29.8288C40.473 30.8115 42.2691 31.6303 43.9019 32.7767C45.5347 33.9231 47.1674 34.9057 48.9635 36.0521C52.2291 38.5087 55.4947 40.8015 58.597 43.7494C59.4133 44.4045 60.2297 45.2233 60.8828 45.8784L61.0461 46.0422C61.2094 46.2059 61.0461 46.0422 61.0461 46.0422L61.2094 46.2059L61.8625 46.861L63.0055 48.1712C63.8219 48.99 64.6382 49.8089 65.2914 50.6277C66.1078 51.4466 66.9241 52.2655 67.5773 53.0843C68.8835 54.722 70.1897 56.5235 71.4959 58.1612C72.8022 59.9627 73.9451 61.9279 75.2514 63.8932C79.9864 71.7542 84.0684 80.434 87.6605 89.9328C91.4159 99.4315 94.6815 109.422 99.09 119.575C103.499 129.729 109.05 139.883 116.398 149.054L117.704 150.856L119.173 152.493L122.112 155.769L123.582 157.406L123.745 157.57L124.072 157.898L124.398 158.225L125.215 158.88L128.317 161.664C130.276 163.63 132.889 165.431 135.338 167.233C137.787 169.198 140.399 170.672 142.849 172.31C153.135 178.533 164.238 183.118 175.341 187.049C186.444 190.979 197.547 194.746 207.997 199.659C218.447 204.572 228.243 210.959 236.407 218.984L242.449 225.371C244.081 227.664 245.877 229.793 247.673 232.086C249.143 234.542 250.939 236.835 252.408 239.456C253.715 242.076 255.347 244.532 256.49 247.153C261.715 257.634 265.471 268.771 269.716 279.743C273.798 290.716 278.533 301.852 284.738 311.679C286.37 314.135 287.84 316.592 289.799 318.884C291.595 321.177 293.228 323.634 295.351 325.599L298.29 328.711C298.78 329.202 299.106 329.693 299.923 330.348L301.555 331.822L304.658 334.606L306.29 336.08L308.086 337.391C317.23 344.597 327.027 349.837 337.15 353.931C347.11 358.189 357.233 361.301 366.703 364.904C376.337 368.507 385.317 372.274 393.481 377.187C401.808 381.936 408.829 387.996 414.871 394.383C417.973 397.658 420.585 401.097 423.198 404.373C424.341 406.174 425.484 407.812 426.627 409.614C427.77 411.415 428.749 413.217 429.729 414.854C433.648 421.896 436.75 428.939 439.362 435.817C444.587 449.41 448.669 461.365 453.241 470.864C455.037 474.631 456.833 478.07 458.466 481.018L458.303 481.018Z"/>
</mask>
<path d="M458.303 481.018C456.67 477.906 454.874 474.467 453.078 470.7C448.832 461.201 444.914 449.082 439.852 435.489C437.403 428.611 434.301 421.405 430.545 414.199C429.566 412.398 428.586 410.596 427.443 408.795C426.3 406.993 425.157 405.192 424.014 403.39C421.402 399.951 418.789 396.184 415.687 393.073C409.646 386.358 402.461 380.135 394.134 375.058C385.807 369.981 376.663 365.723 367.03 362.12C357.397 358.353 347.6 354.914 337.803 350.656C328.006 346.398 318.536 341.157 310.209 334.279L308.576 332.969L307.107 331.495L304.004 328.547L302.535 327.073C302.208 326.745 301.719 326.09 301.229 325.599L298.453 322.487C296.494 320.522 295.024 318.229 293.228 315.937C291.432 313.808 290.126 311.351 288.656 308.894C282.778 299.232 278.533 288.587 274.614 277.614C270.696 266.642 266.94 255.178 261.715 244.205C260.572 241.421 258.94 238.8 257.47 236.016C256.001 233.396 254.205 230.776 252.735 228.155C250.939 225.535 248.98 223.078 247.184 220.622L241.142 213.907C232.489 205.064 222.039 198.022 211.262 192.617C200.323 187.213 189.056 183.282 178.117 179.024C167.177 174.93 156.727 170.508 147.42 164.449C145.135 162.975 142.685 161.501 140.726 159.863C138.603 158.225 136.481 156.751 134.521 154.622L131.419 151.674L130.276 150.528L130.113 150.364L128.807 148.89L126.194 145.942L124.888 144.468L123.745 142.831C117.214 134.478 112.316 124.98 108.234 115.317C104.152 105.655 101.049 95.6647 97.4572 85.8385C93.8651 76.0122 89.7831 66.5135 84.7215 57.8337C83.4153 55.7046 81.9458 53.5756 80.6395 51.4466C79.17 49.3176 77.5373 47.3523 76.0677 45.3871C75.2514 44.2407 74.5982 43.5856 73.7818 42.603C72.9654 41.7841 72.3123 40.9653 71.4959 39.9826L70.353 38.6725L69.8632 38.0174L69.5366 37.6898C69.5366 37.6898 69.0468 37.1985 69.2101 37.3623L69.0468 37.1985C68.2304 36.3797 67.2507 35.5608 66.4343 34.742C63.0054 31.4665 59.4133 28.6824 55.8212 25.8983C54.0251 24.5882 52.0658 23.4418 50.2697 22.1316C48.4737 20.8214 46.5143 20.0026 44.7183 18.8562C37.2075 14.7619 29.86 11.4865 23.0023 8.86617C14.675 5.59075 7.16421 2.97041 0.469788 0.350078L0.469787 14.2706C6.18454 16.3996 12.2258 18.3649 18.4304 20.8214C25.1248 23.278 31.9825 26.2259 38.8402 29.8288C40.473 30.8115 42.2691 31.6303 43.9019 32.7767C45.5347 33.9231 47.1674 34.9057 48.9635 36.0521C52.2291 38.5087 55.4947 40.8015 58.597 43.7494C59.4133 44.4045 60.2297 45.2233 60.8828 45.8784L61.0461 46.0422C61.2094 46.2059 61.0461 46.0422 61.0461 46.0422L61.2094 46.2059L61.8625 46.861L63.0055 48.1712C63.8219 48.99 64.6382 49.8089 65.2914 50.6277C66.1078 51.4466 66.9241 52.2655 67.5773 53.0843C68.8835 54.722 70.1897 56.5235 71.4959 58.1612C72.8022 59.9627 73.9451 61.9279 75.2514 63.8932C79.9864 71.7542 84.0684 80.434 87.6605 89.9328C91.4159 99.4315 94.6815 109.422 99.09 119.575C103.499 129.729 109.05 139.883 116.398 149.054L117.704 150.856L119.173 152.493L122.112 155.769L123.582 157.406L123.745 157.57L124.072 157.898L124.398 158.225L125.215 158.88L128.317 161.664C130.276 163.63 132.889 165.431 135.338 167.233C137.787 169.198 140.399 170.672 142.849 172.31C153.135 178.533 164.238 183.118 175.341 187.049C186.444 190.979 197.547 194.746 207.997 199.659C218.447 204.572 228.243 210.959 236.407 218.984L242.449 225.371C244.081 227.664 245.877 229.793 247.673 232.086C249.143 234.542 250.939 236.835 252.408 239.456C253.715 242.076 255.347 244.532 256.49 247.153C261.715 257.634 265.471 268.771 269.716 279.743C273.798 290.716 278.533 301.852 284.738 311.679C286.37 314.135 287.84 316.592 289.799 318.884C291.595 321.177 293.228 323.634 295.351 325.599L298.29 328.711C298.78 329.202 299.106 329.693 299.923 330.348L301.555 331.822L304.658 334.606L306.29 336.08L308.086 337.391C317.23 344.597 327.027 349.837 337.15 353.931C347.11 358.189 357.233 361.301 366.703 364.904C376.337 368.507 385.317 372.274 393.481 377.187C401.808 381.936 408.829 387.996 414.871 394.383C417.973 397.658 420.585 401.097 423.198 404.373C424.341 406.174 425.484 407.812 426.627 409.614C427.77 411.415 428.749 413.217 429.729 414.854C433.648 421.896 436.75 428.939 439.362 435.817C444.587 449.41 448.669 461.365 453.241 470.864C455.037 474.631 456.833 478.07 458.466 481.018L458.303 481.018Z" stroke="white" stroke-opacity="0.015" stroke-width="2" mask="url(#path-1-inside-1)"/>
</svg>
