<svg width="477" height="485" viewBox="0 0 477 485" fill="none" xmlns="http://www.w3.org/2000/svg">
<mask id="path-1-inside-1" fill="white">
<path d="M476.346 483.778C475.53 482.632 474.714 481.485 473.734 480.339C472.265 478.374 470.958 476.081 469.489 473.788C468.019 471.495 466.876 468.875 465.407 466.255C464.101 463.634 462.794 460.686 461.488 457.739C459.039 451.679 456.426 444.964 453.977 437.922C451.365 430.716 448.752 423.183 445.487 415.158C442.058 407.297 437.976 399.272 432.425 391.575C430.955 389.61 429.649 387.645 428.016 385.843C426.383 384.042 424.75 382.24 423.281 380.439C419.689 377 416.097 373.397 412.015 370.449C404.014 364.225 394.544 359.148 384.747 354.89C374.787 350.632 364.501 347.029 354.051 342.935C343.764 338.841 333.314 333.928 324.171 327.377C321.885 325.575 319.762 323.938 317.476 322.136L314.211 319.188L312.578 317.714L311.762 316.896C311.598 316.732 311.435 316.568 311.435 316.568L311.109 316.24C309.149 314.111 307.19 311.982 305.394 309.69C303.761 307.397 301.802 305.104 300.169 302.648C293.638 292.821 288.903 281.849 284.821 270.385C280.576 258.921 276.82 247.129 271.595 235.501C270.942 234.028 270.289 232.554 269.636 231.243L267.35 226.985C265.88 224.201 264.084 221.581 262.452 218.797C261.635 217.487 260.656 216.176 259.676 214.866L256.737 210.936C255.757 209.626 254.614 208.643 253.635 207.333L250.369 203.73C241.389 194.559 230.449 187.189 219.02 181.785C207.59 176.216 195.671 172.286 184.404 167.864C173.138 163.442 162.362 158.529 152.892 151.978C150.443 150.341 148.483 148.539 146.197 146.901C144.075 145.1 141.789 142.971 139.666 140.842L139.34 140.514C139.176 140.351 139.503 140.678 139.34 140.514L139.176 140.351L138.523 139.532L137.054 137.894L134.278 134.782C132.482 132.653 130.849 130.361 129.216 128.068C122.848 118.897 118.44 108.743 114.521 98.4252C110.603 88.1077 107.337 77.4625 103.092 67.3087C99.0098 57.155 93.9482 47.4925 87.5803 38.8126C85.9475 36.6836 84.3147 34.3908 82.6819 32.5893C81.8656 31.6067 81.0492 30.7878 80.2328 29.8052L79.0898 28.495L78.7633 28.1675L78.6 28.0037C78.7633 28.1675 78.2734 27.6762 78.2734 27.6762L77.6203 27.0211C75.661 25.2196 73.8649 23.5819 72.0688 21.7804C70.1095 20.1427 68.1502 18.6688 66.1908 17.1948C58.1902 11.2991 49.863 6.87728 41.8623 3.27432C39.7397 2.29169 37.6171 1.47284 35.4945 0.490215L0.389587 0.490214C4.9614 2.29169 9.85974 4.09317 14.9214 5.89465C22.1056 8.51499 29.6165 10.9716 37.1273 14.247C44.6381 17.5224 52.3122 21.4529 59.3332 26.5298C61.1292 27.84 62.9253 29.1501 64.558 30.6241C66.1908 32.098 67.9869 33.5719 69.6197 35.2096L70.2728 35.701L70.4361 35.8647L70.7626 36.1923L72.0688 37.5024C72.8853 38.3213 73.7016 39.3039 74.518 40.2865C76.3141 42.088 77.6203 43.8895 78.9266 45.691C84.6413 53.0607 89.3764 61.9043 93.4583 71.5668C97.5403 81.2293 101.132 91.5468 105.214 102.192C109.46 112.837 114.521 123.646 121.542 133.636C123.502 136.093 125.298 138.549 127.257 140.842L130.359 144.281L131.992 145.919L132.808 146.738L132.972 146.901L133.298 147.229L133.788 147.556C136.074 149.522 138.033 151.487 140.483 153.452C143.095 155.417 145.544 157.383 148.157 159.184C158.606 166.226 170.199 171.139 181.792 175.398C193.385 179.656 204.978 183.422 216.081 188.499C227.02 193.576 237.307 200.127 245.797 208.479L248.899 211.755C249.879 212.901 251.022 214.047 252.002 215.194L254.778 218.633C255.594 219.779 256.574 220.926 257.39 222.236C259.023 224.856 260.819 227.149 262.125 229.933L264.411 233.864C265.064 235.174 265.717 236.648 266.37 237.958C271.595 248.931 275.514 260.558 280.086 272.186C284.494 283.65 289.556 295.114 296.577 305.268C298.21 307.888 300.332 310.181 302.128 312.638C304.088 314.93 306.21 317.223 308.333 319.352L308.659 319.843C308.986 320.171 308.986 320.171 309.149 320.335L309.966 321.154L311.598 322.628L314.864 325.575C317.15 327.541 319.599 329.178 322.048 331.144C331.845 338.022 342.621 342.771 353.071 346.702C363.684 350.632 374.134 354.072 383.931 358.002C393.728 361.933 402.871 366.846 410.872 372.741C414.954 375.526 418.546 378.965 421.975 382.24C423.608 384.042 425.24 385.843 426.873 387.481C428.343 389.282 429.812 391.084 431.118 392.885C436.507 400.255 440.752 408.28 444.344 415.977C447.773 423.674 450.548 431.371 453.161 438.414C455.773 445.62 458.386 452.17 460.998 458.23C462.468 461.178 463.774 464.126 465.08 466.746C466.55 469.366 467.856 471.987 469.325 474.279C470.795 476.572 472.101 478.865 473.571 480.666C474.55 481.977 475.53 483.287 476.51 484.433L476.51 483.778L476.346 483.778Z"/>
</mask>
<path d="M476.346 483.778C475.53 482.632 474.714 481.485 473.734 480.339C472.265 478.374 470.958 476.081 469.489 473.788C468.019 471.495 466.876 468.875 465.407 466.255C464.101 463.634 462.794 460.686 461.488 457.739C459.039 451.679 456.426 444.964 453.977 437.922C451.365 430.716 448.752 423.183 445.487 415.158C442.058 407.297 437.976 399.272 432.425 391.575C430.955 389.61 429.649 387.645 428.016 385.843C426.383 384.042 424.75 382.24 423.281 380.439C419.689 377 416.097 373.397 412.015 370.449C404.014 364.225 394.544 359.148 384.747 354.89C374.787 350.632 364.501 347.029 354.051 342.935C343.764 338.841 333.314 333.928 324.171 327.377C321.885 325.575 319.762 323.938 317.476 322.136L314.211 319.188L312.578 317.714L311.762 316.896C311.598 316.732 311.435 316.568 311.435 316.568L311.109 316.24C309.149 314.111 307.19 311.982 305.394 309.69C303.761 307.397 301.802 305.104 300.169 302.648C293.638 292.821 288.903 281.849 284.821 270.385C280.576 258.921 276.82 247.129 271.595 235.501C270.942 234.028 270.289 232.554 269.636 231.243L267.35 226.985C265.88 224.201 264.084 221.581 262.452 218.797C261.635 217.487 260.656 216.176 259.676 214.866L256.737 210.936C255.757 209.626 254.614 208.643 253.635 207.333L250.369 203.73C241.389 194.559 230.449 187.189 219.02 181.785C207.59 176.216 195.671 172.286 184.404 167.864C173.138 163.442 162.362 158.529 152.892 151.978C150.443 150.341 148.483 148.539 146.197 146.901C144.075 145.1 141.789 142.971 139.666 140.842L139.34 140.514C139.176 140.351 139.503 140.678 139.34 140.514L139.176 140.351L138.523 139.532L137.054 137.894L134.278 134.782C132.482 132.653 130.849 130.361 129.216 128.068C122.848 118.897 118.44 108.743 114.521 98.4252C110.603 88.1077 107.337 77.4625 103.092 67.3087C99.0098 57.155 93.9482 47.4925 87.5803 38.8126C85.9475 36.6836 84.3147 34.3908 82.6819 32.5893C81.8656 31.6067 81.0492 30.7878 80.2328 29.8052L79.0898 28.495L78.7633 28.1675L78.6 28.0037C78.7633 28.1675 78.2734 27.6762 78.2734 27.6762L77.6203 27.0211C75.661 25.2196 73.8649 23.5819 72.0688 21.7804C70.1095 20.1427 68.1502 18.6688 66.1908 17.1948C58.1902 11.2991 49.863 6.87728 41.8623 3.27432C39.7397 2.29169 37.6171 1.47284 35.4945 0.490215L0.389587 0.490214C4.9614 2.29169 9.85974 4.09317 14.9214 5.89465C22.1056 8.51499 29.6165 10.9716 37.1273 14.247C44.6381 17.5224 52.3122 21.4529 59.3332 26.5298C61.1292 27.84 62.9253 29.1501 64.558 30.6241C66.1908 32.098 67.9869 33.5719 69.6197 35.2096L70.2728 35.701L70.4361 35.8647L70.7626 36.1923L72.0688 37.5024C72.8853 38.3213 73.7016 39.3039 74.518 40.2865C76.3141 42.088 77.6203 43.8895 78.9266 45.691C84.6413 53.0607 89.3764 61.9043 93.4583 71.5668C97.5403 81.2293 101.132 91.5468 105.214 102.192C109.46 112.837 114.521 123.646 121.542 133.636C123.502 136.093 125.298 138.549 127.257 140.842L130.359 144.281L131.992 145.919L132.808 146.738L132.972 146.901L133.298 147.229L133.788 147.556C136.074 149.522 138.033 151.487 140.483 153.452C143.095 155.417 145.544 157.383 148.157 159.184C158.606 166.226 170.199 171.139 181.792 175.398C193.385 179.656 204.978 183.422 216.081 188.499C227.02 193.576 237.307 200.127 245.797 208.479L248.899 211.755C249.879 212.901 251.022 214.047 252.002 215.194L254.778 218.633C255.594 219.779 256.574 220.926 257.39 222.236C259.023 224.856 260.819 227.149 262.125 229.933L264.411 233.864C265.064 235.174 265.717 236.648 266.37 237.958C271.595 248.931 275.514 260.558 280.086 272.186C284.494 283.65 289.556 295.114 296.577 305.268C298.21 307.888 300.332 310.181 302.128 312.638C304.088 314.93 306.21 317.223 308.333 319.352L308.659 319.843C308.986 320.171 308.986 320.171 309.149 320.335L309.966 321.154L311.598 322.628L314.864 325.575C317.15 327.541 319.599 329.178 322.048 331.144C331.845 338.022 342.621 342.771 353.071 346.702C363.684 350.632 374.134 354.072 383.931 358.002C393.728 361.933 402.871 366.846 410.872 372.741C414.954 375.526 418.546 378.965 421.975 382.24C423.608 384.042 425.24 385.843 426.873 387.481C428.343 389.282 429.812 391.084 431.118 392.885C436.507 400.255 440.752 408.28 444.344 415.977C447.773 423.674 450.548 431.371 453.161 438.414C455.773 445.62 458.386 452.17 460.998 458.23C462.468 461.178 463.774 464.126 465.08 466.746C466.55 469.366 467.856 471.987 469.325 474.279C470.795 476.572 472.101 478.865 473.571 480.666C474.55 481.977 475.53 483.287 476.51 484.433L476.51 483.778L476.346 483.778Z" stroke="white" stroke-opacity="0.015" stroke-width="2" mask="url(#path-1-inside-1)"/>
</svg>
