<svg width="327" height="312" viewBox="0 0 327 312" fill="none" xmlns="http://www.w3.org/2000/svg">
<path d="M304.61 297.683C305.251 297.991 305.884 298.296 306.508 298.608C306.161 298.443 305.813 298.278 305.463 298.113C304.55 297.682 303.633 297.248 302.733 296.796L302.725 296.792L302.717 296.789C295.464 293.471 287.121 290.548 278.179 287.415C275.614 286.517 273 285.601 270.348 284.653L270.346 284.653C264.308 282.525 258.123 280.239 251.944 277.303L251.934 277.298L251.923 277.294C249.621 276.322 247.325 275.079 245.004 273.823C244.226 273.402 243.445 272.98 242.661 272.566C241.765 272.067 240.883 271.515 239.952 270.932C239.366 270.564 238.76 270.185 238.118 269.799C237.55 269.42 236.956 269.062 236.368 268.709C236.186 268.6 236.004 268.491 235.824 268.381C235.052 267.913 234.297 267.434 233.586 266.879L233.578 266.873L233.569 266.866C221.708 258.392 210.821 246.657 203.186 232.48L203.186 232.48L203.18 232.471C197.529 222.523 193.439 211.691 189.321 200.788C187.624 196.295 185.922 191.789 184.105 187.328L184.104 187.326C180.998 179.783 177.558 172.223 173.294 165.15C169.025 158.068 164.101 151.979 158.039 145.735L158.027 145.722L158.013 145.71L153.605 141.779C152.126 140.46 150.482 139.141 148.836 137.985C146.139 135.851 143.077 133.962 140.099 132.125C139.622 131.831 139.148 131.538 138.677 131.246L138.668 131.24L138.658 131.235C131.609 127.288 124.074 124.003 116.387 121.05L116.383 121.049C112.14 119.464 107.858 117.97 103.576 116.477C92.3169 112.549 81.0635 108.623 70.5639 103.062C69.9441 102.723 69.3355 102.409 68.7328 102.098C67.5482 101.486 66.3864 100.886 65.2073 100.133C64.3078 99.5588 63.4494 99.0258 62.5939 98.4946L62.5896 98.492C61.7321 97.9595 60.8774 97.4288 59.9824 96.8576L59.9682 96.8485L59.9534 96.8404C59.0889 96.3674 58.2556 95.7716 57.4235 95.1406C57.1745 94.9517 56.924 94.7584 56.6729 94.5646C56.1 94.1226 55.5235 93.6778 54.9522 93.2761C54.3753 92.8137 53.7743 92.3682 53.1903 91.9353C52.9435 91.7524 52.6999 91.5718 52.4624 91.3931C51.6492 90.7814 50.8975 90.1849 50.2708 89.5563L50.2604 89.5459L50.2494 89.5361C49.5139 88.8804 48.8193 88.2656 48.1255 87.6516C47.435 87.0404 46.7452 86.43 46.0153 85.7793L45.5357 85.2983L45.1816 85.6513L45.5357 85.2983L45.3724 85.1345L45.0459 84.807L44.7328 84.4929L43.7657 83.3612L43.7597 83.3542L43.7535 83.3475L41.7942 81.2184L39.847 79.1032L39.8348 79.0894L38.8818 77.9737L38.0781 76.8452L38.0702 76.8341L38.0617 76.8234C36.7588 75.1899 35.6185 73.7194 34.4762 72.2463L34.4738 72.2432L34.4638 72.2303L34.4529 72.218C33.83 71.5152 33.3183 70.7278 32.809 69.9105C32.742 69.803 32.6749 69.6947 32.6075 69.5859C32.1751 68.888 31.7317 68.1723 31.2268 67.5179C30.8481 66.8864 30.4441 66.2763 30.0511 65.6826C29.9329 65.5041 29.8157 65.327 29.7005 65.1514C29.1922 64.3765 28.716 63.619 28.3216 62.8278L28.3148 62.8142L28.3072 62.801C26.509 59.6856 24.726 56.5958 23.2687 53.3475L23.2635 53.3359L23.2577 53.3246C20.6561 48.2361 18.6808 43.2567 16.7372 38.357C16.2516 37.1329 15.768 35.9138 15.2771 34.6992C14.288 32.1125 13.3361 29.5767 12.4067 27.101C9.0499 18.1585 5.98703 9.99926 2.52359 3.05145L1.41452 0.826646L13.9893 0.826646C16.9217 7.84729 19.5829 15.4174 22.3951 23.4175C23.283 25.9434 24.186 28.5121 25.1173 31.12L25.1194 31.1254L25.3106 31.6421C27.3763 37.222 29.613 43.2634 32.3126 48.9999C33.4675 51.974 35.1109 54.9411 36.7341 57.8716L36.7384 57.8794C37.1567 58.7172 37.6147 59.4681 38.0635 60.1843C38.1376 60.3024 38.2112 60.4194 38.2843 60.5355C38.6595 61.1315 39.0215 61.7065 39.3561 62.3105L39.3623 62.3218L39.3691 62.3327C39.5741 62.6616 39.7848 63.0227 40.0055 63.4007C40.6225 64.4578 41.317 65.6478 42.1799 66.6407C42.5447 67.128 42.9205 67.602 43.2974 68.0773C43.9646 68.919 44.6354 69.7651 45.2551 70.6974L45.2698 70.7196L45.2869 70.7401L46.1033 71.7227L46.9197 72.7054L46.9272 72.7145L46.9352 72.7232L48.7312 74.6884L50.5193 76.6449L51.2911 77.5739L51.4285 77.8495L51.4647 77.9221L51.522 77.9796L51.6852 78.1433L52.1751 78.6346L52.1798 78.6394C53.4833 79.9468 54.7981 81.2655 56.2784 82.5853C57.5328 83.7037 58.6718 84.5878 59.8765 85.5228C60.098 85.6947 60.3217 85.8684 60.5488 86.0455C60.9935 86.3925 61.4196 86.7503 61.8467 87.109C62.773 87.8871 63.7047 88.6696 64.8438 89.3551C65.6453 89.8375 66.4087 90.3612 67.1862 90.8948L67.1915 90.8984C67.9603 91.426 68.7429 91.9632 69.5686 92.4606C70.3227 92.964 71.1544 93.4223 71.9877 93.8707C72.1131 93.9382 72.2385 94.0055 72.3638 94.0727C73.0809 94.4572 73.7934 94.8394 74.4772 95.2509L74.4835 95.2546C83.8785 100.722 94.441 104.716 105.352 108.841C109.847 110.54 114.401 112.262 118.956 114.118C126.775 117.386 134.421 120.976 141.901 125.379C142.671 125.905 143.439 126.423 144.204 126.939C147.019 128.836 149.791 130.705 152.467 132.878L152.477 132.886L152.488 132.894C154.291 134.209 156.043 135.49 157.472 137.082L157.486 137.098L157.502 137.113L162.387 141.685C167.915 147.722 173.6 155.056 177.819 162.38C182.048 169.884 185.466 177.719 188.398 185.563C190.085 190.075 191.655 194.599 193.21 199.082C197.054 210.163 200.813 220.998 206.057 230.819C213.115 244.81 223.288 256.329 234.77 265.049C236.253 266.206 237.734 267.197 239.199 268.176L239.205 268.18L239.222 268.191L239.24 268.201C239.954 268.599 240.671 269.079 241.409 269.572L241.418 269.578C242.144 270.063 242.889 270.562 243.639 270.98C246.584 272.785 249.534 274.429 252.651 275.91C258.713 279.032 264.772 281.496 270.651 283.789L270.656 283.791C272.163 284.358 273.656 284.916 275.133 285.468C285.193 289.232 294.523 292.723 302.614 296.709C303.287 297.047 303.952 297.367 304.61 297.683Z" stroke="white" stroke-opacity="0.015"/>
</svg>
