<svg width="424" height="448" viewBox="0 0 424 448" fill="none" xmlns="http://www.w3.org/2000/svg">
<mask id="path-1-inside-1" fill="white">
<path d="M423.218 447.018C422.075 443.742 420.769 440.139 419.462 436.209C416.197 427.201 412.441 415.901 406.074 404.11C402.808 398.214 398.889 392.154 393.991 386.259C392.685 384.785 391.379 383.474 390.236 382.001C388.929 380.527 387.46 379.216 385.99 377.906C383.215 375.122 379.786 372.666 376.52 370.045C369.663 365.296 362.152 361.038 353.988 357.271C345.824 353.504 337.17 350.557 328.353 347.117C319.536 343.842 310.556 340.239 302.065 335.49C299.943 334.343 297.82 333.197 295.697 331.723L292.595 329.758L291.126 328.775L289.656 327.629C287.697 325.991 285.737 324.681 283.941 323.043C282.145 321.242 280.186 319.604 278.39 317.802C271.369 310.596 265.491 302.08 260.756 292.745C256.021 283.41 252.429 273.42 248.836 263.267C245.244 253.113 241.652 242.632 236.591 232.478C235.284 230.021 233.978 227.565 232.509 225.108C231.039 222.651 229.57 220.359 227.937 217.902C226.141 215.609 224.508 213.153 222.712 211.024L217.16 204.8L210.793 198.905C208.67 197.103 206.384 195.302 204.098 193.664C201.812 192.026 199.363 190.552 197.077 188.915C194.628 187.441 192.179 186.131 189.73 184.657C179.77 179.416 169.32 175.649 159.197 171.719C149.073 167.952 139.277 164.185 130.296 159.272C125.725 156.816 121.479 154.195 117.561 151.247C115.601 149.773 113.805 148.299 111.846 146.662C109.887 144.86 108.09 143.059 106.131 141.421C104.498 139.62 103.029 137.818 101.396 136.18C99.7633 134.379 98.457 132.25 96.9875 130.448L95.8446 128.975L94.8649 127.501L92.9056 124.389C91.5993 122.424 90.4564 120.295 89.3134 118.166C84.9049 109.65 81.4761 100.806 78.3738 91.9623C75.2715 83.1186 72.3325 74.275 68.7404 65.7589C65.1483 57.2428 60.903 49.3818 56.0046 42.0121C53.3922 38.4092 50.6165 34.6425 48.004 32.0221C47.3509 31.367 46.6978 30.5482 46.0447 29.8931L45.065 28.7467L44.9017 28.5829L44.5751 28.2554L44.2486 27.9278L43.7587 27.4365C42.2892 25.9626 40.8198 24.6524 39.3502 23.3423C33.4722 18.1016 27.1043 13.8435 20.8997 10.2406C13.7155 6.14631 6.69449 3.03467 0.489929 0.578107L0.489929 14.6624C5.22501 16.6277 9.96011 18.7567 14.8585 21.377C20.4099 24.4887 26.1247 28.0916 31.3496 32.6772C32.6559 33.8236 33.9621 35.1338 35.2683 36.2802L36.0847 37.099L37.0644 38.2454C37.7175 38.9005 38.3705 39.7194 39.0237 40.3744C41.9627 43.3223 43.922 46.1064 46.2079 49.2181C50.6164 55.6051 54.6984 62.811 58.1273 70.672C61.7194 78.533 64.6584 87.0491 68.0873 96.0565C71.5161 104.9 75.1082 114.235 80.1699 123.243C81.4761 125.535 82.619 127.828 84.0885 129.957L86.2111 133.233L87.3541 134.87L88.497 136.508C90.1298 138.637 91.5994 140.766 93.5587 142.731L96.3344 145.679L97.6406 147.153L98.2938 147.972L98.6203 148.299L98.7836 148.463L99.1101 148.791C101.069 150.592 103.029 152.23 104.825 154.031C106.784 155.833 109.233 157.471 111.356 159.108C115.928 162.22 120.5 165.168 125.398 167.624C135.195 172.701 145.481 176.304 155.605 179.907C165.728 183.51 176.014 186.949 185.484 191.863C187.77 193.173 190.22 194.319 192.505 195.629C194.791 197.103 197.077 198.413 199.2 199.887C201.322 201.525 203.445 202.999 205.568 204.637L211.446 209.877L216.997 215.937C218.63 217.902 220.263 220.031 221.896 222.16C223.365 224.289 224.835 226.582 226.304 228.875C227.61 231.168 228.917 233.46 230.223 235.917C235.121 245.416 238.877 255.569 242.632 265.723C246.387 275.877 250.306 286.031 255.368 295.693C260.429 305.192 266.797 314.036 274.308 321.405C276.267 323.207 278.227 324.845 280.023 326.646C281.982 328.284 284.105 329.921 286.227 331.395L287.86 332.542L289.493 333.524L292.758 335.653C294.881 337.127 297.167 338.274 299.29 339.42C308.27 344.169 317.413 347.609 326.23 350.72C335.048 353.996 343.865 356.78 351.865 360.219C360.029 363.658 367.54 367.753 374.234 372.338C377.5 374.795 380.765 377.087 383.541 379.872C385.011 381.182 386.48 382.492 387.786 383.802C389.093 385.276 390.399 386.586 391.705 387.896C396.603 393.465 400.685 399.36 403.951 405.092C410.482 416.72 414.401 427.856 417.83 436.7C419.299 440.631 420.605 444.07 421.748 447.345L423.218 447.345L423.218 447.018Z"/>
</mask>
<path d="M423.218 447.018C422.075 443.742 420.769 440.139 419.462 436.209C416.197 427.201 412.441 415.901 406.074 404.11C402.808 398.214 398.889 392.154 393.991 386.259C392.685 384.785 391.379 383.474 390.236 382.001C388.929 380.527 387.46 379.216 385.99 377.906C383.215 375.122 379.786 372.666 376.52 370.045C369.663 365.296 362.152 361.038 353.988 357.271C345.824 353.504 337.17 350.557 328.353 347.117C319.536 343.842 310.556 340.239 302.065 335.49C299.943 334.343 297.82 333.197 295.697 331.723L292.595 329.758L291.126 328.775L289.656 327.629C287.697 325.991 285.737 324.681 283.941 323.043C282.145 321.242 280.186 319.604 278.39 317.802C271.369 310.596 265.491 302.08 260.756 292.745C256.021 283.41 252.429 273.42 248.836 263.267C245.244 253.113 241.652 242.632 236.591 232.478C235.284 230.021 233.978 227.565 232.509 225.108C231.039 222.651 229.57 220.359 227.937 217.902C226.141 215.609 224.508 213.153 222.712 211.024L217.16 204.8L210.793 198.905C208.67 197.103 206.384 195.302 204.098 193.664C201.812 192.026 199.363 190.552 197.077 188.915C194.628 187.441 192.179 186.131 189.73 184.657C179.77 179.416 169.32 175.649 159.197 171.719C149.073 167.952 139.277 164.185 130.296 159.272C125.725 156.816 121.479 154.195 117.561 151.247C115.601 149.773 113.805 148.299 111.846 146.662C109.887 144.86 108.09 143.059 106.131 141.421C104.498 139.62 103.029 137.818 101.396 136.18C99.7633 134.379 98.457 132.25 96.9875 130.448L95.8446 128.975L94.8649 127.501L92.9056 124.389C91.5993 122.424 90.4564 120.295 89.3134 118.166C84.9049 109.65 81.4761 100.806 78.3738 91.9623C75.2715 83.1186 72.3325 74.275 68.7404 65.7589C65.1483 57.2428 60.903 49.3818 56.0046 42.0121C53.3922 38.4092 50.6165 34.6425 48.004 32.0221C47.3509 31.367 46.6978 30.5482 46.0447 29.8931L45.065 28.7467L44.9017 28.5829L44.5751 28.2554L44.2486 27.9278L43.7587 27.4365C42.2892 25.9626 40.8198 24.6524 39.3502 23.3423C33.4722 18.1016 27.1043 13.8435 20.8997 10.2406C13.7155 6.14631 6.69449 3.03467 0.489929 0.578107L0.489929 14.6624C5.22501 16.6277 9.96011 18.7567 14.8585 21.377C20.4099 24.4887 26.1247 28.0916 31.3496 32.6772C32.6559 33.8236 33.9621 35.1338 35.2683 36.2802L36.0847 37.099L37.0644 38.2454C37.7175 38.9005 38.3705 39.7194 39.0237 40.3744C41.9627 43.3223 43.922 46.1064 46.2079 49.2181C50.6164 55.6051 54.6984 62.811 58.1273 70.672C61.7194 78.533 64.6584 87.0491 68.0873 96.0565C71.5161 104.9 75.1082 114.235 80.1699 123.243C81.4761 125.535 82.619 127.828 84.0885 129.957L86.2111 133.233L87.3541 134.87L88.497 136.508C90.1298 138.637 91.5994 140.766 93.5587 142.731L96.3344 145.679L97.6406 147.153L98.2938 147.972L98.6203 148.299L98.7836 148.463L99.1101 148.791C101.069 150.592 103.029 152.23 104.825 154.031C106.784 155.833 109.233 157.471 111.356 159.108C115.928 162.22 120.5 165.168 125.398 167.624C135.195 172.701 145.481 176.304 155.605 179.907C165.728 183.51 176.014 186.949 185.484 191.863C187.77 193.173 190.22 194.319 192.505 195.629C194.791 197.103 197.077 198.413 199.2 199.887C201.322 201.525 203.445 202.999 205.568 204.637L211.446 209.877L216.997 215.937C218.63 217.902 220.263 220.031 221.896 222.16C223.365 224.289 224.835 226.582 226.304 228.875C227.61 231.168 228.917 233.46 230.223 235.917C235.121 245.416 238.877 255.569 242.632 265.723C246.387 275.877 250.306 286.031 255.368 295.693C260.429 305.192 266.797 314.036 274.308 321.405C276.267 323.207 278.227 324.845 280.023 326.646C281.982 328.284 284.105 329.921 286.227 331.395L287.86 332.542L289.493 333.524L292.758 335.653C294.881 337.127 297.167 338.274 299.29 339.42C308.27 344.169 317.413 347.609 326.23 350.72C335.048 353.996 343.865 356.78 351.865 360.219C360.029 363.658 367.54 367.753 374.234 372.338C377.5 374.795 380.765 377.087 383.541 379.872C385.011 381.182 386.48 382.492 387.786 383.802C389.093 385.276 390.399 386.586 391.705 387.896C396.603 393.465 400.685 399.36 403.951 405.092C410.482 416.72 414.401 427.856 417.83 436.7C419.299 440.631 420.605 444.07 421.748 447.345L423.218 447.345L423.218 447.018Z" stroke="white" stroke-opacity="0.015" stroke-width="2" mask="url(#path-1-inside-1)"/>
</svg>
