<svg width="166" height="162" viewBox="0 0 166 162" fill="none" xmlns="http://www.w3.org/2000/svg">
<path d="M3.95901 1.69973L2.50825 0.826653L24.5033 0.826654C24.8751 0.978967 25.2815 1.16415 25.6997 1.3548L25.7063 1.35783C26.1481 1.55925 26.603 1.76666 27.02 1.93423C33.9114 4.9393 41.3505 7.80632 49.0741 10.783C49.7799 11.055 50.4882 11.328 51.1986 11.602C59.6717 14.8708 68.4621 18.7899 76.9223 23.6852C76.9236 23.6859 76.9248 23.6866 76.9261 23.6874L80.1794 25.6453L83.2599 27.5968C84.0193 28.1675 84.8046 28.7152 85.5869 29.2609C85.8177 29.4219 86.0482 29.5826 86.2777 29.7438C87.2957 30.4586 88.3021 31.1857 89.265 31.9905L89.2715 31.996L89.2781 32.0011L92.2105 34.2887C93.1921 35.1092 94.1507 35.9113 94.9463 36.7093L100.323 42.1023L105.048 47.4946L105.058 47.5068L105.07 47.5182C105.447 47.8962 105.793 48.358 106.16 48.8692C106.222 48.9547 106.284 49.0417 106.346 49.1296C106.649 49.5538 106.968 50.0021 107.315 50.421L109.593 53.5207L109.601 53.5327L109.611 53.5442C110.861 55.0493 111.814 56.6442 112.801 58.2986C113.079 58.7644 113.36 59.2349 113.651 59.7094L113.651 59.7095L113.654 59.7144L115.6 62.805L117.222 66.0581L117.222 66.0582L117.227 66.068C121.782 74.7158 125.201 83.5323 128.136 92.1987C128.489 93.2427 128.84 94.2822 129.19 95.3166C131.744 102.877 134.206 110.164 136.795 116.944C138.27 120.89 139.909 124.506 141.54 128.104L141.543 128.111C142.041 129.21 142.615 130.279 143.166 131.304C143.516 131.956 143.857 132.59 144.163 133.204L144.172 133.221L144.181 133.238C144.415 133.628 144.611 134.021 144.816 134.432L144.82 134.44C145.022 134.845 145.233 135.268 145.488 135.694C145.739 136.114 145.989 136.491 146.233 136.857L146.235 136.861C146.481 137.23 146.719 137.589 146.957 137.987C147.344 138.634 147.725 139.245 148.093 139.837C148.675 140.773 149.226 141.659 149.725 142.558L149.734 142.576L149.746 142.593C150.731 144.075 151.715 145.392 152.69 146.696C154.051 148.803 155.606 150.552 157.11 152.244C157.615 152.812 158.115 153.374 158.599 153.941L158.601 153.943C158.811 154.187 159.021 154.427 159.232 154.664C159.051 154.476 158.871 154.286 158.691 154.094L158.686 154.088L158.68 154.082C156.554 151.949 154.293 149.681 152.358 147.094L152.347 147.078L152.335 147.064C151.189 145.75 150.068 144.464 149.109 143.022L146.176 138.61C145.927 138.194 145.679 137.821 145.438 137.458L145.435 137.454C145.189 137.084 144.951 136.725 144.713 136.327L143.978 135.099L143.244 133.871C142.265 132.234 141.292 130.608 140.319 128.819C138.523 125.217 136.736 121.632 135.112 117.722L135.112 117.722L135.107 117.711C132.437 111.717 129.967 105.328 127.457 98.8376C126.749 97.0077 126.039 95.1697 125.32 93.3303L125.318 93.3256C121.888 84.8087 118.285 76.2629 113.53 68.2038C113.529 68.2029 113.529 68.2021 113.528 68.2013L111.735 65.0938L111.727 65.0801L111.718 65.067L109.759 62.1191L109.752 62.1088C108.451 60.1507 107.133 58.1687 105.648 56.3484C105.648 56.3482 105.648 56.348 105.648 56.3478L103.529 53.7318C103.528 53.7312 103.528 53.7307 103.527 53.7302C102.872 52.9088 102.044 51.9107 101.209 51.0729C101.208 51.072 101.207 51.0711 101.206 51.0702L96.1499 45.8352L96.1325 45.8171L96.1133 45.8009L90.9043 41.3925C90.056 40.5456 89.048 39.8717 88.0878 39.2296L88.081 39.225L85.3182 37.1059L85.3145 37.1031C83.332 35.6118 81.3518 34.4531 79.3984 33.3103L79.3972 33.3096L79.3884 33.3044L76.4581 31.5082L76.4445 31.4998L76.4303 31.4923L73.328 29.8546L73.3258 29.8534C65.1303 25.5789 56.6135 22.2942 48.1137 19.3431L48.1137 19.343L48.1055 19.3403C39.6152 16.5563 31.2994 13.7758 23.3126 10.6695L23.3074 10.6675C20.5407 9.62693 17.8635 8.42552 15.1935 7.22737C14.1037 6.73831 13.0151 6.2498 11.9221 5.77299C10.144 4.80017 8.34698 3.81736 6.54662 2.99501C6.12071 2.74126 5.65945 2.53097 5.22755 2.33406L5.21484 2.32827C4.76079 2.12125 4.33849 1.9281 3.95901 1.69973Z" stroke="white" stroke-opacity="0.015"/>
</svg>
