<svg width="309" height="291" viewBox="0 0 309 291" fill="none" xmlns="http://www.w3.org/2000/svg">
<path d="M284.401 278.955C284.222 278.89 284.043 278.824 283.863 278.759C280.778 277.633 277.528 276.511 274.15 275.344C267.663 273.103 260.701 270.699 253.512 267.793C242.594 263.217 230.896 257.346 220.507 248.228L220.503 248.225C210.106 239.263 201.006 227.528 194.668 213.999L194.665 213.993L194.662 213.986C191.245 207.214 188.436 200.152 185.723 193.01C185.153 191.51 184.588 190.007 184.021 188.502C181.894 182.848 179.758 177.172 177.369 171.601C174.42 164.371 170.979 157.633 166.883 151.059L166.877 151.05L163.774 146.301L163.763 146.284L163.751 146.268L160.322 141.846L160.316 141.838L160.309 141.83L158.513 139.701L158.506 139.693L158.499 139.685L156.539 137.556L152.621 133.298L152.604 133.279L152.585 133.262C146.866 128.182 140.957 123.24 134.379 119.446C127.833 115.671 120.951 112.219 113.734 109.586C108.306 107.434 102.754 105.5 97.1949 103.565C95.5533 102.993 93.9111 102.421 92.2713 101.843C85.0698 99.3061 77.9055 96.6517 70.9903 93.3877L70.9824 93.3839L70.9743 93.3805C67.5711 91.9175 64.162 90.1272 60.9034 88.3297C60.0956 87.8434 59.3273 87.3567 58.5536 86.8666L58.5521 86.8657C57.7777 86.3751 56.9979 85.8811 56.1763 85.3866L53.7272 83.9127C53.349 83.6852 53.0049 83.4175 52.6339 83.128L52.6241 83.1203C52.2704 82.8444 51.8913 82.5487 51.4677 82.291C50.7351 81.7202 49.9639 81.1501 49.1987 80.5846L49.1947 80.5817C48.4181 80.0078 47.6479 79.4385 46.9192 78.87L46.9093 78.8622L46.899 78.855C45.702 78.0146 44.7839 77.1829 43.8406 76.3284C43.5218 76.0396 43.2001 75.7482 42.8637 75.4529C42.8623 75.4517 42.8609 75.4505 42.8595 75.4492L40.9088 73.6555L40.9001 73.6475L40.891 73.6399L39.9288 72.8356L39.7816 72.6879L39.455 72.3604L39.1009 72.7134L39.4549 72.3603L39.2917 72.1966L38.8018 71.7053C37.4931 70.3926 36.1991 69.0945 35.0691 67.7991L35.0635 67.7926L35.0576 67.7864C25.317 57.3651 18.9763 45.3052 14.0871 34.1897C10.7926 26.6996 8.09506 19.5198 5.63415 12.9699C4.43939 9.7899 3.30045 6.7584 2.17599 3.91189C1.78348 2.86191 1.38757 1.80298 0.990387 0.826647L13.2786 0.826647C14.3354 3.75414 15.3796 6.80986 16.4548 9.95608C18.6452 16.3658 20.964 23.1511 23.7791 29.9931C28.0352 40.6651 33.6121 51.6945 42.1541 61.4157L42.1645 61.4275L42.1756 61.4387C42.7324 61.9971 43.2515 62.5976 43.7841 63.214L43.7899 63.2207C44.3062 63.8182 44.8354 64.4307 45.406 65.0063L45.7054 65.4567L45.7328 65.4979L45.7677 65.5329L45.931 65.6967L46.2851 65.3437L45.931 65.6967L46.0943 65.8605L46.1103 65.8766L46.1277 65.8911L47.0985 66.7026L49.0333 68.4808L49.0467 68.4942C50.1809 69.6319 51.5075 70.9625 52.8422 71.9665L56.7609 74.9144L58.7202 76.3884L58.7278 76.3941L58.7356 76.3995L60.8583 77.8734L60.8679 77.8801L60.8779 77.8864C62.1766 78.7005 63.6396 79.6788 65.1108 80.6625L65.1323 80.6769L65.1553 80.689C66.3333 81.3109 67.4853 81.9791 68.6508 82.6551C69.0094 82.8631 69.3693 83.0718 69.7316 83.2801C71.2618 84.1601 72.8265 85.0279 74.4781 85.7742C80.8685 89.0603 87.703 91.8098 94.7425 94.5114C96.2874 95.1042 97.8418 95.6946 99.4037 96.2879C104.971 98.4025 110.633 100.553 116.298 102.979L116.298 102.979L116.309 102.984C123.625 105.919 130.783 109.672 137.621 113.917L137.628 113.922C144.431 117.984 150.599 123.352 156.463 129.069L160.526 133.633L160.533 133.641L162.474 135.912L164.249 138.34C164.979 139.489 165.787 140.591 166.566 141.651C167.006 142.251 167.437 142.838 167.839 143.413L171.093 148.472C175.159 155.488 178.574 162.666 181.338 170.006L181.341 170.012C183.57 175.698 185.55 181.407 187.508 187.054C188.056 188.634 188.602 190.208 189.151 191.776C191.662 198.942 194.24 205.961 197.352 212.616C203.258 226.108 211.788 237.625 221.631 246.676C231.325 255.903 242.814 261.99 253.445 266.747C260.3 269.815 267.038 272.344 273.359 274.717C276.83 276.019 280.174 277.275 283.343 278.546L283.35 278.549C283.702 278.684 284.053 278.82 284.401 278.955Z" stroke="white" stroke-opacity="0.015"/>
</svg>
