<svg width="347" height="337" viewBox="0 0 347 337" fill="none" xmlns="http://www.w3.org/2000/svg">
<path d="M74.815 103.175C72.0305 101.525 69.6385 99.5796 67.2586 97.6439C66.5683 97.0825 65.8791 96.5219 65.1816 95.9696C63.7121 94.4956 62.0793 93.0217 60.6098 91.7115L59.4668 90.5651L59.2257 90.3233C59.1312 90.3943 59.0041 90.4699 58.8318 90.5452C58.8111 90.5542 58.7885 90.5619 58.7665 90.5709L58.7862 90.5906L59.1127 90.9181L60.2557 92.0645L60.266 92.0749L60.277 92.0847C61.7462 93.3946 63.3693 94.86 64.8275 96.3226L64.8482 96.3433L64.8712 96.3616C65.5578 96.9053 66.24 97.4602 66.926 98.0182C69.3065 99.9545 71.7322 101.928 74.5455 103.597M74.815 103.175L74.5314 103.587C74.5361 103.59 74.5408 103.594 74.5455 103.597M74.815 103.175L74.5601 103.606C74.5552 103.603 74.5503 103.6 74.5455 103.597M74.815 103.175C86.2587 111.058 100.031 116.255 114.264 121.625C116.886 122.615 119.524 123.61 122.166 124.629C130.656 127.905 139.31 131.672 147.474 136.421C155.638 141.17 163.312 147.066 170.006 153.781C176.537 160.495 182.252 168.52 186.824 176.709C191.396 184.897 194.825 193.577 197.927 202.093L235.631 275.4M74.5455 103.597C86.0411 111.512 99.8751 116.731 114.1 122.099C116.72 123.087 119.352 124.08 121.986 125.096C130.464 128.367 139.091 132.122 147.222 136.853C155.349 141.581 162.987 147.449 169.65 154.132C176.145 160.809 181.834 168.796 186.387 176.952C190.939 185.105 194.357 193.754 197.457 202.264C198.55 205.292 199.608 208.319 200.66 211.329C205.568 225.367 210.351 239.047 217.908 250.827C219.709 254.021 221.86 256.867 223.946 259.627C224.341 260.149 224.733 260.668 225.121 261.186L225.133 261.203L225.147 261.219C225.797 261.952 226.487 262.726 227.177 263.499L227.189 263.513C227.882 264.29 228.574 265.066 229.226 265.801C229.227 265.802 229.228 265.803 229.229 265.804L230.203 266.944L230.215 266.958L230.229 266.972L230.535 267.279L230.665 267.41L230.704 267.449L230.715 267.459L230.717 267.462L230.718 267.463L230.718 267.463L231.208 267.955L231.215 267.961L231.222 267.967L233.507 270.096L235.793 272.225L235.801 272.232L235.808 272.239L236.951 273.221L238.094 274.204L238.113 274.22L238.133 274.234C239.461 275.167 240.789 276.209 242.039 277.189C242.313 277.404 242.582 277.615 242.848 277.822L242.857 277.83L242.868 277.837C243.691 278.415 244.514 278.951 245.328 279.482L245.331 279.484C246.149 280.017 246.958 280.545 247.766 281.112L247.776 281.119L250.225 282.757L250.24 282.767L250.257 282.776L252.864 284.247C252.866 284.248 252.867 284.249 252.868 284.25C263.5 290.416 274.541 294.578 285.001 298.52C287.916 299.619 290.785 300.7 293.588 301.804L293.593 301.806C306.477 306.713 318.024 312.099 327.116 318.613L327.121 318.617C327.83 319.11 328.524 319.609 329.205 320.111C328.705 319.771 328.198 319.434 327.683 319.1C318.326 312.844 306.69 307.751 293.777 303.161C290.832 302.076 287.807 301.019 284.726 299.942C274.278 296.29 263.189 292.415 252.379 286.49C252.378 286.489 252.377 286.489 252.376 286.488L249.779 285.023L247.176 283.391L247.164 283.383L247.15 283.376C245.379 282.407 243.603 281.274 241.986 280.139C241.163 279.48 240.301 278.862 239.452 278.254L239.446 278.25C238.587 277.634 237.741 277.028 236.937 276.383L236.931 276.378L236.925 276.373L235.631 275.4M58.977 90.0738L58.4871 89.5825L56.5278 87.2897M58.977 90.0738L235.318 275.79L234.175 274.807L231.889 272.678L229.603 270.549L228.95 270.058L228.297 269.403L227.154 268.257C226.419 267.438 225.684 266.66 224.95 265.882C224.215 265.104 223.48 264.326 222.745 263.507C222.384 263.06 222.023 262.615 221.662 262.171C219.255 259.207 216.896 256.302 214.908 253.026C206.793 241.016 201.604 227.267 196.428 213.551C195.251 210.432 194.075 207.316 192.865 204.222C189.6 195.87 186.171 187.518 181.599 179.82C177.027 171.959 171.802 165.081 165.435 158.694C158.903 152.471 151.719 147.23 144.045 142.972C136.208 138.714 128.044 135.438 119.553 132.327M58.977 90.0738L58.7115 90.3384L58.6229 90.4268L58.1331 89.9355L58.1195 89.9219L58.1071 89.9073L56.1599 87.6283L56.5278 87.2897M58.977 90.0738L235.631 275.4M56.5278 87.2897L54.5685 85.1607L53.5888 84.0143L52.7724 82.8679C51.6295 81.2302 50.4866 79.7564 49.3437 78.2825C48.2006 76.6446 47.2209 75.0069 46.2413 73.3692L44.7718 70.9126L43.4655 68.456M56.5278 87.2897L56.1477 87.6145L54.2006 85.4993L54.1943 85.4925L54.1884 85.4855L53.2087 84.3391L53.1943 84.3223L53.1815 84.3043L52.3651 83.1579L52.3624 83.154C51.2277 81.5282 50.0923 80.0638 48.9485 78.5887L48.9407 78.5788L48.9335 78.5684C47.7798 76.9153 46.7921 75.264 45.8144 73.6295L45.8122 73.6258L44.3427 71.1693L44.3362 71.1585L44.3303 71.1473L43.0258 68.6941L43.4655 68.456M43.4655 68.456C37.8114 58.0159 33.9777 46.9671 30.2929 36.3475C29.2957 33.4737 28.3094 30.6313 27.301 27.8408C23.7088 17.8508 19.7901 8.51588 15.2184 0.16356M43.4655 68.456L43.024 68.6908L43.0254 68.6934C37.3502 58.2141 33.4994 47.1153 29.8132 36.4912C28.8179 33.6226 27.8347 30.7886 26.8307 28.0108L26.8304 28.01C23.2807 18.1379 19.416 8.91894 14.9217 0.66356M15.2184 0.16356L1.45648 0.163559C1.56992 0.329383 1.68304 0.496051 1.79587 0.663559M15.2184 0.16356L14.7798 0.403632C14.8271 0.490168 14.8744 0.576811 14.9217 0.66356M15.2184 0.16356L15.2184 0.66356L14.9217 0.66356M1.79587 0.663559L1.1922 0.663559C6.9248 9.10114 11.8817 19.7309 16.5246 31.9351C17.4487 34.3451 18.3728 36.8018 19.3145 39.305C20.8685 43.436 22.4703 47.694 24.1987 52.079C27.1377 59.1211 30.24 66.4908 34.3219 73.5329L35.7914 76.317L37.5875 78.9374C38.7304 80.7389 39.8734 82.5403 41.1796 84.178C41.8328 84.9969 42.4859 85.8567 43.139 86.7165C43.7921 87.5763 44.4452 88.4361 45.0983 89.2549L46.078 90.5651L47.2209 91.7115L49.5068 94.1681L51.7928 96.6246L52.2826 97.2797L52.6091 97.6073L52.7724 97.771L53.0989 98.0986L54.2419 99.0812C55.0583 99.8182 55.8339 100.514 56.6094 101.21C57.385 101.906 58.1606 102.602 58.977 103.339C59.4523 103.708 59.9275 104.079 60.4036 104.451C63.5254 106.889 66.6797 109.353 70.0799 111.2C77.5907 115.95 85.9179 119.88 94.2451 123.156C99.0592 125.049 103.982 126.778 108.888 128.502C112.469 129.759 116.04 131.014 119.553 132.327M1.79587 0.663559C7.47934 9.10164 12.394 19.6714 16.9914 31.7561C17.9179 34.1722 18.8429 36.6311 19.7848 39.1349C21.337 43.2614 22.9353 47.5101 24.6622 51.8915C27.6018 58.935 30.6922 66.2739 34.7545 73.2822L34.7595 73.2908L34.7641 73.2995L36.2201 76.0581L37.9999 78.6547L38.0049 78.662L38.0097 78.6695C39.1553 80.4751 40.284 82.2533 41.5705 83.8663C42.2277 84.6902 42.8841 85.5543 43.5362 86.4129L43.5371 86.4141C44.1909 87.2747 44.8404 88.1297 45.4892 88.9432L45.4941 88.9493L45.4987 88.9555L46.4571 90.2372L47.575 91.3585L47.5811 91.3646L47.587 91.3709L49.8729 93.8275L52.1588 96.284L52.1771 96.3037L52.1932 96.3252L52.6617 96.9519L52.7386 97.029L52.9632 97.2543L53.1265 97.418L53.4394 97.7319L54.5679 98.7021L54.5771 98.7099C55.3927 99.4465 56.1678 100.142 56.9434 100.838C57.7145 101.53 58.4863 102.223 59.2982 102.956C59.7711 103.322 60.243 103.691 60.7148 104.059C63.8395 106.5 66.9579 108.935 70.3186 110.761L70.3332 110.769L70.3471 110.778C77.8237 115.505 86.1205 119.423 94.4282 122.69C99.2416 124.584 104.142 126.305 109.035 128.023C112.615 129.281 116.191 130.536 119.726 131.858M1.79587 0.663559L14.9217 0.66356M119.553 132.327L119.728 131.858C119.728 131.858 119.727 131.858 119.726 131.858M119.553 132.327L119.725 131.857C119.726 131.857 119.726 131.858 119.726 131.858M235.631 275.4L234.516 274.442L234.501 274.428L232.23 272.313L229.944 270.184L229.925 270.166L229.904 270.15L229.279 269.68L228.651 269.05L227.517 267.913C226.78 267.092 226.044 266.313 225.313 265.539L225.313 265.539C224.581 264.763 223.853 263.993 223.126 263.183C222.766 262.737 222.407 262.294 222.049 261.854C219.64 258.888 217.305 256.011 215.335 252.767L215.329 252.756L215.322 252.746C207.243 240.79 202.08 227.109 196.904 213.395C195.725 210.272 194.546 207.147 193.331 204.04C190.065 195.688 186.624 187.302 182.03 179.567C177.438 171.672 172.188 164.759 165.789 158.341L165.789 158.341L165.779 158.332C159.217 152.079 151.998 146.813 144.288 142.535L144.284 142.532C136.414 138.257 128.224 134.972 119.726 131.858M231.072 267.11L230.583 266.619L250.503 282.341L248.053 280.703C247.237 280.13 246.421 279.598 245.605 279.066C244.788 278.533 243.972 278.001 243.155 277.428C242.892 277.223 242.624 277.012 242.352 276.799C241.101 275.818 239.761 274.766 238.42 273.825L237.277 272.842L236.134 271.86L233.848 269.731L231.562 267.602L231.072 267.11Z" stroke="white" stroke-opacity="0.015"/>
</svg>
