<svg width="372" height="389" viewBox="0 0 372 389" fill="none" xmlns="http://www.w3.org/2000/svg">
<mask id="path-1-inside-1" fill="white">
<path d="M371.132 388.018C369.989 385.889 368.846 383.432 367.54 380.975C363.295 373.606 357.253 364.926 348.6 356.737C339.946 348.549 328.353 341.015 314.964 335.283C308.27 332.335 301.086 329.715 293.738 326.931C286.391 324.147 278.88 321.199 271.369 317.596C267.613 315.795 264.021 313.829 260.266 311.7C258.47 310.554 256.674 309.408 254.878 308.261C253.082 307.115 251.449 305.641 249.816 304.494C243.122 299.09 236.754 292.703 231.692 285.333C226.467 278.127 222.222 269.939 218.63 261.423C215.038 252.907 212.099 243.899 208.833 234.728C205.568 225.721 202.139 216.386 197.404 207.706L195.608 204.43L193.648 201.319C192.342 199.19 191.036 197.061 189.403 195.095L187.117 191.984C186.301 191.001 185.648 189.855 184.831 189.036L179.933 183.631L174.381 178.391C173.565 177.572 172.422 176.753 171.442 175.934L168.503 173.641C166.544 172.004 164.422 170.694 162.299 169.383L159.197 166.927L155.931 165.125C147.277 160.212 138.134 156.446 129.153 153.006C120.173 149.567 111.193 146.455 102.866 142.689C94.5383 138.922 86.701 134.5 79.8433 129.423C78.2104 128.113 76.5777 126.967 74.7816 125.493C73.1488 124.019 71.516 122.381 69.8832 120.907L69.2301 120.252L68.9036 119.925C69.2302 120.252 68.9036 119.925 68.9036 119.925L68.7403 119.761L67.7606 118.614L65.6381 116.322L63.5154 114.029L61.7193 111.572C60.5764 109.935 59.1069 108.297 58.1272 106.495C56.9843 104.694 56.0046 103.056 54.8617 101.255C52.9023 97.6518 50.943 94.0488 49.3102 90.2821C42.6158 75.5427 38.5338 60.1482 32.6558 46.2277C31.3495 42.7885 29.5535 39.3493 28.084 36.0739C27.2676 34.4362 26.4512 32.7985 25.4715 31.3245C24.6552 29.6868 23.8387 28.2129 22.8591 26.739C21.063 23.7911 19.2669 20.8432 17.1443 18.0591C16.1646 16.7489 15.0217 15.275 14.0421 13.9648C13.0624 12.8184 12.0827 11.672 11.103 10.5257C7.83743 6.75892 4.24533 3.4835 0.816467 0.535628L0.816467 17.8953C1.14304 18.2229 1.4696 18.5504 1.95944 19.0417C2.93912 20.1881 3.91876 21.1708 5.06174 22.3171C5.87811 23.4635 6.69452 24.4462 7.67419 25.5926C9.47024 27.7216 11.103 30.3419 12.8991 32.9623C13.8788 34.2724 14.5319 35.5826 15.3482 37.0565C16.1646 38.5305 16.981 39.8406 17.7974 41.3146C19.2669 44.4262 20.8997 47.3741 22.206 50.6495C25.145 57.2004 27.5941 64.2425 30.3699 71.6122C33.1456 78.9819 36.0846 86.8429 39.84 94.5401C41.6361 98.4706 43.922 102.401 46.0446 106.168C47.3509 108.133 48.4938 109.935 49.8 111.9C50.943 113.865 52.5757 115.503 53.882 117.468L56.0046 120.252L58.4538 122.872L60.9029 125.493L62.0459 126.803L62.2092 126.967C62.3725 127.131 62.2092 126.967 62.5357 127.294L62.8623 127.622L63.5154 128.113C65.1482 129.587 66.781 131.061 68.5771 132.699C70.3731 134.173 72.3325 135.647 74.2918 137.121C82.1291 142.689 90.6196 147.274 99.5999 151.041C108.417 154.808 117.561 157.756 126.541 161.031C135.521 164.307 144.338 167.582 152.665 172.168L155.768 173.805L158.707 175.607C160.666 176.917 162.789 178.063 164.585 179.537L167.361 181.666C168.34 182.321 169.32 182.976 170.136 183.795L175.198 188.381L180.096 193.785C180.913 194.604 181.729 195.587 182.382 196.569L184.505 199.353C185.974 201.155 187.28 203.12 188.587 205.085L190.546 208.033L192.342 211.145C196.914 219.334 200.669 228.177 204.098 237.185C207.527 246.028 210.629 255.199 214.548 263.879C218.467 272.559 223.038 280.911 228.59 288.445C234.141 295.978 240.836 302.365 247.857 307.77C249.653 309.08 251.449 310.554 253.245 311.7C255.041 312.847 257 313.993 258.796 315.14C262.552 317.269 266.307 319.234 270.226 321.035C277.9 324.474 285.574 327.422 293.085 329.879C300.432 332.499 307.617 334.956 314.311 337.74C327.863 343.144 339.293 350.187 347.947 358.048C356.764 365.909 362.968 374.261 367.213 381.631C368.683 384.087 369.826 386.216 370.969 388.345L371.132 388.345L371.132 388.018Z"/>
</mask>
<path d="M371.132 388.018C369.989 385.889 368.846 383.432 367.54 380.975C363.295 373.606 357.253 364.926 348.6 356.737C339.946 348.549 328.353 341.015 314.964 335.283C308.27 332.335 301.086 329.715 293.738 326.931C286.391 324.147 278.88 321.199 271.369 317.596C267.613 315.795 264.021 313.829 260.266 311.7C258.47 310.554 256.674 309.408 254.878 308.261C253.082 307.115 251.449 305.641 249.816 304.494C243.122 299.09 236.754 292.703 231.692 285.333C226.467 278.127 222.222 269.939 218.63 261.423C215.038 252.907 212.099 243.899 208.833 234.728C205.568 225.721 202.139 216.386 197.404 207.706L195.608 204.43L193.648 201.319C192.342 199.19 191.036 197.061 189.403 195.095L187.117 191.984C186.301 191.001 185.648 189.855 184.831 189.036L179.933 183.631L174.381 178.391C173.565 177.572 172.422 176.753 171.442 175.934L168.503 173.641C166.544 172.004 164.422 170.694 162.299 169.383L159.197 166.927L155.931 165.125C147.277 160.212 138.134 156.446 129.153 153.006C120.173 149.567 111.193 146.455 102.866 142.689C94.5383 138.922 86.701 134.5 79.8433 129.423C78.2104 128.113 76.5777 126.967 74.7816 125.493C73.1488 124.019 71.516 122.381 69.8832 120.907L69.2301 120.252L68.9036 119.925C69.2302 120.252 68.9036 119.925 68.9036 119.925L68.7403 119.761L67.7606 118.614L65.6381 116.322L63.5154 114.029L61.7193 111.572C60.5764 109.935 59.1069 108.297 58.1272 106.495C56.9843 104.694 56.0046 103.056 54.8617 101.255C52.9023 97.6518 50.943 94.0488 49.3102 90.2821C42.6158 75.5427 38.5338 60.1482 32.6558 46.2277C31.3495 42.7885 29.5535 39.3493 28.084 36.0739C27.2676 34.4362 26.4512 32.7985 25.4715 31.3245C24.6552 29.6868 23.8387 28.2129 22.8591 26.739C21.063 23.7911 19.2669 20.8432 17.1443 18.0591C16.1646 16.7489 15.0217 15.275 14.0421 13.9648C13.0624 12.8184 12.0827 11.672 11.103 10.5257C7.83743 6.75892 4.24533 3.4835 0.816467 0.535628L0.816467 17.8953C1.14304 18.2229 1.4696 18.5504 1.95944 19.0417C2.93912 20.1881 3.91876 21.1708 5.06174 22.3171C5.87811 23.4635 6.69452 24.4462 7.67419 25.5926C9.47024 27.7216 11.103 30.3419 12.8991 32.9623C13.8788 34.2724 14.5319 35.5826 15.3482 37.0565C16.1646 38.5305 16.981 39.8406 17.7974 41.3146C19.2669 44.4262 20.8997 47.3741 22.206 50.6495C25.145 57.2004 27.5941 64.2425 30.3699 71.6122C33.1456 78.9819 36.0846 86.8429 39.84 94.5401C41.6361 98.4706 43.922 102.401 46.0446 106.168C47.3509 108.133 48.4938 109.935 49.8 111.9C50.943 113.865 52.5757 115.503 53.882 117.468L56.0046 120.252L58.4538 122.872L60.9029 125.493L62.0459 126.803L62.2092 126.967C62.3725 127.131 62.2092 126.967 62.5357 127.294L62.8623 127.622L63.5154 128.113C65.1482 129.587 66.781 131.061 68.5771 132.699C70.3731 134.173 72.3325 135.647 74.2918 137.121C82.1291 142.689 90.6196 147.274 99.5999 151.041C108.417 154.808 117.561 157.756 126.541 161.031C135.521 164.307 144.338 167.582 152.665 172.168L155.768 173.805L158.707 175.607C160.666 176.917 162.789 178.063 164.585 179.537L167.361 181.666C168.34 182.321 169.32 182.976 170.136 183.795L175.198 188.381L180.096 193.785C180.913 194.604 181.729 195.587 182.382 196.569L184.505 199.353C185.974 201.155 187.28 203.12 188.587 205.085L190.546 208.033L192.342 211.145C196.914 219.334 200.669 228.177 204.098 237.185C207.527 246.028 210.629 255.199 214.548 263.879C218.467 272.559 223.038 280.911 228.59 288.445C234.141 295.978 240.836 302.365 247.857 307.77C249.653 309.08 251.449 310.554 253.245 311.7C255.041 312.847 257 313.993 258.796 315.14C262.552 317.269 266.307 319.234 270.226 321.035C277.9 324.474 285.574 327.422 293.085 329.879C300.432 332.499 307.617 334.956 314.311 337.74C327.863 343.144 339.293 350.187 347.947 358.048C356.764 365.909 362.968 374.261 367.213 381.631C368.683 384.087 369.826 386.216 370.969 388.345L371.132 388.345L371.132 388.018Z" stroke="white" stroke-opacity="0.015" stroke-width="2" mask="url(#path-1-inside-1)"/>
</svg>
