<svg width="304" height="292" viewBox="0 0 304 292" fill="none" xmlns="http://www.w3.org/2000/svg">
<path d="M258.102 268.91C264.564 271.386 270.686 273.732 276.327 276.165C270.628 273.904 264.438 271.73 257.891 269.43C255.311 268.523 252.675 267.597 249.991 266.638C248.858 266.196 247.737 265.783 246.612 265.368C244.785 264.694 242.947 264.016 241.03 263.207L241.013 263.199L240.994 263.193C239.971 262.851 238.955 262.431 237.864 261.98C237.411 261.793 236.944 261.6 236.459 261.405C235.881 261.147 235.304 260.864 234.707 260.572C234.559 260.499 234.409 260.426 234.259 260.352C233.52 259.992 232.75 259.626 231.939 259.297C231.242 258.788 230.398 258.45 229.625 258.14L229.612 258.134L227.345 256.997C226.534 256.591 225.763 256.184 224.986 255.774L224.983 255.772C224.212 255.365 223.436 254.956 222.619 254.546C221.162 253.733 219.545 252.76 218.092 251.788L218.082 251.781L218.071 251.775C216.452 250.801 215 249.829 213.549 248.698L213.535 248.686L213.52 248.676C212.068 247.706 210.613 246.571 209.141 245.422C208.42 244.86 207.738 244.256 207.042 243.641L207.037 243.636C206.349 243.027 205.648 242.407 204.904 241.826L202.789 240.031L202.767 240.012L202.743 239.996C202.296 239.697 202.161 239.562 201.677 239.076L200.707 238.104C200.053 237.366 199.399 236.669 198.75 235.978L198.748 235.976C198.094 235.279 197.446 234.588 196.799 233.858C191.759 228.151 187.048 221.631 183.313 214.628L183.309 214.621C177.806 204.731 173.763 194.049 169.68 183.259C167.963 178.721 166.238 174.164 164.395 169.638L164.394 169.636C161.286 162.09 157.847 154.695 153.584 147.623L153.578 147.614L153.572 147.605C153.146 146.964 152.724 146.321 152.303 145.678C150.481 142.9 148.667 140.133 146.532 137.587C145.38 135.939 144.061 134.286 142.573 132.793C142.572 132.791 142.571 132.79 142.57 132.789L138.331 128.374L138.321 128.363L138.309 128.353C132.247 122.765 125.85 117.829 118.792 113.713L118.785 113.708C111.737 109.763 104.367 106.478 96.677 103.524L96.6726 103.522C92.2861 101.884 87.8704 100.356 83.463 98.8309C72.3961 95.0011 61.3819 91.1895 51.0167 85.6996C51.0157 85.699 51.0147 85.6985 51.0138 85.698L45.6462 82.7614C44.9361 82.3085 44.2413 81.8896 43.5623 81.4802C42.4859 80.8312 41.4491 80.2061 40.4539 79.5074L40.4311 79.4913L40.4066 79.4779C39.5421 79.005 38.7088 78.4092 37.8767 77.7781C37.6277 77.5892 37.3772 77.396 37.126 77.2021C36.5502 76.7579 35.9708 76.3108 35.3967 75.9075C35.3952 75.9064 35.3938 75.9054 35.3923 75.9044L32.9673 74.1206L31.8388 73.1504L30.7027 72.1737C30.7015 72.1726 30.7003 72.1716 30.6992 72.1706C29.9649 71.516 29.2714 70.9022 28.5787 70.2891C27.8882 69.678 27.1984 69.0675 26.4685 68.4169L25.4991 67.4445L25.145 67.7975L25.499 67.4445L25.3357 67.2807L25.3008 67.2456L25.2596 67.2181C25.2147 67.1881 25.179 67.1637 25.1508 67.1441C25.1385 67.1189 25.1261 67.0982 25.1159 67.0824C25.081 67.0285 25.0408 66.9848 25.0093 66.9532L24.6552 67.3062L25.0092 66.9532L24.6827 66.6257L24.2067 66.1488L24.1929 66.1343L22.2536 64.0267C22.2526 64.0255 22.2515 64.0244 22.2505 64.0232C21.7216 63.4266 21.1649 62.8549 20.623 62.2983C20.4869 62.1585 20.3517 62.0197 20.2182 61.8816C19.5462 61.1872 18.9094 60.5078 18.3559 59.7939L18.3517 59.7885C17.0479 58.154 15.9071 56.6827 14.7641 55.2087L14.7637 55.2083C13.618 53.7308 12.4938 52.2801 11.5321 50.6724L11.5231 50.6574L11.5131 50.643C10.378 49.0166 9.40805 47.5573 8.4396 45.9395C8.02682 45.1131 7.57452 44.3295 7.13077 43.5608L7.12756 43.5551C6.67737 42.7752 6.23605 42.0103 5.83575 41.2074L5.82959 41.195L5.82272 41.1829L4.53342 38.9198C4.36468 38.5019 4.15838 38.0881 3.96246 37.6951L3.95807 37.6863C3.75213 37.2732 3.55777 36.8826 3.4035 36.4958L3.40002 36.4871L3.39621 36.4785C3.06521 35.7315 2.69379 34.9864 2.3284 34.2533L2.32529 34.2471C1.97327 33.541 1.62686 32.8459 1.3165 32.1529L1.3165 3.073C2.62427 6.79267 3.93228 10.5973 5.24094 14.4039C5.2413 14.4049 5.24164 14.406 5.242 14.407L5.24347 14.4116C6.2211 17.3532 7.20718 20.3205 8.52331 23.2906C8.8443 24.015 9.12588 24.7411 9.41226 25.4797L9.41437 25.4851C9.69876 26.2186 9.98804 26.9648 10.3194 27.7125L12.276 32.1282L12.2787 32.1343L13.2557 34.421L13.2644 34.4414L13.275 34.461L14.409 36.5734C15.0699 38.062 15.8921 39.5464 16.7014 41.0075L16.707 41.0176C17.1231 41.7689 17.5795 42.4764 18.0256 43.1679L18.0304 43.1754C18.4809 43.8736 18.9207 44.5557 19.3194 45.2756L19.3309 45.2963C20.1371 46.7518 20.972 48.2593 22.1433 49.6058C22.5081 50.0931 22.8839 50.5671 23.2608 51.0426C23.9281 51.8842 24.5988 52.7302 25.2184 53.6625L25.2261 53.674L25.2344 53.6851C25.9019 54.5777 26.7305 55.4847 27.539 56.3696C27.9334 56.8014 28.3231 57.2279 28.6868 57.645L28.6946 57.6535L30.4907 59.6188L30.498 59.6268L30.5056 59.6345L31.322 60.4533L32.3017 61.436C32.9604 62.0967 33.6593 62.7563 34.3515 63.4098L34.3536 63.4118C35.0486 64.0678 35.7368 64.7177 36.3837 65.3664L37.3634 66.3491L37.3794 66.3651L37.3968 66.3797L38.3765 67.1986L38.384 67.2048L38.3917 67.2108L40.5019 68.8389L40.5028 68.8397C41.7989 69.9772 43.1305 71.1459 44.7967 72.1502C45.3118 72.4948 45.8411 72.8703 46.3846 73.2559C47.3389 73.9329 48.337 74.641 49.3789 75.2681C50.2034 75.7642 51.0266 76.2184 51.8405 76.6673L51.8444 76.6695C52.6621 77.1206 53.4703 77.5665 54.2773 78.0522L54.2772 78.0523L54.2876 78.0582C63.4522 83.2785 73.7313 87.1752 84.3069 91.1843C89.0338 92.9762 93.8199 94.7905 98.5921 96.7556C106.418 100.026 114.229 103.618 121.545 108.02C128.851 112.58 135.675 118.12 141.854 124.153L146.088 128.89L146.097 128.9L146.107 128.91C147.544 130.351 148.827 132.118 150.138 133.927L150.146 133.937L150.154 133.947C152.252 136.548 153.969 139.329 155.688 142.114C156.221 142.978 156.754 143.842 157.299 144.701C161.524 152.037 164.94 159.867 167.872 167.709L167.873 167.711C169.661 172.445 171.318 177.208 172.961 181.933C176.697 192.676 180.366 203.224 185.368 212.802C188.976 219.711 193.24 226.128 197.998 231.887L198.013 231.905L198.029 231.921C199.323 233.219 200.62 234.682 201.762 235.991L201.773 236.004L201.785 236.016L202.715 236.949C202.849 237.174 203.053 237.366 203.214 237.51C203.292 237.579 203.363 237.64 203.43 237.697C203.546 237.797 203.648 237.885 203.744 237.981L205.703 239.946L205.714 239.957L205.725 239.966C206.3 240.479 206.823 240.991 207.345 241.501C207.48 241.633 207.614 241.765 207.75 241.897C208.406 242.534 209.075 243.164 209.832 243.754C210.392 244.191 210.939 244.595 211.471 244.989C212.376 245.657 213.239 246.295 214.055 247.011C215.386 248.179 216.878 249.177 218.338 250.153L218.352 250.163L220.556 251.637L222.761 253.111L222.787 253.128L222.814 253.142C224.435 253.955 225.894 254.768 227.364 255.586C227.365 255.587 227.366 255.588 227.367 255.588L229.648 256.895L229.66 256.902L229.672 256.909L231.958 258.055L231.977 258.064L231.996 258.072C232.795 258.393 233.557 258.754 234.31 259.122C234.456 259.193 234.602 259.265 234.748 259.336C235.35 259.632 235.951 259.926 236.55 260.194L236.559 260.198L236.568 260.201C238.191 260.852 239.652 261.503 241.122 262.159C244.071 263.474 247.019 264.623 249.953 265.768L249.961 265.771C252.726 266.849 255.443 267.891 258.102 268.91ZM25.1283 67.6552C25.1284 67.6551 25.1284 67.6551 25.1285 67.655L25.1272 67.6571L25.1283 67.6552Z" stroke="white" stroke-opacity="0.015"/>
</svg>
