<svg width="194" height="183" viewBox="0 0 194 183" fill="none" xmlns="http://www.w3.org/2000/svg">
<path d="M182.406 174.137C183.24 174.864 184.067 175.568 184.884 176.246C184.012 175.592 183.129 174.909 182.237 174.194C181.102 173.217 179.805 172.079 178.505 170.938C178.05 170.483 177.544 170.027 177.039 169.571C176.899 169.445 176.76 169.319 176.621 169.193C175.97 168.601 175.335 168.003 174.784 167.371L174.773 167.359L174.761 167.347C174.114 166.698 173.466 166.008 172.812 165.311L172.81 165.308C172.158 164.614 171.501 163.913 170.842 163.253L169.876 162.283L168.92 161.164C168.426 160.505 167.773 159.686 167.127 158.877L167.124 158.872L167.116 158.862L167.107 158.852C165.205 156.706 163.573 154.218 161.857 151.603C161.245 150.67 160.622 149.72 159.972 148.763C159.406 147.79 158.88 146.856 158.351 145.919L158.35 145.916C157.82 144.976 157.288 144.032 156.715 143.047C155.865 141.585 155.109 140.037 154.366 138.516C154.121 138.013 153.876 137.513 153.631 137.021C150.182 129.668 147.112 121.806 143.968 113.753C143.549 112.68 143.129 111.604 142.707 110.525C139.116 101.358 135.349 91.8288 130.433 82.9518C127.972 78.5092 125.185 74.2346 122.237 70.1284L122.227 70.114L122.216 70.1004C121.57 69.3229 120.977 68.5469 120.377 67.7616C120.226 67.5642 120.074 67.3662 119.921 67.1674C119.164 66.182 118.378 65.1857 117.465 64.1869L117.46 64.1816L117.456 64.1765L112.067 58.6083L112.061 58.6015L112.054 58.595C104.666 51.5138 96.1319 45.7534 87.1106 41.3114C78.4774 37.0606 69.3964 33.867 60.473 30.7289C60.0811 30.5911 59.6896 30.4534 59.2984 30.3157L59.2909 30.3132C49.9845 27.2017 40.8623 24.097 32.233 20.3412C31.496 20.0001 30.7561 19.6849 30.025 19.3734C28.5923 18.7631 27.1929 18.1669 25.9128 17.4179L25.8921 17.4058L25.8703 17.3957C24.5919 16.8039 23.3969 16.1648 22.2101 15.5301C21.4332 15.1146 20.6597 14.701 19.8687 14.3037C18.6269 13.492 17.3986 12.741 16.1891 12.0015C13.6957 10.4769 11.2821 9.00123 8.99448 7.14373L8.97649 7.12913L8.95723 7.11625C7.99806 6.47486 7.19749 5.8328 6.37979 5.17666L6.37369 5.17177L6.36745 5.16707L5.07416 4.19418L3.94363 3.22224C3.3734 2.73198 2.76216 2.20066 2.14964 1.66821C1.88847 1.44117 1.62706 1.21393 1.36867 0.989738L18.1564 0.989738C18.9813 1.56088 19.8213 2.12662 20.6726 2.69997C21.9978 3.59249 23.3504 4.50343 24.716 5.48178L24.7406 5.49942L24.7672 5.51397C25.6564 6.00044 26.547 6.52822 27.4463 7.06128L27.4498 7.0633C28.3405 7.59123 29.2399 8.12429 30.1406 8.61756C31.4434 9.44746 32.8437 10.1161 34.2357 10.7807C34.7893 11.0451 35.3416 11.3088 35.8859 11.5818L35.8859 11.5819L35.8971 11.5872C43.9153 15.3622 52.5836 18.8069 61.8909 22.41C71.2002 26.0139 80.8034 29.7696 90.2397 34.9916L90.2424 34.993C99.5089 40.0479 108.443 46.5662 115.911 54.5437L121.289 60.5921C122.261 61.7628 123.216 63.0854 124.182 64.4236C124.834 65.3256 125.49 66.2348 126.161 67.1094C129.251 71.678 132.01 76.2379 134.28 80.9544L134.283 80.9606C138.975 90.3739 142.383 100.114 145.633 109.407L145.685 109.553C145.685 109.554 145.686 109.556 145.686 109.558C148.789 119.057 151.897 128.082 155.499 136.293L155.502 136.301C155.846 137.047 156.171 137.779 156.493 138.502C157.079 139.818 157.65 141.101 158.285 142.375L158.287 142.379C159.265 144.341 160.248 146.313 161.232 148.122L161.24 148.137L161.249 148.151C161.907 149.188 162.541 150.232 163.172 151.269C164.709 153.798 166.221 156.285 167.973 158.51L167.991 158.533L168.012 158.554C168.638 159.183 169.266 159.97 169.733 160.751L169.743 160.768L169.754 160.784L170.571 161.93L170.595 161.964L170.624 161.993L171.592 162.964C172.161 163.617 172.77 164.309 173.378 165L173.379 165.001C173.992 165.697 174.603 166.392 175.173 167.046C176.327 168.369 177.643 169.689 178.783 170.832L178.788 170.837C179.945 171.997 181.262 173.153 182.406 174.137Z" stroke="white" stroke-opacity="0.015"/>
</svg>
