<svg width="1" height="1" viewBox="0 0 1 1" fill="none" xmlns="http://www.w3.org/2000/svg">
<mask id="path-1-inside-1" fill="white">
<path d="M0.675903 0.513716C0.512164 0.349921 0.512164 0.513716 0.675903 0.513716V0.513716Z"/>
</mask>
<path d="M1.38313 -0.193271C1.30462 -0.271809 1.15327 -0.409806 0.935028 -0.491675C0.844189 -0.525751 0.581319 -0.612409 0.262407 -0.512716C0.0816614 -0.456213 -0.114845 -0.337935 -0.26003 -0.133699C-0.402736 0.0670487 -0.446901 0.281772 -0.446901 0.452293C-0.446901 0.762624 -0.308439 0.9797 -0.234756 1.07644C-0.145106 1.19415 -0.0416469 1.279 0.053672 1.3386C0.250059 1.46138 0.468558 1.51372 0.675903 1.51372L0.675903 -0.486284C0.801379 -0.486284 0.958476 -0.454426 1.11393 -0.357236C1.18878 -0.310438 1.27689 -0.239655 1.35631 -0.135386C1.41975 -0.0520811 1.5531 0.152199 1.5531 0.452293C1.5531 0.617695 1.51021 0.827939 1.37007 1.02509C1.22744 1.22573 1.03477 1.34128 0.859141 1.39619C0.550463 1.49268 0.302944 1.4073 0.232572 1.3809C0.131746 1.34308 0.0639318 1.29726 0.0328739 1.2746C-0.00240079 1.24887 -0.0237187 1.22831 -0.0313233 1.2207L1.38313 -0.193271Z" fill="white" fill-opacity="0.015" mask="url(#path-1-inside-1)"/>
</svg>
