<svg width="441" height="465" viewBox="0 0 441 465" fill="none" xmlns="http://www.w3.org/2000/svg">
<mask id="path-1-inside-1" fill="white">
<path d="M440.689 464.017C439.219 460.742 437.75 457.139 436.28 452.881C432.688 443.546 429.259 431.918 423.708 418.98C420.932 412.593 417.503 405.879 413.095 399.328C408.686 392.777 403.298 386.39 396.767 380.658C390.236 374.926 382.725 369.849 374.398 365.591C366.071 361.333 357.09 357.894 347.947 354.455C338.803 351.015 329.333 347.576 320.189 342.991C319.046 342.499 317.903 341.844 316.76 341.353L313.495 339.551C312.352 338.896 311.209 338.241 310.066 337.586L306.8 335.457L303.535 333.328L300.433 331.035L297.33 328.743C296.351 327.924 295.371 326.941 294.391 325.958C286.717 318.916 280.023 310.4 274.798 300.902C269.573 291.403 265.654 281.085 261.899 270.44C258.143 259.795 254.551 248.986 249.326 238.505C248.02 235.884 246.551 233.264 245.245 230.808C243.775 228.351 242.142 225.894 240.509 223.274C238.713 220.818 236.917 218.361 235.121 216.068L229.243 209.517C220.916 201.001 211.119 194.123 200.67 188.882C190.22 183.642 179.443 179.711 168.993 175.781C158.544 171.85 148.42 167.756 139.113 162.351C134.542 159.731 130.133 156.619 126.215 153.508L124.745 152.361C124.255 152.034 123.765 151.379 123.276 151.051L120.336 148.267L118.867 146.957L118.214 146.466L117.561 145.81L114.948 143.026C108.254 135.329 102.866 126.649 98.7837 117.642C94.5385 108.634 91.2729 99.1358 88.0074 89.8008C84.7418 80.4659 81.313 71.2947 77.0677 62.6149C75.9248 60.4858 74.7818 58.3568 73.6389 56.2278C72.4959 54.0988 71.1897 52.1335 69.8835 50.1683C69.2303 49.1856 68.7405 48.203 67.9241 47.2204C67.271 46.2378 66.4546 45.2551 65.8015 44.2725C64.332 42.471 63.0258 40.342 61.5563 38.8681C60.0868 37.2304 58.7805 35.7564 57.311 34.1187L56.9845 33.7912L56.8212 33.6274C56.3313 33.1361 56.6579 33.4636 56.4947 33.2999L55.8416 32.8086L54.6986 31.6622C53.8822 30.8433 53.0658 30.1882 52.2494 29.3694C50.7799 27.8954 48.9838 26.5853 47.351 25.1113C46.5346 24.4562 45.7183 23.8012 44.9019 23.1461C44.0855 22.491 43.2691 21.9997 42.2894 21.3446C35.595 16.5952 28.7373 12.8285 22.0429 9.71685C14.0422 6.11389 6.6947 3.16602 0.000274658 0.709453L0.000274064 14.3024C5.38849 16.2677 11.1032 18.3967 16.9812 21.017C23.1858 23.6374 29.3904 26.9128 35.4317 31.1708C36.2481 31.6622 36.9012 32.1535 37.7176 32.6448C38.3707 33.1361 39.1871 33.7912 40.0035 34.4463C41.473 35.5927 43.1058 36.7391 44.412 38.0492C45.0652 38.7043 45.8815 39.3594 46.5346 40.0145L47.6776 40.9971L48.1674 41.4884C48.1674 41.4884 48.3307 41.6522 48.3307 41.4884L48.6573 41.816C50.1268 43.2899 51.5963 44.9276 53.0658 46.4015L54.2088 47.5479C54.5353 47.8755 54.8618 48.3668 55.1884 48.6943C55.8415 49.5132 56.3314 50.332 56.9845 50.9871C57.6376 51.806 58.2907 52.6248 58.7805 53.2799C59.4337 54.0988 59.9235 55.0814 60.5766 55.9002C61.7195 57.7017 63.0258 59.3394 64.0055 61.3047C64.9851 63.2699 66.1281 65.0714 67.1078 67.0367C71.1897 74.8977 74.6185 83.7413 78.0474 92.9125C81.4762 102.084 85.0684 111.746 89.6402 121.409C94.3752 131.071 100.253 140.406 107.927 148.758L110.866 151.87L111.519 152.689L112.499 153.508L113.969 154.818L116.908 157.602C117.398 158.093 117.887 158.585 118.377 158.912L120.173 160.222C124.745 163.825 129.643 166.937 134.542 169.721C144.502 175.289 155.278 179.384 165.891 183.15C176.504 186.917 187.117 190.52 197.077 195.433C207.037 200.182 216.344 206.406 224.182 214.267L229.896 220.49L234.958 226.877L239.53 233.919C240.836 236.376 242.306 238.669 243.612 241.289C248.673 251.279 252.429 261.924 256.511 272.405C260.429 283.05 264.675 293.532 270.389 303.358C275.941 313.184 283.125 322.028 291.289 329.234C292.269 330.053 293.248 331.035 294.228 331.854L297.494 334.311L300.759 336.767L304.188 338.896L307.617 341.025C308.76 341.68 309.903 342.336 311.046 342.991L314.475 344.792C315.618 345.447 316.924 345.939 318.067 346.43C327.537 350.852 337.17 354.127 346.314 357.402C355.621 360.678 364.438 363.953 372.765 368.048C380.929 372.142 388.44 377.055 394.808 382.459C407.87 393.432 416.36 407.025 422.075 419.635C427.79 432.246 431.545 443.874 435.301 453.208C436.933 457.303 438.403 460.906 439.872 464.017L440.689 464.017Z"/>
</mask>
<path d="M440.689 464.017C439.219 460.742 437.75 457.139 436.28 452.881C432.688 443.546 429.259 431.918 423.708 418.98C420.932 412.593 417.503 405.879 413.095 399.328C408.686 392.777 403.298 386.39 396.767 380.658C390.236 374.926 382.725 369.849 374.398 365.591C366.071 361.333 357.09 357.894 347.947 354.455C338.803 351.015 329.333 347.576 320.189 342.991C319.046 342.499 317.903 341.844 316.76 341.353L313.495 339.551C312.352 338.896 311.209 338.241 310.066 337.586L306.8 335.457L303.535 333.328L300.433 331.035L297.33 328.743C296.351 327.924 295.371 326.941 294.391 325.958C286.717 318.916 280.023 310.4 274.798 300.902C269.573 291.403 265.654 281.085 261.899 270.44C258.143 259.795 254.551 248.986 249.326 238.505C248.02 235.884 246.551 233.264 245.245 230.808C243.775 228.351 242.142 225.894 240.509 223.274C238.713 220.818 236.917 218.361 235.121 216.068L229.243 209.517C220.916 201.001 211.119 194.123 200.67 188.882C190.22 183.642 179.443 179.711 168.993 175.781C158.544 171.85 148.42 167.756 139.113 162.351C134.542 159.731 130.133 156.619 126.215 153.508L124.745 152.361C124.255 152.034 123.765 151.379 123.276 151.051L120.336 148.267L118.867 146.957L118.214 146.466L117.561 145.81L114.948 143.026C108.254 135.329 102.866 126.649 98.7837 117.642C94.5385 108.634 91.2729 99.1358 88.0074 89.8008C84.7418 80.4659 81.313 71.2947 77.0677 62.6149C75.9248 60.4858 74.7818 58.3568 73.6389 56.2278C72.4959 54.0988 71.1897 52.1335 69.8835 50.1683C69.2303 49.1856 68.7405 48.203 67.9241 47.2204C67.271 46.2378 66.4546 45.2551 65.8015 44.2725C64.332 42.471 63.0258 40.342 61.5563 38.8681C60.0868 37.2304 58.7805 35.7564 57.311 34.1187L56.9845 33.7912L56.8212 33.6274C56.3313 33.1361 56.6579 33.4636 56.4947 33.2999L55.8416 32.8086L54.6986 31.6622C53.8822 30.8433 53.0658 30.1882 52.2494 29.3694C50.7799 27.8954 48.9838 26.5853 47.351 25.1113C46.5346 24.4562 45.7183 23.8012 44.9019 23.1461C44.0855 22.491 43.2691 21.9997 42.2894 21.3446C35.595 16.5952 28.7373 12.8285 22.0429 9.71685C14.0422 6.11389 6.6947 3.16602 0.000274658 0.709453L0.000274064 14.3024C5.38849 16.2677 11.1032 18.3967 16.9812 21.017C23.1858 23.6374 29.3904 26.9128 35.4317 31.1708C36.2481 31.6622 36.9012 32.1535 37.7176 32.6448C38.3707 33.1361 39.1871 33.7912 40.0035 34.4463C41.473 35.5927 43.1058 36.7391 44.412 38.0492C45.0652 38.7043 45.8815 39.3594 46.5346 40.0145L47.6776 40.9971L48.1674 41.4884C48.1674 41.4884 48.3307 41.6522 48.3307 41.4884L48.6573 41.816C50.1268 43.2899 51.5963 44.9276 53.0658 46.4015L54.2088 47.5479C54.5353 47.8755 54.8618 48.3668 55.1884 48.6943C55.8415 49.5132 56.3314 50.332 56.9845 50.9871C57.6376 51.806 58.2907 52.6248 58.7805 53.2799C59.4337 54.0988 59.9235 55.0814 60.5766 55.9002C61.7195 57.7017 63.0258 59.3394 64.0055 61.3047C64.9851 63.2699 66.1281 65.0714 67.1078 67.0367C71.1897 74.8977 74.6185 83.7413 78.0474 92.9125C81.4762 102.084 85.0684 111.746 89.6402 121.409C94.3752 131.071 100.253 140.406 107.927 148.758L110.866 151.87L111.519 152.689L112.499 153.508L113.969 154.818L116.908 157.602C117.398 158.093 117.887 158.585 118.377 158.912L120.173 160.222C124.745 163.825 129.643 166.937 134.542 169.721C144.502 175.289 155.278 179.384 165.891 183.15C176.504 186.917 187.117 190.52 197.077 195.433C207.037 200.182 216.344 206.406 224.182 214.267L229.896 220.49L234.958 226.877L239.53 233.919C240.836 236.376 242.306 238.669 243.612 241.289C248.673 251.279 252.429 261.924 256.511 272.405C260.429 283.05 264.675 293.532 270.389 303.358C275.941 313.184 283.125 322.028 291.289 329.234C292.269 330.053 293.248 331.035 294.228 331.854L297.494 334.311L300.759 336.767L304.188 338.896L307.617 341.025C308.76 341.68 309.903 342.336 311.046 342.991L314.475 344.792C315.618 345.447 316.924 345.939 318.067 346.43C327.537 350.852 337.17 354.127 346.314 357.402C355.621 360.678 364.438 363.953 372.765 368.048C380.929 372.142 388.44 377.055 394.808 382.459C407.87 393.432 416.36 407.025 422.075 419.635C427.79 432.246 431.545 443.874 435.301 453.208C436.933 457.303 438.403 460.906 439.872 464.017L440.689 464.017Z" stroke="white" stroke-opacity="0.015" stroke-width="2" mask="url(#path-1-inside-1)"/>
</svg>
