<svg width="157" height="169" viewBox="0 0 157 169" fill="none" xmlns="http://www.w3.org/2000/svg">
<path d="M152.973 165.103C153.731 165.863 154.496 166.631 155.266 167.353L155.127 167.353C154.361 166.738 153.614 166.13 152.868 165.383C151.718 164.065 150.568 162.912 149.27 161.61L149.264 161.605L148.92 161.948L149.264 161.605C146.981 159.315 144.839 156.59 142.545 153.674C142.406 153.497 142.266 153.32 142.126 153.141C137.572 146.778 133.183 139.602 129.445 131.452L129.443 131.448C125.697 123.442 122.274 114.615 118.845 105.606C115.414 96.5935 111.647 87.3938 106.73 78.6801L106.728 78.6766C104.27 74.4025 101.483 70.1276 98.5311 66.1799L98.5235 66.1696L98.5153 66.1597C97.974 65.5082 97.4582 64.8417 96.9416 64.174C95.9454 62.8863 94.9457 61.5944 93.7525 60.397C93.7515 60.3961 93.7506 60.3952 93.7497 60.3943L88.3667 54.8314L88.3504 54.8145L88.3325 54.7992L82.7869 50.0549C81.5687 48.9449 80.1822 47.9673 78.8263 47.0113C78.1619 46.5428 77.5048 46.0795 76.8785 45.6083L76.8692 45.6014L76.8597 45.5948C72.7672 42.8036 68.5007 40.1692 64.0631 38.0258C55.2142 33.5884 46.0437 30.3042 36.8991 27.1922C27.7549 24.0804 18.7885 20.9733 10.4777 17.5409L10.473 17.539C7.31982 16.2739 4.31773 14.8545 1.31673 13.2794L1.31673 1.7185C5.21666 4.18398 9.55289 6.63397 14.3248 8.79562C22.1772 12.4054 30.8429 15.8491 39.8247 19.2889C48.7965 22.7248 58.2399 26.6449 67.3518 31.704C71.9011 34.3115 76.2911 37.2467 80.5226 40.348C82.6455 41.9859 84.7481 43.6088 86.6866 45.3909C86.6875 45.3917 86.6884 45.3925 86.6893 45.3933L92.5432 50.9387L97.5881 56.8149L97.5931 56.8208L97.5983 56.8266C98.7772 58.1165 99.7993 59.531 100.841 60.972C101.367 61.7011 101.899 62.4371 102.459 63.1672C105.387 67.5738 108.148 72.136 110.419 76.6924L110.42 76.6955C115.139 85.9971 118.558 95.4678 121.659 104.634C124.76 113.801 127.704 122.496 131.14 130.703C134.421 138.929 138.52 146.165 142.779 152.572L142.786 152.582L142.793 152.591C143.296 153.277 143.786 153.957 144.271 154.631C145.966 156.986 147.595 159.251 149.519 161.31L149.52 161.311C150.658 162.616 151.81 163.937 152.965 165.095L152.973 165.103Z" stroke="white" stroke-opacity="0.015"/>
</svg>
