<svg width="76" height="97" viewBox="0 0 76 97" fill="none" xmlns="http://www.w3.org/2000/svg">
<path d="M61.9168 58.0638L61.9168 58.0639L61.9194 58.0695C64.1962 62.9631 66.1492 68.0231 67.7779 72.7605C69.4086 77.504 70.8767 82.0848 72.1829 86.1791C72.7553 87.9835 73.3275 89.7054 73.8782 91.3625L73.8788 91.3641C74.3534 92.7921 74.8117 94.1713 75.2416 95.5171L74.4708 95.5171C73.8282 93.8699 73.1348 92.1667 72.4224 90.4165C71.9003 89.1341 71.3679 87.8264 70.8378 86.4969L70.8351 86.4904C70.3602 85.3471 69.871 84.1612 69.3677 82.9412C68.1429 79.9719 66.8345 76.8001 65.4449 73.5478L65.442 73.541L65.4389 73.5343C65.1561 72.9233 64.873 72.3089 64.5886 71.6916C62.7432 67.6857 60.8403 63.555 58.5688 59.4249C56.1044 54.6472 52.9875 49.8769 49.7126 45.4424L49.7042 45.4309L49.695 45.42C49.5794 45.2808 49.461 45.1389 49.3407 44.9947C48.604 44.1121 47.7952 43.1428 47.1053 42.174L47.0813 42.1403L47.0521 42.111C46.5794 41.6369 46.1436 41.1208 45.6923 40.5858L45.6859 40.5783C45.2442 40.0547 44.7872 39.513 44.2868 39.0099L42.9902 37.5469L42.9805 37.5359L42.9701 37.5255L41.5006 36.0516L38.3983 32.9399L38.3832 32.9248L38.3668 32.911L35.2645 30.2906L35.2646 30.2905L35.2548 30.2826L33.622 28.9724L33.3091 29.3624L33.622 28.9724L31.993 27.6653C30.9999 26.8356 29.846 26.0089 28.7112 25.1958L28.702 25.1892C28.1205 24.7727 27.5404 24.3986 26.9718 24.032L26.9673 24.0291C26.3944 23.6597 25.8331 23.2976 25.2731 22.8965L25.2632 22.8893L25.2529 22.8827C20.6626 19.9229 15.9036 17.2888 10.976 15.1471L10.9742 15.1463C8.5081 14.0862 6.03852 13.1092 3.63734 12.1593C2.80003 11.8281 1.97105 11.5001 1.15343 11.1731L1.15343 1.13616C5.49467 3.0271 9.98444 5.21298 14.6228 7.69425C19.5031 10.3049 24.5414 13.4026 29.251 16.9862L29.2532 16.9879C29.5238 17.1914 29.7861 17.3871 30.042 17.5779C31.0321 18.3163 31.9245 18.9818 32.8199 19.7516L36.2442 22.6955L37.8627 24.1566L39.4862 25.7849L42.7424 29.051L45.6727 32.3167L47.1344 33.9456L48.5964 35.738L48.5963 35.7381L48.6037 35.7468C49.5664 36.8732 50.5329 38.1648 51.3435 39.3025C51.7528 39.9589 52.1617 40.574 52.5661 41.1825L52.5678 41.185C52.9765 41.8 53.3807 42.4082 53.7844 43.0561L53.786 43.0586C56.8774 47.9545 59.6417 53.0108 61.9168 58.0638Z" stroke="white" stroke-opacity="0.015"/>
</svg>
