<svg width="352" height="364" viewBox="0 0 352 364" fill="none" xmlns="http://www.w3.org/2000/svg">
<path d="M334.18 343.328C335.551 344.588 336.842 345.773 338.113 347.004C337.647 346.592 337.173 346.177 336.695 345.759L336.499 345.588C335.54 344.749 334.565 343.892 333.59 342.996L333.581 342.988L333.572 342.981L333.567 342.977C332.595 342.164 331.607 341.338 330.455 340.512C329.467 339.688 328.321 338.866 327.193 338.058C326.207 337.213 325.215 336.599 324.165 335.949C323.964 335.825 323.762 335.7 323.557 335.571L323.537 335.558L323.516 335.548C322.605 335.091 321.786 334.559 320.906 333.987C320.551 333.757 320.187 333.52 319.802 333.278C317.914 332.095 315.932 331.076 313.948 330.056C313.166 329.654 312.384 329.251 311.607 328.839L311.599 328.834L311.591 328.831C305.861 326.039 299.639 323.411 293.091 321.112C286.396 318.656 279.539 316.199 272.518 313.743C265.506 311.126 258.185 308.187 251.031 304.437C250.412 304.098 249.804 303.784 249.202 303.473C248.017 302.861 246.856 302.261 245.677 301.509L245.666 301.502C244.042 300.525 242.255 299.385 240.461 298.239C239.536 297.589 238.627 296.9 237.682 296.182C236.957 295.631 236.211 295.064 235.418 294.486C235.417 294.485 235.417 294.485 235.416 294.484L232.822 292.533C232.82 292.531 232.818 292.53 232.816 292.528C232.435 292.222 232.089 291.875 231.72 291.505L231.711 291.497C231.35 291.134 230.966 290.749 230.536 290.404C228.917 289.105 227.461 287.807 225.842 286.183C224.383 284.72 222.923 283.092 221.451 281.453L221.434 281.433L221.414 281.415C219.827 279.983 218.551 278.225 217.239 276.416C216.782 275.786 216.317 275.189 215.858 274.601C214.964 273.453 214.093 272.336 213.347 271.054L213.336 271.034L213.323 271.016C208.129 263.69 204.227 255.541 200.639 247.197C198.016 241.098 195.656 234.828 193.298 228.563C192.431 226.261 191.565 223.959 190.686 221.667C187.417 213.14 183.813 204.76 179.222 196.866C174.632 188.972 169.381 181.895 162.816 175.31L162.816 175.31L162.807 175.301C156.246 169.05 148.865 163.619 140.988 159.34C133.113 154.897 124.59 151.61 116.1 148.499L116.097 148.498C113.359 147.513 110.626 146.563 107.901 145.616C101.992 143.562 96.1206 141.521 90.3176 139.17L90.3098 139.167C81.8412 135.9 73.5489 131.985 65.914 126.934L65.9025 126.926L65.8906 126.919C63.9484 125.783 62.0118 124.487 60.2405 123.034L60.2324 123.027L60.2239 123.02C59.7419 122.658 59.265 122.309 58.7987 121.967C57.3365 120.896 55.978 119.901 54.8892 118.809L54.8799 118.8L54.8702 118.791C54.0608 118.06 53.2916 117.37 52.5234 116.681L52.5016 116.661C51.7289 115.967 50.9568 115.275 50.1446 114.541L49.8275 114.223L49.5011 113.896L49.3628 113.757L48.8943 113.131L48.873 113.102L48.8479 113.077L47.7169 111.943L47.705 111.931L45.4371 109.493C45.4364 109.492 45.4356 109.491 45.4348 109.491C39.5836 102.969 34.5464 95.7972 30.6483 88.4658L30.6417 88.4542C26.5776 81.2799 23.4856 73.9367 20.7132 66.7394L20.7118 66.7357C17.9365 59.6947 15.3253 52.9832 12.8776 46.4364C10.422 39.8684 7.80176 33.9547 5.01663 28.532L5.00925 28.5177L5.00094 28.5038C4.38245 27.4698 3.79327 26.4069 3.20383 25.3437C3.09805 25.1528 2.99228 24.962 2.88632 24.7714C2.21686 23.5666 1.54138 22.3699 0.82669 21.2449L0.826691 1.49257C1.34302 2.12765 1.85596 2.78244 2.36856 3.50226L2.38138 3.52025L2.39575 3.53705C3.16293 4.4348 3.82623 5.32961 4.56207 6.32229C4.75256 6.57925 4.94791 6.84277 5.15115 7.1146C6.11618 8.4052 6.92187 9.69771 7.73968 11.0101L10.1819 14.9291C10.183 14.9309 10.184 14.9327 10.1851 14.9345C10.9915 16.3101 11.7192 17.7288 12.4529 19.1803C12.5355 19.3436 12.6181 19.5074 12.701 19.6716C13.3515 20.9604 14.014 22.2731 14.7408 23.586C17.6682 29.6229 20.2725 35.9896 22.7159 42.6886C23.8117 45.6927 24.8814 48.7491 25.964 51.8423C27.2872 55.6229 28.6296 59.4585 30.0625 63.3211C32.5162 70.3757 35.3 77.2753 38.905 84.1788C42.3532 91.0951 46.7847 97.6789 52.0338 103.767L52.0456 103.78L52.0584 103.793C53.3524 105.091 54.6487 106.553 55.957 108.03L55.9755 108.051L55.9962 108.069C56.8071 108.801 57.5781 109.534 58.3543 110.271L58.3571 110.274C59.128 111.007 59.9042 111.744 60.7215 112.482C61.9248 113.688 63.0555 114.556 64.1957 115.432C64.6238 115.761 65.0533 116.091 65.4884 116.44L65.4938 116.445C65.6544 116.57 65.8175 116.698 65.9828 116.827C67.3184 117.873 68.8041 119.036 70.4209 120.069C81.8754 128.136 95.599 133.364 109.727 138.745C112.592 139.837 115.474 140.935 118.357 142.064C127.001 145.499 135.63 149.256 143.927 153.988C152.213 158.714 159.85 164.581 166.676 171.426C173.176 178.273 179.027 186.261 183.576 194.573L183.58 194.579C188.293 202.893 191.71 211.703 194.81 220.377C195.74 222.977 196.648 225.577 197.553 228.166C202.671 242.816 207.674 257.134 215.752 269.433C216.75 271.266 218.072 273.087 219.382 274.729C219.812 275.268 220.22 275.819 220.633 276.378C220.843 276.662 221.055 276.948 221.272 277.236C221.906 278.077 222.573 278.914 223.328 279.674C223.816 280.217 224.297 280.736 224.77 281.245C225.742 282.293 226.676 283.3 227.546 284.391L227.572 284.424L227.604 284.453C229.073 285.762 230.696 287.228 232.155 288.69L232.174 288.71L232.196 288.727C232.579 289.035 232.927 289.383 233.298 289.755L233.306 289.764C233.668 290.126 234.052 290.511 234.482 290.856L234.49 290.863L234.498 290.869L236.936 292.662C236.938 292.664 236.94 292.665 236.942 292.666C237.201 292.868 237.465 293.076 237.735 293.288C238.986 294.269 240.339 295.33 241.692 296.28L241.701 296.286L241.71 296.292C242.204 296.608 242.684 296.909 243.152 297.204C244.401 297.99 245.575 298.728 246.753 299.555L246.776 299.572L246.801 299.585C248.599 300.569 250.385 301.546 252.008 302.523L252.014 302.527L252.021 302.53C259.072 306.478 266.118 309.435 273.144 312.221L273.148 312.223C274.642 312.802 276.115 313.374 277.57 313.939C283.11 316.09 288.387 318.139 293.562 320.086C300.067 322.532 306.251 325.47 311.962 328.252C314.738 329.726 317.495 331.19 320.087 332.815C320.733 333.22 321.339 333.626 321.952 334.036L321.953 334.036C322.564 334.445 323.182 334.858 323.842 335.272C324.057 335.407 324.266 335.536 324.47 335.662C325.525 336.316 326.447 336.887 327.374 337.684C328.519 338.669 329.513 339.499 330.674 340.332C331.797 341.136 332.756 341.937 333.714 342.899L333.722 342.906L333.73 342.914L334.18 343.328Z" stroke="white" stroke-opacity="0.015"/>
</svg>
