<svg width="80" height="105" viewBox="0 0 80 105" fill="none" xmlns="http://www.w3.org/2000/svg">
<path d="M78.684 100.475L78.684 100.719L78.684 102.198L78.162 101.151L78.1621 101.151L78.156 101.139C77.5104 99.9254 76.9443 98.7089 76.3731 97.4608C76.2995 97.2999 76.2257 97.1385 76.1518 96.9765C75.6549 95.8884 75.146 94.7741 74.5756 93.6292C72.9162 89.8242 71.2578 85.6761 69.5333 81.3625C68.8876 79.7476 68.2327 78.1094 67.565 76.4574C66.9899 75.0348 66.4143 73.5925 65.8319 72.1332C63.9385 67.3891 61.9732 62.4647 59.7223 57.4474C56.933 50.8655 53.3272 44.4561 49.4066 37.9019C48.7814 36.8569 48.0756 35.8559 47.4007 34.8989C47.0138 34.3502 46.6371 33.816 46.2916 33.2963L46.2815 33.2811L46.2703 33.2666C45.6946 32.5242 45.1194 31.8236 44.5492 31.1291L44.5472 31.1267C43.9751 30.4299 43.408 29.7392 42.8415 29.0086L42.8352 29.0005L42.8285 28.9926L41.0369 26.8688C40.3679 26.0308 39.6999 25.3607 39.0516 24.7106L39.0487 24.7076L35.1335 20.617L35.1189 20.6017L35.1031 20.5878L31.033 16.9953C30.3572 16.3193 29.5246 15.6524 28.8683 15.1587L28.8683 15.1586L28.8589 15.1518L26.573 13.5141L26.5664 13.5094L26.5597 13.5049C25.8341 13.0197 25.107 12.4931 24.3708 11.9598L24.3668 11.9569C23.6348 11.4266 22.8937 10.8898 22.1512 10.3932L22.1343 10.382L22.1166 10.3721C20.6569 9.55872 19.0359 8.58309 17.5794 7.60913L17.5631 7.59822L17.5459 7.58861C12.7375 4.89345 7.92937 2.56575 3.01688 0.499997L19.4689 0.499997C20.0859 0.809964 20.667 1.1103 21.2461 1.54596L21.2527 1.55089L21.2594 1.5556L26.1474 4.98756C27.6115 6.12984 29.2301 7.42919 30.6841 8.72552L30.6841 8.72558L30.6909 8.73146L32.9622 10.6842L34.01 11.7351L35.0713 12.7996L35.0712 12.7997L35.078 12.8062L39.4688 17.0471L43.1983 21.4385C43.4548 21.7801 43.7499 22.1178 44.0507 22.4598L44.1066 22.5233C44.3914 22.8469 44.684 23.1795 44.9765 23.5447L46.5938 26.1402L46.6007 26.1513L46.6081 26.162C47.0034 26.7283 47.41 27.2844 47.8126 27.8349C48.6022 28.9145 49.3761 29.9728 50.0179 31.0456L50.0269 31.0607L50.037 31.0751C51.1678 32.6954 52.1384 34.3175 53.1188 35.9564C57.0249 42.6496 60.2754 49.3351 62.7117 56.1774L62.7141 56.1842L62.7167 56.191C64.6682 61.2066 66.3443 66.2181 67.9559 71.037C68.4976 72.6566 69.032 74.2546 69.5672 75.8236C69.8185 76.5604 70.0676 77.2929 70.3151 78.0206C72.154 83.4279 73.9019 88.5676 75.7772 93.1988C76.6995 95.8192 77.6235 98.1549 78.684 100.475Z" stroke="white" stroke-opacity="0.015"/>
</svg>
