<svg width="407" height="430" viewBox="0 0 407 430" fill="none" xmlns="http://www.w3.org/2000/svg">
<path d="M374.052 373.696L374.044 373.688C372.881 372.522 371.718 371.486 370.424 370.334C370.283 370.209 370.14 370.081 369.995 369.952L365.6 366.523L365.594 366.519C365.189 366.194 364.825 365.91 364.458 365.623L364.457 365.622C364.097 365.342 363.735 365.06 363.334 364.738C362.921 364.488 362.511 364.2 362.118 363.924L362.109 363.918C361.698 363.629 361.305 363.353 360.914 363.118C359.925 362.523 358.923 361.859 357.894 361.178C357.224 360.735 356.543 360.284 355.848 359.84C349.022 355.766 341.54 352.338 333.552 349.068C329.691 347.488 325.753 346.021 321.766 344.537L321.362 344.386C317.241 342.852 313.071 341.293 308.9 339.571C300.556 336.288 292.038 332.346 284.006 327.414L283.998 327.409L283.99 327.403L281.051 325.438L278.112 323.473L278.092 323.459L278.073 323.444C276.287 321.978 274.336 320.511 272.544 319.203L272.532 319.195L272.521 319.186C271.311 318.193 270.091 317.043 268.886 315.908C268.29 315.347 267.698 314.789 267.113 314.256L267.105 314.248L267.096 314.239L265.79 312.929L265.777 312.916C265.462 312.6 264.957 312.094 264.604 311.571L262.177 308.813L374.052 373.696ZM374.052 373.696L374.061 373.704M374.052 373.696L374.061 373.704M374.061 373.704C379.41 378.582 383.63 383.952 387.374 389.339C391.719 395.732 394.976 402.011 397.587 407.873C394.87 402.12 391.504 395.965 387.052 389.751C379.661 379.209 368.83 369.007 355.218 361.111L355.213 361.108C348.489 357.325 340.955 354.04 332.945 350.924M374.061 373.704L259.652 311.416L262.253 314.188L262.255 314.19C262.256 314.192 262.258 314.193 262.259 314.194C262.742 314.679 263.086 315.024 263.584 315.687L264.857 316.964C266.648 318.597 268.431 320.222 270.373 321.847C272.327 323.316 274.273 324.779 276.378 326.242C277.44 326.897 278.46 327.552 279.476 328.205C280.496 328.859 281.511 329.511 282.567 330.162C290.859 335.054 299.481 338.808 308.112 341.912L308.123 341.916C312.162 343.474 316.201 344.883 320.179 346.272L320.762 346.475C324.924 347.928 329.015 349.364 332.945 350.924M209.77 205.643L209.766 205.638L204.386 199.588C196.755 191.773 187.821 185.418 178.23 180.364L178.227 180.362C168.79 175.303 158.695 171.382 149.062 167.78C139.266 164.177 129.773 160.566 120.929 156.13L120.922 156.127C116.517 153.836 112.25 151.532 108.304 148.731C106.771 147.783 105.395 146.744 104.09 145.758C103.574 145.368 103.07 144.987 102.571 144.623L102.561 144.616L99.7855 142.487L99.7716 142.476L99.7584 142.465L96.9827 140.008L96.9776 140.004C89.9211 133.584 84.0094 126.338 79.4099 118.265C74.8191 110.371 71.2159 101.991 68.1084 93.6246C66.7512 89.9708 65.4628 86.3041 64.1842 82.6653C62.526 77.9463 60.8842 73.2741 59.1304 68.7376L59.1292 68.7344C56.0321 60.5596 52.6136 52.7241 48.5486 45.5483L48.5444 45.5407C47.5753 43.7586 46.4427 41.973 45.3081 40.3473L45.298 40.3329L45.289 40.3178C45.0481 39.9151 44.7661 39.4706 44.4795 39.0188L44.4766 39.0142C44.1992 38.5772 43.9178 38.1334 43.6737 37.7266C43.0393 36.9312 42.3804 36.1043 41.8777 35.2701C41.2275 34.4538 40.6178 33.6385 40.0133 32.8301L40.0111 32.8271C39.4035 32.0146 38.8011 31.209 38.16 30.4044C37.2558 29.4951 36.4185 28.4979 35.622 27.5491C35.2629 27.1214 34.9121 26.7036 34.5672 26.3081C29.3752 20.4496 23.855 15.8882 18.3204 11.8061C12.3981 7.58579 6.6279 4.26618 1.15323 1.70267L1.15323 14.86C4.67499 16.6425 8.19452 18.7369 11.7119 21.1423L11.7169 21.1458C16.6324 24.5971 21.7207 28.7116 26.3213 33.6544C27.5041 34.8413 28.5547 36.0284 29.6988 37.3213C29.8282 37.4675 29.9589 37.6152 30.091 37.7643L30.1048 37.7798L30.1172 37.7965C30.4503 38.2419 30.8133 38.7002 31.1869 39.172C31.8711 40.036 32.5909 40.9449 33.2277 41.9017C33.3896 42.1173 33.566 42.3284 33.7572 42.5573C33.8425 42.6593 33.9307 42.7649 34.0219 42.876C34.3126 43.2299 34.6169 43.621 34.881 44.0625C35.1189 44.4602 35.3574 44.8192 35.603 45.1888L35.606 45.1932C35.8472 45.5562 36.0954 45.9296 36.3442 46.3448C36.4784 46.5466 36.6163 46.7525 36.7566 46.9619C37.6247 48.2578 38.5833 49.6887 39.2993 51.1211C43.2328 57.6996 46.5067 64.927 49.6107 72.6284C51.13 76.398 52.6098 80.3626 54.1241 84.4199L54.228 84.6981C55.7794 88.8545 57.3692 93.1067 59.0809 97.358C62.5059 105.864 66.4124 114.678 71.6157 123.159L71.6194 123.165C76.6514 131.631 83.4737 139.616 91.1122 146.3L91.1143 146.302L93.8751 148.745L97.1248 151.19L97.1297 151.193C99.2572 152.835 101.353 154.451 103.604 155.741L103.619 155.749L103.633 155.759C108.016 158.69 112.566 161.135 117.289 163.422C126.338 167.804 135.839 171.137 145.247 174.437C145.652 174.58 146.058 174.722 146.463 174.864C156.264 178.305 165.922 181.916 175.096 186.517C184.284 191.125 192.652 197.05 200.036 204.126L200.048 204.138L200.059 204.15L205.284 209.882L205.292 209.891L205.299 209.9C206.12 210.887 206.898 211.874 207.673 212.855L207.675 212.857C208.451 213.841 209.222 214.818 210.034 215.795L210.046 215.809L210.056 215.823C213.007 219.934 215.793 224.373 218.251 228.81L218.253 228.814C223.17 237.856 226.937 247.714 230.528 257.375C230.685 257.796 230.841 258.218 230.998 258.639C234.437 267.897 237.911 277.247 242.425 286.146L242.428 286.153C246.979 295.446 252.829 304.084 259.651 311.415L209.77 205.643ZM209.77 205.643C210.983 206.971 212.11 208.511 213.232 210.045C213.752 210.756 214.272 211.466 214.798 212.152C217.882 216.549 220.644 221.276 223.084 226.006L209.77 205.643ZM332.945 350.924C332.944 350.924 332.943 350.924 332.943 350.924L332.762 351.39L332.946 350.925C332.946 350.925 332.945 350.924 332.945 350.924ZM246.098 283.964C250.362 293.175 255.775 301.568 262.176 308.812L246.098 283.964Z" stroke="white" stroke-opacity="0.015"/>
</svg>
