<svg width="112" height="132" viewBox="0 0 112 132" fill="none" xmlns="http://www.w3.org/2000/svg">
<path d="M110.995 130.513C111.073 130.668 111.156 130.836 111.254 131.008L110.597 131.008C110.417 130.792 110.304 130.569 110.171 130.303L110.164 130.288L110.156 130.274C109.589 129.301 109.022 128.244 108.429 127.137L108.365 127.017C107.796 125.953 107.203 124.847 106.573 123.74C106.025 122.641 105.477 121.466 104.908 120.244L104.85 120.12C104.259 118.853 103.645 117.539 102.99 116.224C100.549 111.001 98.269 105.285 95.8202 99.0624C95.4993 98.2469 95.1782 97.4283 94.856 96.6067C92.7216 91.1645 90.5338 85.5861 87.9759 79.8843C85.1861 73.3014 81.5798 66.891 77.6541 60.6567L77.6542 60.6566L77.6474 60.6463C77.156 59.907 76.6241 59.1272 76.0942 58.3505L76.0929 58.3485C75.5619 57.5701 75.033 56.7947 74.5451 56.0607L74.535 56.0455L74.5238 56.0311C73.948 55.2885 73.3727 54.5878 72.8024 53.8932L72.8007 53.8912C72.2286 53.1944 71.6615 52.5036 71.095 51.773L71.0887 51.7649L71.082 51.757L69.2904 49.6332C68.6217 48.7955 67.9538 48.1256 67.3058 47.4757L67.3021 47.4719L63.387 43.3814L63.3727 43.3664L63.3572 43.3527C57.7958 38.4308 52.0506 33.8186 45.6379 30.1903C39.2503 26.5761 32.6957 23.453 26.1376 20.9863L26.1338 20.9849C21.3636 19.2344 16.6727 17.6488 12.1307 16.1136C10.2924 15.4923 8.47858 14.8792 6.69373 14.2667L6.68999 14.2655L3.75096 13.2828L1.1534 12.4144L1.1534 1.71525C3.90895 2.79504 6.92195 4.00384 9.93741 5.21367L9.93953 5.21451C16.1432 7.67071 22.667 10.2882 29.3522 13.232C36.025 16.1703 42.8583 19.7607 49.3639 24.0021L49.3639 24.0021L49.3686 24.0052C56.0145 28.2324 62.0229 33.6039 67.5597 39.1566L71.4551 43.5521C71.7108 43.8922 72.0047 44.2286 72.3042 44.5692C72.3229 44.5903 72.3416 44.6116 72.3603 44.6328C72.6488 44.9607 72.9453 45.2976 73.2415 45.6685L75.0281 48.112C75.4223 48.6768 75.8279 49.2314 76.2294 49.7804C77.019 50.86 77.7929 51.9183 78.4347 52.9912C78.9292 53.8178 79.4639 54.6429 79.9929 55.4592L79.9954 55.463C80.5264 56.2825 81.0516 57.093 81.5356 57.902C85.4367 64.5867 88.5273 71.4382 91.1321 78.2966L91.1336 78.3003C93.085 83.316 94.7611 88.3274 96.3727 93.1463C96.9144 94.766 97.4488 96.3639 97.984 97.933C100.108 104.161 102.232 110.06 104.192 115.465L104.193 115.47C105.175 118.096 106.16 120.566 107.311 123.039L107.311 123.039L107.317 123.052C107.767 123.955 108.199 124.875 108.629 125.79C109.27 127.153 109.906 128.506 110.589 129.78L110.6 129.8L110.613 129.82C110.757 130.036 110.866 130.254 110.99 130.503L110.995 130.513Z" stroke="white" stroke-opacity="0.015"/>
</svg>
