<svg width="127" height="137" viewBox="0 0 127 137" fill="none" xmlns="http://www.w3.org/2000/svg">
<path d="M124.135 131.948L124.147 131.966L124.16 131.983C124.475 132.378 124.752 132.774 125.039 133.185L125.043 133.191C125.295 133.552 125.556 133.925 125.847 134.301L125.847 134.557C125.248 133.752 124.601 132.924 123.952 132.165L123.939 132.15L123.926 132.137C123.715 131.925 123.534 131.674 123.326 131.381L123.315 131.366C123.132 131.109 122.925 130.818 122.676 130.557C122.498 130.216 122.285 129.921 122.067 129.643C121.97 129.52 121.878 129.406 121.787 129.293C121.647 129.121 121.51 128.952 121.363 128.756C120.547 127.61 119.74 126.477 118.934 125.183L118.924 125.167L118.914 125.153C117.671 123.453 116.595 121.528 115.493 119.558C115.022 118.715 114.546 117.864 114.05 117.018C111.118 111.299 108.026 104.768 105.26 97.7508C104.357 95.4601 103.453 93.1322 102.537 90.774C100.642 85.8925 98.696 80.8807 96.6031 75.7984L96.6032 75.7984L96.5995 75.79C93.3326 68.2535 89.8923 60.6927 85.4643 53.455L85.4644 53.455L85.46 53.4481L85.4502 53.4326C83.1712 49.8405 80.8704 46.2141 78.2365 43.0769L78.2366 43.0768L78.2278 43.0668C77.7437 42.5206 77.2846 41.9542 76.8058 41.3635C76.6473 41.1679 76.4865 40.9696 76.3221 40.7686C75.6664 39.967 74.9613 39.1345 74.129 38.2993L69.7235 33.7169L69.7133 33.7063L69.7024 33.6962C63.4677 27.9364 56.5787 23.0012 49.3641 18.8897L49.3642 18.8895L49.3524 18.8832C41.9755 14.937 34.2769 11.8161 26.7579 9.029C22.9944 7.63395 19.2323 6.36248 15.5181 5.11386C15.3025 5.04139 15.0871 4.96901 14.8719 4.89668C11.3765 3.72197 7.92656 2.56255 4.54958 1.33086L4.54964 1.33069L4.5368 1.32639C4.03876 1.15988 3.55953 0.993344 3.09233 0.826655L28.9245 0.826656C29.0963 0.898974 29.2594 0.939825 29.3871 0.97179L29.4015 0.975412C29.5707 1.01783 29.6819 1.04751 29.7888 1.10114L29.8026 1.10803L29.8167 1.11406C37.4835 4.38635 45.2942 7.97795 52.7736 12.5443C60.4053 17.2676 67.3917 22.9697 73.7319 29.3274L78.1292 34.3913L78.1291 34.3913L78.1345 34.3974C79.2494 35.6399 80.265 37.0693 81.2782 38.4953C81.5794 38.9193 81.8805 39.343 82.1839 39.7614L82.1881 39.7673L82.1926 39.7731C84.2955 42.5027 86.0154 45.4144 87.7368 48.3286C88.2669 49.2262 88.7972 50.1239 89.3389 51.0167C93.5647 58.8436 96.8187 66.8385 99.5885 74.5191C101.159 78.9679 102.621 83.2981 104.039 87.4984C105.129 90.728 106.193 93.8809 107.261 96.952C109.715 104.007 112.334 110.575 115.119 116.489L115.128 116.51L115.14 116.529C115.944 117.901 116.67 119.315 117.382 120.703L117.392 120.722C118.104 122.111 118.806 123.477 119.55 124.722L119.55 124.722L119.555 124.729C120.373 126.042 121.184 127.343 121.831 128.479L121.846 128.506L121.865 128.531C122.345 129.173 122.652 129.638 122.961 130.256L122.975 130.284L122.992 130.31C123.16 130.562 123.367 130.854 123.569 131.137L123.572 131.142C123.778 131.431 123.977 131.71 124.135 131.948Z" stroke="white" stroke-opacity="0.015"/>
</svg>
