<svg width="239" height="220" viewBox="0 0 239 220" fill="none" xmlns="http://www.w3.org/2000/svg">
<path d="M25.6739 15.0348L25.7658 15.2191L25.7311 15.256L25.7666 15.2206L25.7312 15.256L25.7314 15.2562L25.7321 15.2569L25.7348 15.2596L25.7449 15.2697L25.7796 15.3046L25.8372 15.3623L25.874 15.3993L25.8944 15.4197L25.9343 15.4597L25.9378 15.4633L25.9384 15.4639L25.9397 15.4651L25.9399 15.4653L25.9406 15.466L25.9413 15.4667C25.9416 15.467 25.9516 15.4672 25.969 15.4662L27.0493 16.4143C28.6871 18.0563 30.486 19.6966 32.2742 21.3271L32.2795 21.3319L32.2996 21.3503L32.3217 21.3664C34.1042 22.6667 35.8891 24.1313 37.6874 25.607L37.7063 25.6225L37.7266 25.6362C39.6863 26.9466 41.6422 28.2544 43.7607 29.7255L43.7689 29.7312L43.7774 29.7366C52.3073 35.1661 62.1378 39.6015 72.7632 43.7006C75.474 44.7882 78.2229 45.8529 80.9976 46.9275C89.113 50.0705 97.4496 53.2992 105.704 57.439C116.766 62.9865 127.327 70.1593 136.096 79.2782L139.188 82.7065L142.11 86.1262C142.643 86.8545 143.199 87.5909 143.76 88.3336C145.11 90.121 146.488 91.9445 147.63 93.7774L147.63 93.7775L147.636 93.7867C151.052 99.0081 154.14 104.552 156.577 110.091L156.578 110.094C160.699 119.293 163.842 128.489 166.902 137.442C167.593 139.462 168.279 141.47 168.971 143.463C172.731 154.284 176.825 164.472 182.074 173.52L182.079 173.53L182.085 173.539C182.685 174.476 183.23 175.384 183.77 176.283C183.886 176.477 184.002 176.671 184.119 176.864C184.773 177.951 185.432 179.026 186.176 180.104C187.652 182.241 189.126 184.213 190.594 186.176L190.596 186.179L190.61 186.198L190.626 186.216C192.261 188.019 193.884 189.811 195.344 191.6L195.349 191.607L195.355 191.613L196.498 192.923L196.52 192.948L196.545 192.97L197.838 194.106L199.051 195.322L200.276 196.55C200.693 196.969 201.11 197.345 201.516 197.711L201.519 197.715C201.929 198.085 202.328 198.444 202.725 198.843C203.322 199.442 204.02 199.97 204.65 200.447C204.908 200.643 205.155 200.83 205.379 201.009L205.388 201.016L205.397 201.023C206.239 201.637 207.045 202.288 207.843 202.933L207.97 203.035C208.805 203.709 209.634 204.375 210.466 204.959L210.466 204.959L210.475 204.965C210.965 205.293 211.453 205.621 211.938 205.948C214.444 207.635 216.897 209.287 219.344 210.62C217.325 209.615 215.246 208.341 213.081 207.016C212.14 206.44 211.183 205.854 210.208 205.276C208.584 204.135 206.798 202.832 205.007 201.525L204.998 201.519L204.99 201.514C204.007 200.857 203.048 200.215 202.253 199.577C202.109 199.457 201.97 199.341 201.834 199.228C201.035 198.563 200.357 198 199.678 197.318C199.252 196.891 198.787 196.509 198.344 196.146L198.335 196.138C197.882 195.767 197.453 195.414 197.065 195.025L197.054 195.014L197.041 195.003L195.747 193.867L194.461 192.577C193.643 191.675 192.784 190.773 191.931 189.876L191.93 189.875C191.078 188.979 190.23 188.089 189.423 187.199C187.96 185.242 186.332 183.119 184.701 181.156C183.235 179.032 181.775 176.916 180.315 174.638C174.627 165.672 170.069 155.391 165.993 144.597L165.992 144.594C165.489 143.282 164.985 141.961 164.479 140.634C160.886 131.211 157.176 121.48 152.585 112.126L152.584 112.124C149.962 106.864 147.011 101.766 143.566 96.8298L143.566 96.8297L143.56 96.8208C142.356 95.1744 141.146 93.6666 139.944 92.1691C139.347 91.4252 138.752 90.6838 138.161 89.9292L138.143 89.9057L138.122 89.8845C137.14 88.8994 136.011 87.7666 135.046 86.6373L135.037 86.6276L135.028 86.6183L131.926 83.3429L131.918 83.3347L131.91 83.3268C123.369 75.0889 113.194 68.8371 102.546 63.908C93.2808 59.6187 83.6427 56.3253 74.0931 53.0621C72.6741 52.5771 71.257 52.0929 69.8434 51.6062C58.9196 47.8449 48.3458 43.6011 38.9199 38.0601L35.4998 35.8548L32.0887 33.6554C31.0292 32.8382 29.9301 32.0216 28.8352 31.2082L28.8326 31.2062C27.7298 30.3869 26.6314 29.5707 25.5743 28.7551L25.5694 28.7515C23.632 27.294 21.8531 25.6725 20.0543 24.0321L20.0472 24.0259L18.7534 22.8904L18.5846 22.7211L18.5846 22.5573L18.4387 22.4109L18.2754 22.2472L17.9489 21.9196L17.5948 22.2726L17.9488 21.9196L17.2957 21.2645C16.8974 20.865 16.4973 20.4238 16.0875 19.9716L16.0827 19.9663C15.6776 19.5194 15.263 19.0619 14.8465 18.6442C14.4482 18.2447 14.0482 17.8034 13.6383 17.3513L13.6335 17.3459C13.2337 16.9048 12.8245 16.4533 12.4134 16.04C12.138 15.7091 11.8721 15.4062 11.617 15.1156C11.0851 14.5099 10.6002 13.9575 10.1738 13.316L10.1682 13.3075L10.1622 13.2993C9.50453 12.3923 8.80662 11.4864 8.114 10.5874L8.11249 10.5854C7.41849 9.68458 6.72975 8.79054 6.08224 7.89766C4.31108 5.38089 2.6842 3.01288 1.31282 0.663564L14.5471 0.663564C14.6372 0.806289 14.7164 0.938755 14.7981 1.07533L14.7997 1.07803C14.9217 1.28188 15.0492 1.49503 15.219 1.75051L15.2189 1.75058L15.2254 1.75988C15.8015 2.58542 16.4179 3.4097 17.0284 4.2262L17.0311 4.22972C17.6407 5.04498 18.2444 5.85251 18.8076 6.65877C19.3137 7.50149 19.9801 8.33703 20.6208 9.14023L20.6327 9.15519C20.9684 9.57603 21.3438 9.9945 21.7077 10.4L21.7128 10.4056C22.0821 10.8173 22.4394 11.2157 22.7553 11.6118L23.1462 11.3L22.7553 11.6118C23.091 12.0326 23.4665 12.451 23.8302 12.8565L23.8354 12.8622C24.2029 13.2718 24.5586 13.6684 24.8733 14.0625C24.8748 14.0645 24.8764 14.0664 24.8779 14.0683L25.3583 14.7111L25.3795 14.7395L25.4046 14.7647L25.6739 15.0348ZM164.011 140.811C164.517 142.138 165.021 143.459 165.525 144.773L38.6577 38.486C48.1278 44.0542 58.7409 48.3122 69.6806 52.0789C71.096 52.5663 72.5141 53.0509 73.9335 53.5359C83.485 56.7999 93.0963 60.0843 102.336 64.3618C112.949 69.2749 123.073 75.4982 131.563 83.6867L134.665 86.9621C135.645 88.1085 136.788 89.2548 137.767 90.2373L137.768 90.2376C138.366 91.0018 138.965 91.7479 139.564 92.494C140.761 93.9861 141.959 95.4782 143.156 97.1159C146.585 102.029 149.524 107.106 152.136 112.347C156.716 121.678 160.418 131.386 164.011 140.811Z" stroke="white" stroke-opacity="0.015"/>
</svg>
