<svg width="369" height="368" viewBox="0 0 369 368" fill="none" xmlns="http://www.w3.org/2000/svg">
<path d="M68.8945 115.622C77.0584 122.173 85.7122 127.25 95.019 131.508C104.326 135.766 113.796 139.041 123.266 142.317C132.736 145.592 142.043 149.195 150.86 153.781C155.269 156.073 159.514 158.694 163.433 161.478C163.882 161.816 164.341 162.154 164.801 162.495C166.349 163.637 167.927 164.802 169.311 166.063L174.699 170.977L179.924 176.545C181.557 178.346 183.026 180.312 184.496 182.277C187.435 186.207 190.047 190.465 192.496 194.887C197.231 203.567 200.987 213.066 204.579 222.401C205.083 223.733 205.583 225.065 206.083 226.396C209.149 234.554 212.195 242.661 215.845 250.406C220.09 259.413 225.479 268.093 231.683 275.626M68.8945 115.622L69.2314 115.253C69.2274 115.249 69.2235 115.245 69.2195 115.242M68.8945 115.622L69.2074 115.232C69.2115 115.235 69.2155 115.239 69.2195 115.242M68.8945 115.622C67.9965 114.803 67.0984 114.025 66.2004 113.247C65.3024 112.469 64.4044 111.692 63.5063 110.873L62.0368 109.563L356.591 350.142M69.2195 115.242C77.3426 121.758 85.9558 126.811 95.227 131.053C104.509 135.3 113.956 138.568 123.43 141.844C132.91 145.123 142.243 148.735 151.091 153.337C155.521 155.641 159.786 158.273 163.722 161.07L163.733 161.078L163.733 161.078C164.174 161.41 164.627 161.744 165.084 162.082C166.636 163.227 168.243 164.413 169.648 165.694L175.036 170.607L175.05 170.62L175.064 170.634L180.288 176.203L180.294 176.209C181.943 178.028 183.424 180.009 184.889 181.968L184.896 181.977C187.853 185.932 190.478 190.211 192.934 194.645L192.935 194.648C197.688 203.36 201.454 212.888 205.046 222.221L205.047 222.224C205.551 223.558 206.052 224.891 206.552 226.222C209.618 234.382 212.657 242.468 216.297 250.192C220.526 259.164 225.891 267.806 232.065 275.304M69.2195 115.242C68.3211 114.423 67.4232 113.645 66.5308 112.872L66.5278 112.869C65.629 112.091 64.7358 111.317 63.8432 110.503L63.839 110.499L62.3805 109.199L61.0952 107.91L61.0847 107.899L58.4935 105.138L58.4827 105.126L56.0544 102.365L53.7835 99.4368C53.7826 99.4357 53.7817 99.4345 53.7808 99.4333C53.2717 98.7525 52.7542 98.104 52.2424 97.4627C51.2384 96.2044 50.2562 94.9734 49.4007 93.579L49.3935 93.5673L49.3857 93.556C43.8602 85.5688 39.6309 77.0868 36.2115 68.7574L36.2102 68.7542C33.7229 62.8142 31.4953 56.8783 29.3344 51.1203C28.52 48.95 27.715 46.8051 26.9092 44.6947C23.9656 36.9855 20.8569 29.7642 17.5827 23.196L17.5759 23.1823L17.5682 23.1691C17.0437 22.2604 16.529 21.3295 16.0131 20.3964C14.7884 18.1815 13.5569 15.9544 12.1713 13.9819C11.3447 12.4927 10.3572 11.0084 9.3717 9.69039C8.8772 9.02906 8.3833 8.40983 7.89487 7.79741L7.89267 7.79468C7.40219 7.1797 6.91714 6.57152 6.43271 5.92366L6.41144 5.89521L6.38638 5.87006C5.92673 5.40903 5.4592 4.78551 4.9632 4.12218L4.94192 4.09373L4.91687 4.06858C4.60382 3.7546 4.32858 3.43934 4.04153 3.11029L4.03723 3.1054C3.75958 2.78707 3.47049 2.45569 3.14023 2.12284C2.80093 1.70061 2.42407 1.3226 2.06866 0.966105L2.05951 0.956933C1.96078 0.857911 1.86371 0.760481 1.76859 0.663558L16.2457 0.663559C16.5866 1.08377 16.9024 1.50594 17.2246 1.93692L17.2279 1.94129C17.5892 2.42449 17.9589 2.91884 18.3698 3.41455C19.4961 5.02998 20.4637 6.64725 21.4412 8.28124L21.4458 8.28895L21.4507 8.29648C22.9342 10.5857 24.1706 12.9448 25.4615 15.4078C26.0036 16.4423 26.5554 17.4951 27.1391 18.5687C30.5569 25.7527 33.6509 33.4292 36.4204 41.2728C36.8364 42.4507 37.2524 43.6326 37.6696 44.8179C40.0352 51.5385 42.4392 58.368 45.0793 65.1972L45.0825 65.2053C48.3488 73.2317 51.9511 81.1198 56.8683 88.5234C57.5952 89.9726 58.5927 91.2678 59.5658 92.5313C59.937 93.0133 60.3046 93.4907 60.6523 93.9703L60.6567 93.9762L62.6161 96.5965L62.6321 96.618L62.6504 96.6377L64.9363 99.0942L67.2115 101.539L67.2222 101.551L68.3544 102.849L68.3654 102.862L68.3771 102.873L69.52 104.02L69.5285 104.028L69.5373 104.036C70.4303 104.851 71.2834 105.665 72.1412 106.485L72.1446 106.488C73.0001 107.305 73.8603 108.127 74.7622 108.949L74.7679 108.955L74.7739 108.96C81.508 114.726 89.7112 119.825 98.3973 123.935C106.193 127.623 114.517 130.781 122.99 133.995C123.945 134.358 124.903 134.721 125.862 135.086C125.863 135.086 125.863 135.087 125.864 135.087L126.303 135.257C135.482 138.81 145.082 142.526 154.046 147.503L154.046 147.503L154.059 147.51C158.76 149.949 163.144 152.879 167.377 155.982C167.954 156.426 168.525 156.856 169.091 157.28C170.631 158.437 172.125 159.559 173.541 160.861C173.542 160.862 173.543 160.862 173.544 160.863L179.401 166.411L184.438 172.115C184.439 172.117 184.441 172.119 184.443 172.121C185.522 173.42 186.595 174.855 187.676 176.302C188.22 177.03 188.767 177.76 189.317 178.478C192.402 182.876 195.001 187.275 197.44 192.005L197.44 192.005C202.158 201.143 205.74 210.939 209.17 220.441C209.896 222.451 210.607 224.463 211.317 226.471C213.956 233.931 216.572 241.33 219.797 248.317C223.732 257.361 228.652 265.586 234.558 272.99L234.566 273C240.634 280.238 247.687 286.654 255.07 291.757C262.461 297.028 270.663 300.975 278.673 304.418C284.678 306.999 290.779 309.306 296.684 311.539C298.658 312.285 300.61 313.023 302.53 313.76C310.189 316.702 317.683 319.971 324.523 323.401C338.182 330.578 349.228 339.705 357.017 349.471L357.021 349.477C359.344 352.306 361.371 355.179 363.19 358.01C361.318 355.303 359.253 352.563 356.976 349.823M232.065 275.304C232.064 275.302 232.062 275.3 232.061 275.299L231.683 275.626M232.065 275.304C232.067 275.305 232.068 275.307 232.069 275.308L231.683 275.626M232.065 275.304C238.565 282.8 245.714 288.992 253.514 294.208C261.312 299.422 269.605 303.338 277.751 306.606C284.354 309.256 290.956 311.582 297.396 313.852C298.906 314.384 300.407 314.913 301.897 315.443C309.746 318.231 317.11 321.185 323.988 324.47L323.999 324.475C337.6 331.379 348.924 340.098 356.976 349.823M231.683 275.626C238.214 283.16 245.399 289.383 253.236 294.624C261.073 299.864 269.4 303.795 277.564 307.07C284.179 309.724 290.793 312.055 297.233 314.325C298.742 314.857 300.242 315.385 301.73 315.914C309.567 318.698 316.914 321.646 323.772 324.921C337.324 331.8 348.591 340.48 356.591 350.142M356.976 349.823C356.976 349.823 356.976 349.823 356.976 349.822L356.591 350.142M356.976 349.823L356.591 350.142" stroke="white" stroke-opacity="0.015"/>
</svg>
