<svg width="17" height="22" viewBox="0 0 17 22" fill="none" xmlns="http://www.w3.org/2000/svg">
<path d="M15.8473 13.3921L15.8473 19.4704C15.7337 19.2762 15.6193 19.0799 15.504 18.882C14.7765 17.6331 14.0129 16.3221 13.1652 15.1074L9.73633 10.1943L9.72718 10.1812L9.71721 10.1687C9.06018 9.34492 8.4037 8.563 7.75178 7.78651L7.7499 7.78428C7.09621 7.00567 6.44709 6.23249 5.79852 5.41933L5.79324 5.41271L5.78774 5.40627L3.83382 3.11981C3.48689 2.68585 3.1016 2.30062 2.71098 1.92945C2.58152 1.80643 2.45296 1.68629 2.32464 1.56638C2.06738 1.32597 1.81112 1.0865 1.55063 0.82666L8.09116 0.82666C8.26085 1.06923 8.41442 1.31537 8.5754 1.57371L8.57985 1.58085C8.77822 1.8992 8.98835 2.23643 9.24081 2.57575C9.81362 3.47783 10.426 4.37864 11.0331 5.2718L11.0354 5.27522C11.6436 6.16988 12.2465 7.05688 12.8091 7.94261C13.4102 9.14615 14.0849 10.3122 14.7361 11.4376C15.1214 12.1035 15.4985 12.7552 15.8473 13.3921Z" stroke="white" stroke-opacity="0.015"/>
</svg>
