<svg width="44" height="63" viewBox="0 0 44 63" fill="none" xmlns="http://www.w3.org/2000/svg">
<path d="M42.8825 54.8845L43.008 55.1993L43.1735 55.1993L43.1735 59.7725C42.7818 58.7971 42.3777 57.8045 41.9672 56.7963C41.4451 55.5137 40.9127 54.2059 40.3825 52.8764L40.3825 52.8763L40.3794 52.8687C38.2531 47.7832 35.9627 42.6961 33.3446 37.444C30.7164 32.1718 27.4351 27.0721 24.0002 22.1503L23.9862 22.1302L23.9703 22.1116C23.4949 21.5552 23.0569 20.9566 22.606 20.3398L22.6005 20.3324C22.1551 19.7232 21.6968 19.0963 21.1946 18.5086L19.7251 16.789L18.2556 15.0694L18.2557 15.0693L18.2476 15.0603L16.7781 13.4226L16.7693 13.4128L16.76 13.4035L15.1273 11.7658L11.8617 8.49041L11.8488 8.47747L11.835 8.46551C8.64582 5.70294 5.44931 3.06278 2.13428 0.663572L12.1164 0.663573L15.8757 4.43417L18.9617 8.01822L20.4204 9.8064L21.8835 11.7632L24.8023 15.6666C25.3165 16.591 25.9102 17.4782 26.473 18.3193C26.8036 18.8134 27.1235 19.2915 27.4104 19.7518C30.8306 25.3061 33.7547 30.6851 36.0267 36.2193L36.0266 36.2193L36.0287 36.2242C38.2478 41.4708 40.1592 46.8743 41.9172 51.8445L42.0575 52.2412C42.1892 52.6379 42.2932 53.0057 42.3959 53.369C42.4165 53.442 42.4371 53.5147 42.4578 53.5875C42.5809 54.0195 42.7091 54.4498 42.8825 54.8845Z" stroke="white" stroke-opacity="0.015"/>
</svg>
