<svg width="94" height="115" viewBox="0 0 94 115" fill="none" xmlns="http://www.w3.org/2000/svg">
<path d="M92.539 113.517L92.4125 113.517C92.107 112.836 91.7942 112.119 91.4697 111.375C90.9895 110.273 90.4837 109.113 89.938 107.927C89.1197 105.794 88.1396 103.5 87.1641 101.217C86.2842 98.9708 85.3263 96.6073 84.3299 94.1488L84.2665 93.9924C83.2459 91.4742 82.1855 88.8562 81.1253 86.1569L81.1255 86.1568L81.1205 86.1449C80.8385 85.4783 80.5564 84.8088 80.2732 84.1368C78.2643 79.3694 76.2019 74.4751 73.7625 69.581C71.1346 63.9808 67.6905 58.3899 64.0914 53.139L64.0856 53.1305L64.0794 53.1223L61.1404 49.1918L61.1307 49.1788L61.1201 49.1664C60.6297 48.5924 60.0985 47.9778 59.5685 47.3644L59.5672 47.3628C59.0377 46.75 58.5093 46.1385 58.0215 45.5678L56.5556 43.7707L56.5399 43.7514L56.5223 43.7337L54.7262 41.9323L51.1341 38.3293L51.1212 38.3164L51.1074 38.3044L47.52 35.1969L45.7287 33.5635L45.7112 33.5476L45.6924 33.5334L43.7331 32.0595L43.7161 32.0467L43.6981 32.0354C43.0662 31.6393 42.4304 31.1614 41.7737 30.6674L41.7645 30.6605C41.1199 30.1755 40.4547 29.6752 39.7857 29.2552C38.3124 28.2702 37.0026 27.4492 35.6991 26.632L35.6974 26.6309L35.6975 26.6309L35.6916 26.6273C30.2812 23.3384 24.7059 20.5423 18.9659 18.2392C13.3982 15.9398 7.67035 13.9703 2.28155 12.1686C2.05231 12.0919 1.86079 12.0152 1.65608 11.9331L1.6521 11.9315C1.54547 11.8887 1.43517 11.8444 1.31679 11.7995L1.3168 1.42684L5.51938 3.11282C5.521 3.11351 5.52262 3.1142 5.52425 3.11489C6.549 3.55093 7.58429 3.98647 8.62926 4.42608C13.0894 6.30244 17.7259 8.25297 22.472 10.6332L22.4719 10.6333L22.4821 10.6381C28.3312 13.4085 34.1822 16.8315 39.7088 20.7439C40.1511 21.0768 40.6061 21.4393 41.0744 21.8124C41.9358 22.4987 42.8421 23.2207 43.796 23.8594C45.0808 24.8269 46.3689 25.9571 47.6744 27.1029L47.6744 27.103L47.6836 27.1107L49.6256 28.7339L51.4056 30.5192L55.1487 34.2737L58.3993 38.0231L60.0226 39.977L61.6392 42.0849C62.1354 42.8301 62.6708 43.5324 63.1951 44.22L63.1997 44.2261C63.732 44.9242 64.2527 45.6075 64.7321 46.3288L64.7398 46.3403L64.7481 46.3514C65.3451 47.1499 65.8661 47.9877 66.4137 48.8682C66.7576 49.4212 67.112 49.991 67.5023 50.5786C71.078 56.4483 74.004 62.3182 76.4428 68.1891C78.8872 74.0734 81.005 79.7926 82.7965 85.3467L82.7979 85.3509C83.5299 87.5534 84.2365 89.7344 84.9278 91.8679C85.9279 94.9547 86.8957 97.9419 87.8612 100.75L87.8652 100.762L87.8696 100.773C88.3541 101.988 88.7587 103.164 89.1462 104.31C89.1879 104.433 89.2294 104.556 89.2708 104.678C89.6131 105.692 89.9482 106.685 90.3164 107.645C90.55 108.254 90.7822 108.847 91.0099 109.428C91.5618 110.836 92.0869 112.175 92.539 113.517Z" stroke="white" stroke-opacity="0.015"/>
</svg>
