<svg width="480" height="499" viewBox="0 0 480 499" fill="none" xmlns="http://www.w3.org/2000/svg">
<mask id="path-1-inside-1" fill="white">
<path d="M479.039 498.017C477.243 495.561 475.284 492.777 473.324 489.665C470.385 485.08 467.773 479.675 464.997 473.616C462.385 467.556 459.935 460.841 457.323 453.799C452.261 439.551 446.873 422.847 436.097 407.125C434.627 405.159 433.158 403.358 431.688 401.393C430.056 399.591 428.423 397.79 426.953 395.988L425.81 394.678L424.341 393.368C423.361 392.549 422.545 391.73 421.565 390.748C420.585 389.929 419.769 388.946 418.789 388.127C417.81 387.308 416.83 386.489 415.85 385.834C407.85 379.447 398.543 374.37 388.583 370.112C378.623 365.854 368.173 362.251 357.723 358.157C347.273 354.063 336.987 349.15 327.68 342.599C325.394 340.797 323.271 339.16 320.985 337.358C318.863 335.393 316.74 333.428 314.618 331.299C312.658 329.17 310.699 327.041 308.74 324.748C306.944 322.455 305.147 320.162 303.515 317.706C296.984 307.879 292.248 296.907 288.003 285.443C283.758 273.979 280.003 262.024 274.778 250.56C274.125 249.086 273.471 247.612 272.818 246.302L270.532 242.044C269.063 239.096 267.267 236.475 265.634 233.855C264.818 232.545 263.838 231.235 262.858 229.924L259.919 225.994C257.797 223.537 255.837 221.245 253.715 218.952L250.123 215.513C248.98 214.366 247.837 213.22 246.531 212.237L242.775 209.289C241.469 208.307 240.326 207.324 238.856 206.341C236.081 204.54 233.468 202.739 230.692 201.265L226.447 198.972C224.978 198.153 223.508 197.498 222.202 196.843C210.773 191.275 198.853 187.344 187.587 182.922C176.321 178.5 165.381 173.587 155.911 167.036C153.625 165.399 151.502 163.597 149.217 161.96C147.094 159.994 144.808 157.865 142.685 155.9C140.889 153.771 138.93 151.806 137.134 149.677C135.501 147.384 133.705 145.255 132.072 142.962C125.704 133.627 121.296 123.473 117.377 113.156C113.459 102.838 110.193 92.1931 105.948 82.0393C101.702 71.7218 96.6409 62.2231 90.1097 53.3794C89.2933 52.233 88.4769 51.2504 87.6606 50.104C86.8441 49.1214 86.0277 48.1388 85.2113 47.3199C84.395 46.3373 83.5786 45.5184 82.7621 44.5358L81.2927 43.0619L79.8232 41.7517C77.8638 39.9502 76.0678 38.3125 74.2717 36.511C72.3124 35.0371 70.353 33.3994 68.3937 31.9254C60.393 26.1935 52.0658 21.7716 43.9019 18.1687C35.9012 14.5657 28.0639 11.7816 21.0429 9.16128C13.8587 6.54095 7.49081 3.92061 1.77606 1.30028C1.28622 0.972737 0.633118 0.808966 0.14328 0.481424L0.143279 14.402C5.36819 16.531 10.9196 18.66 16.7977 20.789C31.1662 25.8659 47.1674 31.1066 61.6992 41.2604C63.4953 42.5706 65.2914 43.8807 67.0875 45.3547C68.7202 46.8286 70.5163 48.3025 72.149 49.9402L73.4553 51.0866L74.5982 52.233C75.4146 53.0519 76.231 54.0345 77.0474 55.0171C77.8638 55.9998 78.8435 56.8186 79.4966 57.8012C80.1497 58.7839 80.9661 59.6027 81.6192 60.5854C82.2724 61.568 83.0887 62.3868 83.7418 63.3695C84.395 64.3521 85.0481 65.3347 85.7012 66.3173C87.0074 68.2826 88.4769 70.4116 89.6199 72.5406C90.7628 74.6697 92.0691 76.9624 93.212 79.2552C94.3549 81.548 95.4979 83.8408 96.4776 86.2974C100.723 95.9599 104.152 106.277 108.397 116.923C112.642 127.568 117.54 138.54 124.725 148.53C126.521 150.987 128.48 153.443 130.439 155.9L133.542 159.339L135.175 160.977L136.318 162.287L136.481 162.451L136.807 162.778C139.093 164.744 141.216 166.709 143.502 168.838C146.114 170.803 148.563 172.768 151.176 174.57C161.626 181.612 173.218 186.689 184.811 190.947C196.404 195.205 208.16 198.972 219.1 204.049C220.406 204.704 221.875 205.359 223.182 206.014L227.1 208.143C229.876 209.453 232.325 211.255 234.774 212.892C236.081 213.711 237.224 214.694 238.367 215.513L241.959 218.297C243.102 219.279 244.245 220.262 245.388 221.245L248.653 224.193C250.776 226.485 252.898 228.778 255.021 231.071L257.797 234.51C258.613 235.656 259.593 236.803 260.409 238.113C262.042 240.733 263.838 243.026 265.144 245.81L267.43 249.741C268.083 251.051 268.736 252.525 269.389 253.835C274.778 264.808 278.696 276.599 283.105 288.063C287.513 299.691 292.738 310.991 299.759 321.145C301.555 323.601 303.515 326.058 305.311 328.515C307.27 330.807 309.393 333.1 311.515 335.229C313.801 337.358 315.924 339.323 318.21 341.289C320.659 343.09 323.108 345.055 325.557 346.693C335.517 353.408 346.13 358.157 356.743 362.251C367.357 366.182 377.806 369.621 387.603 373.715C397.4 377.81 406.543 382.559 414.544 388.618C415.524 389.437 416.503 390.092 417.483 390.911C418.463 391.73 419.279 392.549 420.259 393.368C421.238 394.187 422.055 395.006 423.035 395.824L424.341 396.971L425.647 398.281C427.28 400.082 428.913 401.884 430.545 403.685C432.015 405.487 433.484 407.452 434.791 409.254C445.73 424.321 451.282 440.861 456.67 455.109C459.282 462.315 461.895 468.866 464.671 474.926C467.446 480.985 470.222 486.39 473.324 490.975C475.12 493.923 477.08 496.544 478.876 499L479.039 499L479.039 498.017Z"/>
</mask>
<path d="M479.039 498.017C477.243 495.561 475.284 492.777 473.324 489.665C470.385 485.08 467.773 479.675 464.997 473.616C462.385 467.556 459.935 460.841 457.323 453.799C452.261 439.551 446.873 422.847 436.097 407.125C434.627 405.159 433.158 403.358 431.688 401.393C430.056 399.591 428.423 397.79 426.953 395.988L425.81 394.678L424.341 393.368C423.361 392.549 422.545 391.73 421.565 390.748C420.585 389.929 419.769 388.946 418.789 388.127C417.81 387.308 416.83 386.489 415.85 385.834C407.85 379.447 398.543 374.37 388.583 370.112C378.623 365.854 368.173 362.251 357.723 358.157C347.273 354.063 336.987 349.15 327.68 342.599C325.394 340.797 323.271 339.16 320.985 337.358C318.863 335.393 316.74 333.428 314.618 331.299C312.658 329.17 310.699 327.041 308.74 324.748C306.944 322.455 305.147 320.162 303.515 317.706C296.984 307.879 292.248 296.907 288.003 285.443C283.758 273.979 280.003 262.024 274.778 250.56C274.125 249.086 273.471 247.612 272.818 246.302L270.532 242.044C269.063 239.096 267.267 236.475 265.634 233.855C264.818 232.545 263.838 231.235 262.858 229.924L259.919 225.994C257.797 223.537 255.837 221.245 253.715 218.952L250.123 215.513C248.98 214.366 247.837 213.22 246.531 212.237L242.775 209.289C241.469 208.307 240.326 207.324 238.856 206.341C236.081 204.54 233.468 202.739 230.692 201.265L226.447 198.972C224.978 198.153 223.508 197.498 222.202 196.843C210.773 191.275 198.853 187.344 187.587 182.922C176.321 178.5 165.381 173.587 155.911 167.036C153.625 165.399 151.502 163.597 149.217 161.96C147.094 159.994 144.808 157.865 142.685 155.9C140.889 153.771 138.93 151.806 137.134 149.677C135.501 147.384 133.705 145.255 132.072 142.962C125.704 133.627 121.296 123.473 117.377 113.156C113.459 102.838 110.193 92.1931 105.948 82.0393C101.702 71.7218 96.6409 62.2231 90.1097 53.3794C89.2933 52.233 88.4769 51.2504 87.6606 50.104C86.8441 49.1214 86.0277 48.1388 85.2113 47.3199C84.395 46.3373 83.5786 45.5184 82.7621 44.5358L81.2927 43.0619L79.8232 41.7517C77.8638 39.9502 76.0678 38.3125 74.2717 36.511C72.3124 35.0371 70.353 33.3994 68.3937 31.9254C60.393 26.1935 52.0658 21.7716 43.9019 18.1687C35.9012 14.5657 28.0639 11.7816 21.0429 9.16128C13.8587 6.54095 7.49081 3.92061 1.77606 1.30028C1.28622 0.972737 0.633118 0.808966 0.14328 0.481424L0.143279 14.402C5.36819 16.531 10.9196 18.66 16.7977 20.789C31.1662 25.8659 47.1674 31.1066 61.6992 41.2604C63.4953 42.5706 65.2914 43.8807 67.0875 45.3547C68.7202 46.8286 70.5163 48.3025 72.149 49.9402L73.4553 51.0866L74.5982 52.233C75.4146 53.0519 76.231 54.0345 77.0474 55.0171C77.8638 55.9998 78.8435 56.8186 79.4966 57.8012C80.1497 58.7839 80.9661 59.6027 81.6192 60.5854C82.2724 61.568 83.0887 62.3868 83.7418 63.3695C84.395 64.3521 85.0481 65.3347 85.7012 66.3173C87.0074 68.2826 88.4769 70.4116 89.6199 72.5406C90.7628 74.6697 92.0691 76.9624 93.212 79.2552C94.3549 81.548 95.4979 83.8408 96.4776 86.2974C100.723 95.9599 104.152 106.277 108.397 116.923C112.642 127.568 117.54 138.54 124.725 148.53C126.521 150.987 128.48 153.443 130.439 155.9L133.542 159.339L135.175 160.977L136.318 162.287L136.481 162.451L136.807 162.778C139.093 164.744 141.216 166.709 143.502 168.838C146.114 170.803 148.563 172.768 151.176 174.57C161.626 181.612 173.218 186.689 184.811 190.947C196.404 195.205 208.16 198.972 219.1 204.049C220.406 204.704 221.875 205.359 223.182 206.014L227.1 208.143C229.876 209.453 232.325 211.255 234.774 212.892C236.081 213.711 237.224 214.694 238.367 215.513L241.959 218.297C243.102 219.279 244.245 220.262 245.388 221.245L248.653 224.193C250.776 226.485 252.898 228.778 255.021 231.071L257.797 234.51C258.613 235.656 259.593 236.803 260.409 238.113C262.042 240.733 263.838 243.026 265.144 245.81L267.43 249.741C268.083 251.051 268.736 252.525 269.389 253.835C274.778 264.808 278.696 276.599 283.105 288.063C287.513 299.691 292.738 310.991 299.759 321.145C301.555 323.601 303.515 326.058 305.311 328.515C307.27 330.807 309.393 333.1 311.515 335.229C313.801 337.358 315.924 339.323 318.21 341.289C320.659 343.09 323.108 345.055 325.557 346.693C335.517 353.408 346.13 358.157 356.743 362.251C367.357 366.182 377.806 369.621 387.603 373.715C397.4 377.81 406.543 382.559 414.544 388.618C415.524 389.437 416.503 390.092 417.483 390.911C418.463 391.73 419.279 392.549 420.259 393.368C421.238 394.187 422.055 395.006 423.035 395.824L424.341 396.971L425.647 398.281C427.28 400.082 428.913 401.884 430.545 403.685C432.015 405.487 433.484 407.452 434.791 409.254C445.73 424.321 451.282 440.861 456.67 455.109C459.282 462.315 461.895 468.866 464.671 474.926C467.446 480.985 470.222 486.39 473.324 490.975C475.12 493.923 477.08 496.544 478.876 499L479.039 499L479.039 498.017Z" stroke="white" stroke-opacity="0.015" stroke-width="2" mask="url(#path-1-inside-1)"/>
</svg>
