<svg width="504" height="509" viewBox="0 0 504 509" fill="none" xmlns="http://www.w3.org/2000/svg">
<mask id="path-1-inside-1" fill="white">
<path d="M503.878 508.017C500.775 505.069 497.51 501.63 494.081 497.536C486.897 488.692 480.366 476.573 474.814 461.834C472.038 454.464 469.426 446.439 466.324 438.251C463.221 429.898 459.793 421.219 454.894 412.702C453.588 410.573 452.282 408.608 450.976 406.479C449.669 404.35 448.037 402.385 446.404 400.256L445.261 398.782C444.934 398.291 444.444 397.799 443.955 397.308C443.138 396.325 442.322 395.343 441.342 394.524C440.526 393.541 439.709 392.559 438.73 391.576C437.75 390.757 436.77 389.775 435.791 388.956C428.117 381.75 418.81 375.69 408.686 370.777C398.563 365.864 387.787 362.097 376.847 357.839C365.907 353.745 355.131 349.159 345.171 342.772L341.416 340.316C340.109 339.497 339.13 338.514 337.824 337.695L334.395 334.911L330.966 331.8L329.333 330.162L328.517 329.343L328.027 329.016C327.864 328.852 328.027 329.016 327.864 328.852L327.7 328.688L324.761 325.249C323.782 324.102 322.639 323.12 321.822 321.81L319.047 318.207C315.454 313.294 312.352 308.053 309.576 302.485C308.27 299.701 306.964 296.916 305.658 293.969C304.515 291.021 303.209 288.237 302.229 285.289C297.82 273.497 294.065 261.051 288.513 249.095L286.391 244.674C285.738 243.2 284.921 241.726 284.105 240.252C282.635 237.304 280.839 234.52 279.043 231.736C278.553 231.081 278.227 230.262 277.737 229.607L276.268 227.641L273.165 223.547C272.186 222.237 271.043 221.091 269.9 219.78L266.634 216.014C257.327 206.515 245.898 198.981 233.978 193.413C222.059 187.681 209.813 183.751 198.057 179.165C195.118 178.019 192.342 176.709 189.403 175.562C186.628 174.252 183.852 172.942 181.076 171.632C175.688 168.684 170.463 165.572 165.891 161.969C156.421 154.763 148.42 145.756 142.379 135.93C130.133 116.113 125.561 92.8579 115.765 72.059C115.112 70.7488 114.622 69.4386 113.969 68.1285C113.316 66.8183 112.663 65.6719 112.009 64.3617C110.703 61.7414 109.234 59.4486 107.601 56.9921C106.784 55.8457 106.131 54.5355 105.315 53.3891C104.499 52.2427 103.519 51.0963 102.702 49.9499C101.886 48.8035 100.906 47.6571 100.09 46.5107C99.2736 45.5281 98.294 44.5455 97.4776 43.5628C90.1301 35.3743 81.6396 28.4959 72.9858 23.2553C64.1688 18.0146 55.3517 14.2479 47.0245 10.9724C38.6973 7.69701 30.6967 4.91291 23.6757 2.1288C22.2062 1.47372 20.7367 0.818637 19.2672 0.163553L0.816711 0.163552L0.816711 5.40422C6.53146 8.3521 12.736 10.9724 19.2672 13.5928C26.778 16.5406 34.7786 19.161 42.9425 22.1089C51.1065 25.2205 59.4337 28.4959 67.2711 33.0815C75.2717 37.6671 82.7825 43.5628 89.477 50.7688C90.2933 51.7514 91.273 52.734 92.0894 53.7166C92.9058 54.6993 93.5589 55.6819 94.3753 56.6645C95.1917 57.6471 95.8448 58.6298 96.6612 59.6124C97.4776 60.595 98.1307 61.7414 98.7838 62.724C100.253 64.8531 101.56 66.9821 102.866 69.2749C103.519 70.4213 104.172 71.5677 104.825 72.7141C105.478 73.8605 105.968 75.1706 106.621 76.317C111.356 85.9795 115.112 96.6246 119.194 107.597C123.276 118.57 128.011 130.034 134.868 140.679C141.726 151.324 150.543 160.987 160.993 168.684C166.381 172.614 171.933 175.89 177.647 178.838C180.586 180.148 183.525 181.622 186.464 182.932C189.403 184.078 192.506 185.388 195.445 186.535C207.527 191.12 219.61 194.887 231.039 200.128C242.469 205.205 253.082 211.919 262.062 220.763L265.328 224.202C266.308 225.349 267.614 226.495 268.593 227.805L271.369 231.408L272.839 233.21C273.329 233.865 273.655 234.52 274.145 235.175C275.778 237.795 277.574 240.415 279.043 243.2C279.86 244.51 280.513 245.984 281.329 247.294L283.452 251.552C288.84 263.016 292.759 275.135 297.494 287.09C298.637 290.038 299.943 292.986 301.249 295.934C302.555 298.882 304.025 301.83 305.331 304.614C308.433 310.346 311.699 315.914 315.618 320.827L318.557 324.594C319.536 325.904 320.679 326.886 321.659 328.197L324.925 331.636L325.088 331.8L325.414 332.127L325.904 332.455L326.721 333.274L328.353 334.747L331.782 337.859L335.538 340.807C336.844 341.79 337.987 342.772 339.293 343.591L343.212 346.048C353.662 352.599 364.928 357.02 376.031 360.951C386.97 364.881 397.747 368.484 407.707 373.234C417.667 377.819 426.647 383.551 434.321 390.593C435.301 391.412 436.28 392.395 437.26 393.214C438.077 394.033 439.056 395.015 439.873 395.998C440.689 396.98 441.669 397.799 442.485 398.782C442.975 399.273 443.301 399.765 443.791 400.256L444.934 401.73C446.404 403.695 448.037 405.497 449.343 407.626C450.649 409.755 451.955 411.72 453.261 413.685C458.16 421.874 461.752 430.553 465.018 438.742C468.283 446.931 470.896 454.955 473.998 462.161C479.713 476.901 486.734 489.02 493.918 497.7C497.183 501.63 500.449 505.069 503.551 507.853L503.878 507.853L503.878 508.017Z"/>
</mask>
<path d="M503.878 508.017C500.775 505.069 497.51 501.63 494.081 497.536C486.897 488.692 480.366 476.573 474.814 461.834C472.038 454.464 469.426 446.439 466.324 438.251C463.221 429.898 459.793 421.219 454.894 412.702C453.588 410.573 452.282 408.608 450.976 406.479C449.669 404.35 448.037 402.385 446.404 400.256L445.261 398.782C444.934 398.291 444.444 397.799 443.955 397.308C443.138 396.325 442.322 395.343 441.342 394.524C440.526 393.541 439.709 392.559 438.73 391.576C437.75 390.757 436.77 389.775 435.791 388.956C428.117 381.75 418.81 375.69 408.686 370.777C398.563 365.864 387.787 362.097 376.847 357.839C365.907 353.745 355.131 349.159 345.171 342.772L341.416 340.316C340.109 339.497 339.13 338.514 337.824 337.695L334.395 334.911L330.966 331.8L329.333 330.162L328.517 329.343L328.027 329.016C327.864 328.852 328.027 329.016 327.864 328.852L327.7 328.688L324.761 325.249C323.782 324.102 322.639 323.12 321.822 321.81L319.047 318.207C315.454 313.294 312.352 308.053 309.576 302.485C308.27 299.701 306.964 296.916 305.658 293.969C304.515 291.021 303.209 288.237 302.229 285.289C297.82 273.497 294.065 261.051 288.513 249.095L286.391 244.674C285.738 243.2 284.921 241.726 284.105 240.252C282.635 237.304 280.839 234.52 279.043 231.736C278.553 231.081 278.227 230.262 277.737 229.607L276.268 227.641L273.165 223.547C272.186 222.237 271.043 221.091 269.9 219.78L266.634 216.014C257.327 206.515 245.898 198.981 233.978 193.413C222.059 187.681 209.813 183.751 198.057 179.165C195.118 178.019 192.342 176.709 189.403 175.562C186.628 174.252 183.852 172.942 181.076 171.632C175.688 168.684 170.463 165.572 165.891 161.969C156.421 154.763 148.42 145.756 142.379 135.93C130.133 116.113 125.561 92.8579 115.765 72.059C115.112 70.7488 114.622 69.4386 113.969 68.1285C113.316 66.8183 112.663 65.6719 112.009 64.3617C110.703 61.7414 109.234 59.4486 107.601 56.9921C106.784 55.8457 106.131 54.5355 105.315 53.3891C104.499 52.2427 103.519 51.0963 102.702 49.9499C101.886 48.8035 100.906 47.6571 100.09 46.5107C99.2736 45.5281 98.294 44.5455 97.4776 43.5628C90.1301 35.3743 81.6396 28.4959 72.9858 23.2553C64.1688 18.0146 55.3517 14.2479 47.0245 10.9724C38.6973 7.69701 30.6967 4.91291 23.6757 2.1288C22.2062 1.47372 20.7367 0.818637 19.2672 0.163553L0.816711 0.163552L0.816711 5.40422C6.53146 8.3521 12.736 10.9724 19.2672 13.5928C26.778 16.5406 34.7786 19.161 42.9425 22.1089C51.1065 25.2205 59.4337 28.4959 67.2711 33.0815C75.2717 37.6671 82.7825 43.5628 89.477 50.7688C90.2933 51.7514 91.273 52.734 92.0894 53.7166C92.9058 54.6993 93.5589 55.6819 94.3753 56.6645C95.1917 57.6471 95.8448 58.6298 96.6612 59.6124C97.4776 60.595 98.1307 61.7414 98.7838 62.724C100.253 64.8531 101.56 66.9821 102.866 69.2749C103.519 70.4213 104.172 71.5677 104.825 72.7141C105.478 73.8605 105.968 75.1706 106.621 76.317C111.356 85.9795 115.112 96.6246 119.194 107.597C123.276 118.57 128.011 130.034 134.868 140.679C141.726 151.324 150.543 160.987 160.993 168.684C166.381 172.614 171.933 175.89 177.647 178.838C180.586 180.148 183.525 181.622 186.464 182.932C189.403 184.078 192.506 185.388 195.445 186.535C207.527 191.12 219.61 194.887 231.039 200.128C242.469 205.205 253.082 211.919 262.062 220.763L265.328 224.202C266.308 225.349 267.614 226.495 268.593 227.805L271.369 231.408L272.839 233.21C273.329 233.865 273.655 234.52 274.145 235.175C275.778 237.795 277.574 240.415 279.043 243.2C279.86 244.51 280.513 245.984 281.329 247.294L283.452 251.552C288.84 263.016 292.759 275.135 297.494 287.09C298.637 290.038 299.943 292.986 301.249 295.934C302.555 298.882 304.025 301.83 305.331 304.614C308.433 310.346 311.699 315.914 315.618 320.827L318.557 324.594C319.536 325.904 320.679 326.886 321.659 328.197L324.925 331.636L325.088 331.8L325.414 332.127L325.904 332.455L326.721 333.274L328.353 334.747L331.782 337.859L335.538 340.807C336.844 341.79 337.987 342.772 339.293 343.591L343.212 346.048C353.662 352.599 364.928 357.02 376.031 360.951C386.97 364.881 397.747 368.484 407.707 373.234C417.667 377.819 426.647 383.551 434.321 390.593C435.301 391.412 436.28 392.395 437.26 393.214C438.077 394.033 439.056 395.015 439.873 395.998C440.689 396.98 441.669 397.799 442.485 398.782C442.975 399.273 443.301 399.765 443.791 400.256L444.934 401.73C446.404 403.695 448.037 405.497 449.343 407.626C450.649 409.755 451.955 411.72 453.261 413.685C458.16 421.874 461.752 430.553 465.018 438.742C468.283 446.931 470.896 454.955 473.998 462.161C479.713 476.901 486.734 489.02 493.918 497.7C497.183 501.63 500.449 505.069 503.551 507.853L503.878 507.853L503.878 508.017Z" stroke="white" stroke-opacity="0.015" stroke-width="2" mask="url(#path-1-inside-1)"/>
</svg>
