<svg width="59" height="79" viewBox="0 0 59 79" fill="none" xmlns="http://www.w3.org/2000/svg">
<path d="M52.4319 60.3356L52.4349 60.3438L52.4381 60.3519C54.0646 64.4304 55.3662 68.1833 56.5056 71.7748C57.1055 73.8803 57.7057 75.8493 58.3063 77.6815L57.8232 77.6815C57.3878 76.5145 56.8872 75.3394 56.3715 74.1291C56.1326 73.5684 55.8905 73.0001 55.6502 72.4215L55.6482 72.4168C54.1782 68.9766 52.5421 65.2019 50.7414 61.4254L50.7376 61.4176L50.7336 61.4099C50.446 60.8569 50.1579 60.2996 49.868 59.7387C48.1903 56.4926 46.4498 53.125 44.3529 49.7586C42.0489 45.634 39.2562 41.8461 36.3158 38.0776L36.3111 38.0715L36.3062 38.0656C35.8996 37.5763 35.5336 37.1276 35.1661 36.6771L35.1652 36.676C34.7983 36.2262 34.4298 35.7745 34.0203 35.2816L34.0058 35.2641L33.9898 35.2481C33.5915 34.8486 33.1914 34.4073 32.7816 33.9551L32.7771 33.9502C32.3749 33.5065 31.9633 33.0524 31.5499 32.6371C30.5554 31.5297 29.3312 30.3398 28.148 29.1896C27.5715 28.6292 27.0047 28.0782 26.479 27.5508L26.4706 27.5424L26.4618 27.5344C22.8517 24.2426 19.0767 21.2792 15.1366 18.6446C11.2029 16.0142 7.265 13.7097 3.15984 11.7331L1.48 10.8906L1.48 1.06512C3.35557 2.08005 5.22104 3.10437 7.08522 4.25502L7.08521 4.25504L7.09003 4.25794C11.1529 6.70303 15.3805 9.63849 19.2828 12.7372L19.2827 12.7372L19.2906 12.7432C23.3353 15.8265 26.9017 19.4011 30.4876 23.161C30.9688 23.7313 31.4249 24.2645 31.8659 24.7801C33.0734 26.1917 34.1674 27.4708 35.3513 29.0136C36.004 29.9949 36.8205 31.1416 37.6425 32.1332C37.9676 32.6218 38.3314 33.1488 38.6921 33.6715L38.694 33.6742C39.0615 34.2066 39.4258 34.7345 39.7492 35.2209C42.5146 39.4633 44.9537 43.7041 47.0669 47.9432C49.1827 52.1876 50.9704 56.2635 52.4319 60.3356Z" stroke="white" stroke-opacity="0.015"/>
</svg>
