<svg width="330" height="334" viewBox="0 0 330 334" fill="none" xmlns="http://www.w3.org/2000/svg">
<path d="M44.412 90.3177L44.4215 90.3177C44.4175 90.3179 44.4144 90.3177 44.412 90.3177ZM43.8487 89.9609C43.8645 90.0464 43.8953 90.1065 43.9033 90.1227C43.9388 90.1939 43.9824 90.2489 44.0045 90.2754C44.0177 90.2913 44.0295 90.3045 44.0384 90.3141L44.0502 90.3266L44.0546 90.3311L44.0564 90.333L44.0572 90.3338L44.0576 90.3342L44.0578 90.3343C44.0578 90.3344 44.0579 90.3345 44.2461 90.1469L44.0579 90.3345L44.2212 90.4983L44.2316 90.5087L44.2425 90.5185C45.2168 91.3871 46.1865 92.3057 47.1627 93.2305C47.6539 93.6958 48.1468 94.1627 48.6426 94.6255C50.1124 95.9973 51.5978 97.3229 53.091 98.4054C53.0937 98.4073 53.0963 98.4093 53.099 98.4112L55.3688 100.2L55.3777 100.208L55.3871 100.214L56.53 101.033L56.5425 101.042L56.5556 101.05L57.8507 101.862C58.6709 102.438 59.49 102.972 60.3011 103.5L60.3035 103.502C61.121 104.035 61.9303 104.563 62.7385 105.13L62.7536 105.141L62.7695 105.15C69.6514 109.259 77.023 112.874 84.8839 115.994C88.5534 117.451 92.2942 118.872 96.0688 120.306L96.8509 120.603C100.892 122.139 104.97 123.693 109.047 125.329C117.205 128.602 125.502 132.193 133.303 136.92L133.31 136.924C134.687 137.73 135.975 138.613 137.315 139.531C137.859 139.903 138.411 140.281 138.981 140.663C139.81 141.326 140.797 141.986 141.761 142.631L144.518 144.745C145.001 145.142 145.48 145.524 145.953 145.9C147.26 146.942 148.519 147.944 149.699 149.128L149.705 149.134L149.711 149.14L154.759 153.877C160.613 160.239 166.461 167.9 170.843 175.715L170.847 175.721C175.395 183.541 178.647 192.019 181.751 200.211C183.454 204.796 185.052 209.313 186.634 213.786C187.939 217.474 189.233 221.132 190.567 224.773L190.57 224.781C193.675 232.813 196.951 240.54 201.053 247.616C205.157 254.695 210.079 261.112 215.49 266.869L215.495 266.874L215.5 266.88L215.505 266.885C216.807 268.191 218.284 269.672 219.763 270.991C219.765 270.992 219.766 270.993 219.767 270.994L221.883 272.953L221.896 272.965L221.909 272.976C222.321 273.306 222.691 273.595 223.058 273.881L223.059 273.882C223.426 274.169 223.791 274.453 224.195 274.778L224.201 274.782L228.609 278.221L228.633 278.24L228.659 278.255C229.46 278.737 230.224 279.261 231.001 279.795L231.008 279.8C231.772 280.323 232.549 280.857 233.368 281.351C234.45 282.191 235.63 282.869 236.799 283.54C237.246 283.796 237.692 284.051 238.129 284.315L238.146 284.325L238.163 284.333C238.969 284.737 239.777 285.183 240.595 285.634L240.597 285.635C241.411 286.085 242.235 286.539 243.061 286.954L243.069 286.958C246.327 288.591 249.607 290.236 252.891 291.554C259.432 294.343 265.971 296.802 272.175 299.095C284.579 303.678 295.972 308.414 305.238 313.958L305.246 313.963C308.807 315.995 312.043 318.167 314.981 320.382C312.168 318.385 309.097 316.425 305.741 314.568C296.389 309.138 284.918 304.867 272.352 300.447C270.626 299.825 268.891 299.217 267.146 298.605C262.437 296.954 257.657 295.277 252.784 293.251L252.777 293.248L252.771 293.245C249.359 291.942 246.107 290.474 242.684 288.839L242.676 288.836C241.595 288.343 240.602 287.805 239.614 287.27C238.959 286.915 238.306 286.562 237.631 286.223L237.623 286.219L237.615 286.215C235.828 285.401 234.228 284.597 232.633 283.477L232.618 283.467L232.603 283.458C231.796 282.972 230.987 282.445 230.169 281.912L230.165 281.909C229.36 281.384 228.546 280.853 227.731 280.362C227.478 280.164 227.219 279.962 226.956 279.755C225.71 278.777 224.361 277.719 223.012 276.772C222.596 276.438 222.182 276.147 221.781 275.866L221.775 275.862C221.367 275.575 220.974 275.299 220.582 274.985C220.58 274.984 220.578 274.982 220.576 274.98L218.303 273.026L218.297 273.02L218.29 273.015C217.186 272.129 216.243 271.252 215.229 270.309C214.759 269.873 214.275 269.422 213.753 268.951C208.062 263.078 202.704 256.562 198.322 249.401C194.093 242.221 190.349 234.384 187.091 226.378C185.461 222.374 183.953 218.327 182.443 214.273L182.441 214.269C180.932 210.218 179.419 206.159 177.784 202.14C174.518 194.114 171.077 186.058 166.647 178.653C162.215 171.08 157.128 164.663 150.738 158.089L150.723 158.074L150.707 158.06L145.98 153.972C145.978 153.971 145.977 153.97 145.976 153.969C145.142 153.216 144.27 152.551 143.411 151.915C143.216 151.77 143.022 151.628 142.829 151.486C142.167 150.999 141.52 150.524 140.896 150.023L140.89 150.018L140.884 150.013L138.277 148.053C137.85 147.71 137.384 147.413 136.945 147.133L136.933 147.126C136.48 146.836 136.055 146.564 135.671 146.256L135.63 146.223L135.582 146.199C134.629 145.721 133.753 145.162 132.851 144.587L132.841 144.581C131.953 144.014 131.04 143.431 130.042 142.93C122.5 138.655 114.475 135.371 106.47 132.421C102.382 130.863 98.2958 129.429 94.2164 127.997L94.2143 127.996C90.1314 126.563 86.0556 125.132 81.9809 123.579C73.8359 120.474 65.8602 116.882 58.3769 112.64C56.4284 111.5 54.6411 110.359 52.845 109.213L52.8415 109.21L51.5532 108.403L50.2641 107.433L47.6516 105.468L47.6445 105.462L47.6371 105.457C45.1687 103.735 43.2225 101.962 41.2744 100.187C40.2799 99.2811 39.285 98.3746 38.2198 97.4743L37.9084 97.1619L37.6838 96.9367L37.5819 96.8345L37.4437 96.6958L36.9751 96.0691L36.9538 96.0407L36.9287 96.0156L35.7986 94.8825L35.7858 94.8692L33.676 92.5897L31.5659 90.3104L30.5977 89.0965L29.618 87.8682C28.9705 87.0565 28.3629 86.2438 27.7498 85.424L27.749 85.423C27.1442 84.614 26.5342 83.7982 25.8835 82.9813C24.9033 81.3438 23.7606 79.5437 22.6162 77.9038C21.7939 76.7256 21.0618 75.4688 20.3408 74.2311C20.0713 73.7685 19.8034 73.3086 19.533 72.8564C18.5512 71.2153 17.5863 69.6013 16.7836 67.8298L16.7798 67.8218C15.1463 64.381 13.5178 60.9507 12.0528 57.5222C9.11923 50.6564 6.6737 44.1157 4.3883 37.8937L4.38727 37.891L4.38708 37.8905C3.41974 35.303 2.45007 32.7094 1.47995 30.273L1.47995 2.8527C6.40625 12.1018 10.3901 22.8918 14.3855 34.2974C16.509 40.6871 18.7986 47.2488 21.4168 53.6499C22.4158 56.1546 23.5113 58.5672 24.6237 61.0172C24.9698 61.7794 25.3176 62.5453 25.6646 63.3187C26.0024 64.1637 26.4213 64.9605 26.8503 65.739C26.957 65.9327 27.064 66.1247 27.1706 66.316C27.4985 66.9044 27.8231 67.4868 28.1265 68.0955L28.1336 68.1097C28.9451 69.7375 29.7731 71.3985 30.77 72.8985C31.7505 74.3736 32.7237 75.838 33.6964 77.4641L33.7025 77.4743L33.709 77.4841C34.6953 78.968 35.8429 80.4487 36.9775 81.9119C37.4533 82.7073 37.9657 83.5639 38.6547 84.2598L40.4377 86.3734L40.4447 86.3816L40.452 86.3896L42.4113 88.5186L42.4181 88.526L42.4252 88.533L43.4048 89.5157L43.7589 89.1627L43.4048 89.5157L43.8487 89.9609Z" stroke="white" stroke-opacity="0.015"/>
</svg>
