<svg width="42" height="60" viewBox="0 0 42 60" fill="none" xmlns="http://www.w3.org/2000/svg">
<path d="M41.0781 57.9414C41.0865 57.9695 41.095 57.9977 41.1035 58.026L40.4806 58.026C40.4263 57.9098 40.3763 57.7986 40.3266 57.6882C40.289 57.6045 40.2515 57.5213 40.2126 57.4368C40.0913 57.1731 39.9616 56.9103 39.7875 56.6434C38.8274 54.6 37.6913 52.4652 36.5155 50.2561C36.0879 49.4526 35.6551 48.6393 35.2235 47.8169C34.6224 46.6118 33.9294 45.4853 33.226 44.3419C32.9613 43.9115 32.6951 43.4788 32.4317 43.0386L32.4163 43.0127L32.3978 42.9889C31.848 42.2799 31.3733 41.4876 30.8806 40.664L30.8728 40.6509C30.3904 39.8444 29.8899 39.0078 29.3033 38.2496C28.7307 37.4295 28.1585 36.6507 27.5904 35.8773L27.5889 35.8753C27.0169 35.0967 26.449 34.3235 25.8815 33.5105L25.8743 33.5001L25.8666 33.4902C24.7137 32.0034 23.3985 30.5193 22.0966 29.0503L22.0933 29.0465L20.1369 26.7572L20.1244 26.7426L20.1109 26.729L19.0495 25.6645L17.9985 24.6103C17.1235 23.6241 16.1652 22.6987 15.1986 21.7654C14.7123 21.2959 14.2239 20.8243 13.743 20.3419L13.7326 20.3315L13.7217 20.3217C12.976 19.6569 12.1909 19.0352 11.4191 18.4241L11.4134 18.4196C10.6359 17.8039 9.87186 17.1987 9.14983 16.555L9.11495 16.5239L9.07491 16.4998C8.55188 16.185 8.11986 15.8146 7.62833 15.3933C7.38718 15.1865 7.1317 14.9675 6.84412 14.7367L6.82719 14.7232L6.80913 14.7111L4.35995 13.0734L4.34562 13.0638L4.33066 13.0552C3.781 12.7402 3.26781 12.3842 2.73443 12.0138L2.72644 12.0082C2.27636 11.6957 1.81152 11.3729 1.31646 11.0741L1.31646 1.68814L3.94303 3.56991C4.74908 4.21705 5.55624 4.90516 6.37011 5.59903L6.37307 5.60156C7.18489 6.29369 8.00341 6.99154 8.82304 7.64947L11.2514 9.76039L13.5246 12.0405L18.0769 16.6066C18.7296 17.424 19.4214 18.2403 20.1076 19.05L20.11 19.0529C20.8049 19.8728 21.4939 20.686 22.1416 21.498L24.0897 23.9404L25.8705 26.5385C26.3165 27.2411 26.7884 27.9212 27.2496 28.586C27.3849 28.7809 27.5192 28.9745 27.6517 29.167C28.2418 30.0242 28.8008 30.8662 29.2775 31.7427C29.7697 32.6478 30.2616 33.5112 30.7507 34.3698L30.7518 34.3717C31.242 35.232 31.7294 36.0876 32.2165 36.9833L32.2214 36.9923L32.2267 37.0011C32.8741 38.0835 33.4401 39.2935 33.9953 40.4803C34.2689 41.0652 34.5398 41.6444 34.8166 42.1999C35.0811 42.7835 35.3431 43.3447 35.5982 43.8913C36.1389 45.0497 36.649 46.1426 37.0882 47.2435C37.5217 48.3849 37.953 49.4847 38.3713 50.5516C39.2215 52.7199 40.0182 54.7518 40.6718 56.7185L40.6764 56.7324L40.6818 56.746C40.8356 57.1315 40.952 57.5198 41.0754 57.9323L41.0781 57.9414Z" stroke="white" stroke-opacity="0.015"/>
</svg>
