<svg width="270" height="248" viewBox="0 0 270 248" fill="none" xmlns="http://www.w3.org/2000/svg">
<mask id="path-1-inside-1" fill="white">
<path d="M269.9 247.017C265.981 245.052 261.409 243.086 256.674 241.285C247.694 237.682 237.57 234.243 226.794 229.493C216.181 224.744 204.915 218.685 195.118 209.513C185.321 200.506 176.994 189.042 171.116 175.613C164.911 162.347 160.829 147.772 155.115 133.032C152.339 125.663 148.91 118.457 144.828 111.578L141.563 106.502C140.42 104.864 139.113 103.226 137.97 101.588L136.174 99.1318L134.215 96.839L130.296 92.4172L125.725 88.1592L123.439 86.0302L120.99 84.0649C119.357 82.7547 117.887 81.4446 116.091 80.2982L111.03 76.859C104.172 72.601 96.9876 68.8342 89.64 65.8863C75.1083 59.663 60.5765 55.2412 47.8407 48.8542C44.5752 47.3802 41.6362 45.5788 38.5339 43.7773C37.0644 42.7946 35.5949 41.812 34.2886 40.9932C32.8191 40.0105 31.3496 39.1917 30.2067 38.0453C28.9005 37.0627 27.5942 36.0801 26.288 35.0974C25.6349 34.6061 24.9818 33.951 24.3286 33.4597L22.3693 31.6582L20.41 29.8567L19.4303 29.0379L18.9405 28.5466C18.9405 28.5466 19.1038 28.7104 18.9405 28.5466L18.7772 28.3828L18.6139 28.219C17.4709 27.0726 16.4913 25.7625 15.3483 24.6161C8.8172 17.2464 4.08212 9.05787 0.163452 0.705555L0.163451 22.6508C2.44934 25.7625 4.73523 28.7104 7.51098 31.6582C8.65393 32.9684 9.96014 34.2786 11.2664 35.5887L11.4297 35.7525L11.5929 35.9163L11.9195 36.2438L12.4093 36.7351L13.389 37.554L15.3483 39.3555C16.6546 40.5019 17.7975 41.6483 19.4303 42.7947C20.8998 43.9411 22.5326 45.0874 24.0021 46.2338C25.4716 47.3802 27.1044 48.3629 28.7372 49.3455C30.37 50.3281 31.8395 51.3108 33.4722 52.2934C36.7378 54.0949 40.1667 55.8963 43.5955 57.3703C57.4742 63.7573 72.1692 68.0154 86.3745 73.5836C93.5587 76.2039 100.253 79.6431 106.784 83.4098L111.519 86.3577C113.152 87.5041 114.622 88.6505 116.091 89.7969L118.377 91.4346L120.5 93.3999L124.582 97.0028L128.664 101.261L130.623 103.39L132.419 105.519C133.562 106.993 134.705 108.467 135.848 109.941L138.95 114.69C143.032 121.241 146.461 127.955 149.4 135.161C155.441 149.246 159.85 163.985 166.544 177.414C172.912 191.007 182.056 202.799 192.342 211.806C202.629 220.977 214.385 226.873 225.324 231.459C236.264 235.881 246.551 239.156 255.531 242.431C259.613 243.905 263.532 245.543 267.124 247.017L269.9 247.017Z"/>
</mask>
<path d="M269.9 247.017L269.9 248.017L270.348 246.123L269.9 247.017ZM256.674 241.285L256.302 242.213L256.31 242.216L256.318 242.22L256.674 241.285ZM226.794 229.493L226.386 230.406L226.391 230.408L226.794 229.493ZM195.118 209.513L195.801 208.783L195.795 208.777L195.118 209.513ZM171.116 175.613L172.032 175.212L172.027 175.2L172.022 175.189L171.116 175.613ZM155.115 133.032L154.179 133.385L154.182 133.394L155.115 133.032ZM144.828 111.578L145.688 111.068L145.679 111.053L145.669 111.037L144.828 111.578ZM141.563 106.502L142.404 105.961L142.393 105.945L142.383 105.929L141.563 106.502ZM137.97 101.588L138.791 101.016L138.784 101.007L138.778 100.998L137.97 101.588ZM136.174 99.1318L136.982 98.5416L136.959 98.511L136.935 98.4822L136.174 99.1318ZM134.215 96.839L134.975 96.1894L134.969 96.1825L134.963 96.1758L134.215 96.839ZM130.296 92.4172L131.045 91.754L131.013 91.7181L130.978 91.6855L130.296 92.4172ZM125.725 88.1592L125.043 88.891L125.725 88.1592ZM123.439 86.0302L124.12 85.2984L124.093 85.2733L124.065 85.2502L123.439 86.0302ZM120.99 84.0649L120.364 84.8449L120.364 84.8449L120.99 84.0649ZM116.091 80.2982L115.529 81.1253L115.541 81.1334L115.553 81.1411L116.091 80.2982ZM111.03 76.859L111.592 76.0319L111.575 76.0203L111.557 76.0095L111.03 76.859ZM89.64 65.8863L89.2464 66.8056L89.257 66.8101L89.2677 66.8144L89.64 65.8863ZM47.8407 48.8542L48.289 47.9603L48.2708 47.9511L48.2521 47.9427L47.8407 48.8542ZM38.5339 43.7773L37.978 44.6085L38.0043 44.6261L38.0317 44.642L38.5339 43.7773ZM34.2886 40.9932L33.7328 41.8244L33.745 41.8326L33.7575 41.8405L34.2886 40.9932ZM30.2067 38.0453L30.9149 37.3392L30.8647 37.2889L30.8078 37.2462L30.2067 38.0453ZM24.3286 33.4597L23.6518 34.1959L23.6881 34.2292L23.7275 34.2589L24.3286 33.4597ZM22.3693 31.6582L23.0462 30.9221L23.0462 30.9221L22.3693 31.6582ZM20.41 29.8567L21.0868 29.1206L21.0694 29.1046L21.0513 29.0895L20.41 29.8567ZM19.4303 29.0379L18.7221 29.7439L18.7541 29.7761L18.789 29.8052L19.4303 29.0379ZM18.9405 28.5466L18.2323 29.2526L18.9405 28.5466ZM18.6139 28.219L19.3221 27.513L18.6139 28.219ZM15.3483 24.6161L14.5999 25.2793L14.6194 25.3013L14.6402 25.3221L15.3483 24.6161ZM0.163452 0.705555L1.06876 0.280806L-0.836548 0.705555L0.163452 0.705555ZM0.163451 22.6508L-0.836549 22.6508L-0.836549 22.9787L-0.642457 23.2429L0.163451 22.6508ZM7.51098 31.6582L8.26453 31.0009L8.25204 30.9865L8.23901 30.9727L7.51098 31.6582ZM11.2664 35.5887L10.5582 36.2948L11.2664 35.5887ZM11.5929 35.9163L12.3011 35.2103L12.3011 35.2102L11.5929 35.9163ZM11.9195 36.2438L11.2113 36.9498L11.2113 36.9499L11.9195 36.2438ZM12.4093 36.7351L11.7012 37.4412L11.7332 37.4733L11.768 37.5024L12.4093 36.7351ZM13.389 37.554L14.0658 36.8179L14.0485 36.8019L14.0303 36.7867L13.389 37.554ZM15.3483 39.3555L14.6715 40.0916L14.68 40.0994L14.6887 40.1071L15.3483 39.3555ZM19.4303 42.7947L20.0454 42.0062L20.0255 41.9907L20.0049 41.9762L19.4303 42.7947ZM33.4722 52.2934L32.9566 53.1502L32.9727 53.1599L32.9892 53.169L33.4722 52.2934ZM43.5955 57.3703L44.0136 56.4618L44.0021 56.4565L43.9905 56.4515L43.5955 57.3703ZM86.3745 73.5836L86.0095 74.5146L86.0206 74.519L86.0318 74.523L86.3745 73.5836ZM106.784 83.4098L107.313 82.5609L107.298 82.552L107.284 82.5436L106.784 83.4098ZM111.519 86.3577L112.094 85.5393L112.071 85.5234L112.048 85.5088L111.519 86.3577ZM116.091 89.7969L115.476 90.5854L115.492 90.5979L115.509 90.6098L116.091 89.7969ZM118.377 91.4346L119.056 90.7008L119.01 90.6582L118.959 90.6217L118.377 91.4346ZM120.5 93.3999L119.82 94.1336L119.829 94.1417L119.838 94.1496L120.5 93.3999ZM124.582 97.0028L125.304 96.3108L125.275 96.2807L125.243 96.2531L124.582 97.0028ZM128.664 101.261L129.399 100.584L129.393 100.576L129.385 100.569L128.664 101.261ZM130.623 103.39L131.387 102.745L131.373 102.729L131.359 102.713L130.623 103.39ZM132.419 105.519L133.209 104.906L133.197 104.89L133.183 104.874L132.419 105.519ZM135.848 109.941L136.685 109.394L136.663 109.36L136.638 109.328L135.848 109.941ZM138.95 114.69L139.799 114.161L139.793 114.152L139.787 114.143L138.95 114.69ZM149.4 135.161L148.474 135.539L148.477 135.547L148.481 135.556L149.4 135.161ZM166.544 177.414L167.45 176.99L167.445 176.979L167.439 176.968L166.544 177.414ZM192.342 211.806L193.008 211.06L193.001 211.054L192.342 211.806ZM225.324 231.459L224.938 232.381L224.95 232.386L225.324 231.459ZM255.531 242.431L255.188 243.371L255.191 243.372L255.531 242.431ZM267.124 247.017L266.744 247.942L266.927 248.017L267.124 248.017L267.124 247.017ZM270.348 246.123C266.392 244.139 261.788 242.161 257.03 240.35L256.318 242.22C261.03 244.012 265.569 245.964 269.451 247.911L270.348 246.123ZM257.046 240.357C247.99 236.723 237.965 233.324 227.197 228.578L226.391 230.408C237.176 235.162 247.398 238.641 256.302 242.213L257.046 240.357ZM227.202 228.581C216.633 223.851 205.481 217.845 195.801 208.783L194.435 210.243C204.348 219.524 215.729 225.637 226.386 230.406L227.202 228.581ZM195.795 208.777C186.101 199.865 177.855 188.515 172.032 175.212L170.2 176.014C176.133 189.569 184.541 201.148 194.441 210.25L195.795 208.777ZM172.022 175.189C168.942 168.604 166.384 161.683 163.875 154.544C161.371 147.418 158.912 140.06 156.047 132.671L154.182 133.394C157.032 140.744 159.471 148.043 161.988 155.207C164.501 162.357 167.086 169.356 170.21 176.036L172.022 175.189ZM156.051 132.68C153.255 125.257 149.801 117.999 145.688 111.068L143.968 112.089C148.019 118.915 151.423 126.068 154.179 133.385L156.051 132.68ZM145.669 111.037L142.404 105.961L140.722 107.042L143.987 112.119L145.669 111.037ZM142.383 105.929C141.8 105.095 141.178 104.263 140.567 103.446C139.953 102.625 139.351 101.819 138.791 101.016L137.15 102.161C137.733 102.995 138.355 103.827 138.966 104.644C139.58 105.465 140.182 106.271 140.743 107.074L142.383 105.929ZM138.778 100.998L136.982 98.5416L135.367 99.722L137.163 102.179L138.778 100.998ZM136.935 98.4822L134.975 96.1894L133.455 97.4887L135.414 99.7815L136.935 98.4822ZM134.963 96.1758L131.045 91.754L129.548 93.0805L133.467 97.5023L134.963 96.1758ZM130.978 91.6855L126.406 87.4274L125.043 88.891L129.615 93.149L130.978 91.6855ZM126.406 87.4274L124.12 85.2984L122.757 86.7619L125.043 88.891L126.406 87.4274ZM124.065 85.2502L121.615 83.285L120.364 84.8449L122.813 86.8101L124.065 85.2502ZM121.615 83.285C120.032 82.0148 118.486 80.6404 116.629 79.4553L115.553 81.1411C117.289 82.2487 118.681 83.4947 120.364 84.8449L121.615 83.285ZM116.653 79.471L111.592 76.0319L110.468 77.6861L115.529 81.1253L116.653 79.471ZM111.557 76.0095C104.659 71.7264 97.4229 67.9314 90.0124 64.9583L89.2677 66.8144C96.5523 69.737 103.685 73.4755 110.502 77.7086L111.557 76.0095ZM90.0337 64.9671C82.7433 61.845 75.4483 59.1728 68.4228 56.4972C61.3843 53.8165 54.6082 51.1294 48.289 47.9603L47.3925 49.7481C53.809 52.966 60.6666 55.6833 67.711 58.3662C74.7682 61.054 82.005 63.7044 89.2464 66.8056L90.0337 64.9671ZM48.2521 47.9427C45.0462 46.4957 42.1665 44.7304 39.0361 42.9125L38.0317 44.642C41.1058 46.4271 44.1041 48.2648 47.4293 49.7656L48.2521 47.9427ZM39.0898 42.946C37.6235 41.9656 36.141 40.9741 34.8198 40.1459L33.7575 41.8405C35.0488 42.6499 36.5053 43.6237 37.978 44.6085L39.0898 42.946ZM34.8445 40.1619C33.2799 39.1157 31.9648 38.3923 30.9149 37.3392L29.4985 38.7513C30.7345 39.9911 32.3584 40.9054 33.7328 41.8244L34.8445 40.1619ZM30.8078 37.2462C30.1547 36.7548 29.5016 36.2635 28.8485 35.7722C28.1954 35.2809 27.5423 34.7896 26.8892 34.2983L25.6868 35.8966C26.34 36.3879 26.9931 36.8792 27.6462 37.3705C28.2993 37.8618 28.9524 38.3531 29.6055 38.8444L30.8078 37.2462ZM26.8892 34.2983C26.5982 34.0794 26.3005 33.8189 25.9679 33.527C25.6474 33.2457 25.292 32.933 24.9298 32.6606L23.7275 34.2589C24.0184 34.4777 24.3161 34.7383 24.6487 35.0302C24.9692 35.3115 25.3247 35.6241 25.6868 35.8966L26.8892 34.2983ZM25.0055 32.7236L23.0462 30.9221L21.6925 32.3944L23.6518 34.1959L25.0055 32.7236ZM23.0462 30.9221L21.0868 29.1206L19.7331 30.5929L21.6925 32.3944L23.0462 30.9221ZM21.0513 29.0895L20.0716 28.2706L18.789 29.8052L19.7686 30.624L21.0513 29.0895ZM20.1385 28.3319L19.6486 27.8406L18.2323 29.2526L18.7221 29.7439L20.1385 28.3319ZM18.9405 28.5466C18.2323 29.2526 18.2323 29.2526 18.2323 29.2526C18.2323 29.2526 18.2323 29.2526 18.2323 29.2526C18.2323 29.2527 18.2323 29.2526 18.2323 29.2527C18.2323 29.2527 18.2323 29.2527 18.2323 29.2527C18.2324 29.2527 18.2324 29.2527 18.2324 29.2527C18.2324 29.2527 18.2324 29.2527 18.2324 29.2528C18.2328 29.2531 18.2324 29.2527 18.2328 29.2531C18.2332 29.2536 18.2328 29.2532 18.2333 29.2537C18.2339 29.2543 18.2334 29.2538 18.2341 29.2544C18.2385 29.2589 18.2336 29.254 18.239 29.2594C18.2502 29.2706 18.2344 29.2547 18.2463 29.2667C18.2485 29.2689 18.2451 29.2655 18.2473 29.2677C18.2492 29.2696 18.2466 29.267 18.2484 29.2688C18.2494 29.2698 18.2485 29.2689 18.2495 29.2699C18.2496 29.27 18.2497 29.2701 18.2498 29.2702C18.2499 29.2703 18.25 29.2704 18.2501 29.2704C18.2502 29.2705 18.2502 29.2706 18.2503 29.2707C18.2504 29.2708 18.2505 29.2709 18.2506 29.271C18.2587 29.2791 18.2471 29.2675 18.2553 29.2757C18.2717 29.2921 18.2413 29.2616 18.2577 29.2781C18.2586 29.279 18.2592 29.2797 18.2601 29.2806C18.2613 29.2817 18.264 29.2844 18.2652 29.2856C18.2783 29.2987 18.2572 29.2776 18.2703 29.2907C18.2704 29.2908 18.2705 29.291 18.2706 29.2911C18.2707 29.2912 18.2708 29.2913 18.2709 29.2914C18.2717 29.2921 18.2708 29.2913 18.2716 29.292C18.2729 29.2934 18.2715 29.2919 18.2728 29.2933C18.2744 29.2948 18.2738 29.2943 18.2754 29.2958C18.2787 29.2992 18.2819 29.3024 18.285 29.3055C18.2989 29.3194 18.2802 29.3007 18.2935 29.3141C18.294 29.3145 18.2968 29.3174 18.2971 29.3176C18.3393 29.36 18.2581 29.2785 18.3001 29.3207C18.3024 29.323 18.3027 29.3233 18.3041 29.3246C18.3047 29.3253 18.3044 29.325 18.3048 29.3254C18.3048 29.3254 18.3049 29.3254 18.3049 29.3254C18.3049 29.3254 18.3049 29.3254 18.3049 29.3254C18.307 27.9112 19.7212 27.9133 19.7212 27.9133C19.7212 27.9133 19.7213 27.9134 19.7212 27.9133C19.7211 27.9132 19.7212 27.9133 19.721 27.9131C19.7197 27.9118 19.7203 27.9124 19.7175 27.9096C19.7044 27.8965 19.6949 27.887 19.6486 27.8406L18.2323 29.2526C18.2329 29.2533 18.2393 29.2596 18.2397 29.2601C18.247 29.2674 18.2395 29.2599 18.2467 29.2671C18.2482 29.2686 18.2485 29.2689 18.25 29.2704C18.2509 29.2713 18.2523 29.2727 18.2532 29.2736C18.2641 29.2845 18.2485 29.2689 18.2592 29.2796C18.2986 29.3191 18.242 29.2624 18.2792 29.2997C18.3011 29.3217 18.2866 29.3071 18.3012 29.3217C18.3047 29.3253 18.3003 29.3208 18.3035 29.324C18.3036 29.3242 18.3035 29.3241 18.3037 29.3242C18.3039 29.3245 18.3036 29.3242 18.3039 29.3244C18.3039 29.3245 18.3039 29.3245 18.304 29.3245C18.304 29.3245 18.304 29.3246 18.304 29.3246C18.3041 29.3246 18.3042 29.3247 18.3042 29.3248C18.3063 29.3268 18.3023 29.3228 18.3043 29.3249C18.3044 29.3249 18.3044 29.3249 18.3044 29.325C18.3044 29.325 18.3044 29.325 18.3045 29.325C18.3045 29.3251 18.3046 29.3252 18.3047 29.3252C18.3048 29.3253 18.3048 29.3254 18.3049 29.3254C18.3049 29.3255 18.3048 29.3254 18.3049 29.3254C18.3049 29.3254 19.7191 29.3276 19.7212 27.9133C19.7212 27.9133 19.7212 27.9133 19.7212 27.9133C19.7212 27.9133 19.7212 27.9133 19.7212 27.9133C19.7212 27.9133 19.7212 27.9133 19.7212 27.9133C19.7212 27.9133 19.7212 27.9133 19.7212 27.9133C19.7203 27.9124 19.7216 27.9137 19.7204 27.9125C19.7127 27.9048 19.7252 27.9173 19.7164 27.9086C19.7104 27.9025 19.7167 27.9088 19.7099 27.902C19.7011 27.8932 19.7107 27.9028 19.7014 27.8935C19.7014 27.8934 19.692 27.884 19.6917 27.8837C19.6717 27.8637 19.6913 27.8834 19.6716 27.8636C19.6619 27.8538 19.6719 27.8639 19.6626 27.8546C19.6506 27.8425 19.6667 27.8587 19.6553 27.8473C19.6425 27.8344 19.6623 27.8543 19.6504 27.8424C19.6503 27.8422 19.6497 27.8416 19.6497 27.8416C19.6494 27.8414 19.6496 27.8415 19.6494 27.8413C19.6488 27.8407 19.6496 27.8416 19.6491 27.841C19.6487 27.8406 19.6493 27.8412 19.6489 27.8408C19.6488 27.8407 19.6488 27.8408 19.6488 27.8407C19.6487 27.8407 19.6487 27.8406 19.6487 27.8406C19.6487 27.8406 19.6487 27.8406 19.6487 27.8406C19.6486 27.8406 19.6486 27.8406 19.6486 27.8406C19.6486 27.8406 19.6486 27.8406 19.6486 27.8406C19.6486 27.8406 19.6486 27.8406 18.9405 28.5466ZM19.6486 27.8406L19.4854 27.6768L18.069 29.0889L18.2323 29.2526L19.6486 27.8406ZM19.4854 27.6768L19.3221 27.513L17.9057 28.9251L18.069 29.0889L19.4854 27.6768ZM19.3221 27.513C18.78 26.9693 18.2724 26.3825 17.7378 25.7638C17.2111 25.1542 16.6574 24.5127 16.0565 23.91L14.6402 25.3221C15.1822 25.8658 15.6898 26.4527 16.2244 27.0714C16.7512 27.6809 17.3049 28.3224 17.9057 28.9251L19.3221 27.513ZM16.0967 23.9528C9.65054 16.679 4.96338 8.58181 1.06876 0.280806L-0.741852 1.1303C3.2009 9.53392 7.98386 17.8138 14.5999 25.2793L16.0967 23.9528ZM-0.836548 0.705555L-0.836549 22.6508L1.16345 22.6508L1.16345 0.705555L-0.836548 0.705555ZM-0.642457 23.2429C1.65295 26.3675 3.96652 29.3527 6.78293 32.3438L8.23901 30.9727C5.50397 28.068 3.24573 25.1575 0.969359 22.0588L-0.642457 23.2429ZM6.75741 32.3156C7.92624 33.6554 9.25699 34.9896 10.5582 36.2948L11.9745 34.8827C10.6633 33.5675 9.38162 32.2814 8.26453 31.0009L6.75741 32.3156ZM10.5582 36.2948L10.7215 36.4585L12.1378 35.0465L11.9745 34.8827L10.5582 36.2948ZM10.7215 36.4585L10.8848 36.6223L12.3011 35.2102L12.1378 35.0465L10.7215 36.4585ZM10.8847 36.6223L11.2113 36.9498L12.6277 35.5378L12.3011 35.2103L10.8847 36.6223ZM11.2113 36.9499L11.7012 37.4412L13.1175 36.0291L12.6276 35.5378L11.2113 36.9499ZM11.768 37.5024L12.7477 38.3213L14.0303 36.7867L13.0507 35.9679L11.768 37.5024ZM12.7122 38.2901L14.6715 40.0916L16.0252 38.6193L14.0658 36.8179L12.7122 38.2901ZM14.6887 40.1071C15.9407 41.2058 17.1638 42.4252 18.8557 43.6131L20.0049 41.9762C18.4312 40.8713 17.3684 39.7979 16.0079 38.6039L14.6887 40.1071ZM18.8152 43.5831C19.562 44.1657 20.3483 44.7467 21.1219 45.3185C21.8994 45.8931 22.6643 46.4585 23.387 47.0223L24.6172 45.4454C23.8704 44.8628 23.0841 44.2817 22.3105 43.71C21.533 43.1354 20.7681 42.57 20.0454 42.0062L18.8152 43.5831ZM23.387 47.0223C24.9124 48.2123 26.5983 49.2254 28.2215 50.2023L29.2528 48.4887C27.6105 47.5003 26.0309 46.5482 24.6172 45.4454L23.387 47.0223ZM28.2215 50.2023C29.0266 50.6868 29.7927 51.172 30.5696 51.6642C31.3438 52.1547 32.1289 52.652 32.9566 53.1502L33.9879 51.4366C33.1829 50.9521 32.4168 50.4668 31.6399 49.9747C30.8656 49.4842 30.0806 48.9868 29.2528 48.4887L28.2215 50.2023ZM32.9892 53.169C36.2638 54.9754 39.7265 56.7956 43.2006 58.289L43.9905 56.4515C40.6069 54.9971 37.2118 53.2143 33.9553 51.4178L32.9892 53.169ZM43.1775 58.2787C50.159 61.4916 57.3369 64.165 64.527 66.726C71.7294 69.2914 78.9264 71.7381 86.0095 74.5146L86.7394 72.6526C79.6173 69.8608 72.3642 67.3944 65.1981 64.842C58.0197 62.2851 50.9108 59.636 44.0136 56.4618L43.1775 58.2787ZM86.0318 74.523C93.1407 77.1159 99.7796 80.5244 106.285 84.2761L107.284 82.5436C100.727 78.7618 93.9767 75.2919 86.7171 72.6441L86.0318 74.523ZM106.256 84.2588L110.991 87.2066L112.048 85.5088L107.313 82.5609L106.256 84.2588ZM110.945 87.1761C112.554 88.3059 114.004 89.4372 115.476 90.5854L116.706 89.0084C115.239 87.8638 113.75 86.7023 112.094 85.5393L110.945 87.1761ZM115.509 90.6098L117.795 92.2475L118.959 90.6217L116.674 88.984L115.509 90.6098ZM117.698 92.1684L119.82 94.1336L121.179 92.6661L119.056 90.7008L117.698 92.1684ZM119.838 94.1496L123.92 97.7525L125.243 96.2531L121.161 92.6501L119.838 94.1496ZM123.86 97.6948L127.942 101.953L129.385 100.569L125.304 96.3108L123.86 97.6948ZM127.928 101.938L129.887 104.067L131.359 102.713L129.399 100.584L127.928 101.938ZM129.859 104.035L131.655 106.164L133.183 104.874L131.387 102.745L129.859 104.035ZM131.629 106.132C132.2 106.869 132.772 107.606 133.343 108.343C133.915 109.08 134.486 109.817 135.058 110.554L136.638 109.328C136.067 108.591 135.495 107.854 134.924 107.117C134.352 106.38 133.781 105.643 133.209 104.906L131.629 106.132ZM135.011 110.488L138.113 115.237L139.787 114.143L136.685 109.394L135.011 110.488ZM138.101 115.219C142.153 121.721 145.556 128.385 148.474 135.539L150.326 134.784C147.366 127.526 143.911 120.76 139.799 114.161L138.101 115.219ZM148.481 135.556C151.49 142.571 154.091 149.746 156.792 156.887C159.488 164.015 162.278 171.098 165.649 177.86L167.439 176.968C164.116 170.302 161.355 163.3 158.663 156.18C155.975 149.073 153.351 141.836 150.319 134.767L148.481 135.556ZM165.639 177.839C172.067 191.56 181.296 203.463 191.683 212.559L193.001 211.054C182.816 202.135 173.757 190.454 167.45 176.99L165.639 177.839ZM191.677 212.553C202.084 221.832 213.958 227.778 224.938 232.381L225.711 230.536C214.812 225.968 203.173 220.123 193.008 211.06L191.677 212.553ZM224.95 232.386C235.906 236.814 246.263 240.115 255.188 243.371L255.874 241.492C246.839 238.196 236.622 234.947 225.699 230.532L224.95 232.386ZM255.191 243.372C259.248 244.837 263.143 246.464 266.744 247.942L267.503 246.092C263.92 244.621 259.978 242.974 255.871 241.491L255.191 243.372ZM267.124 248.017L269.9 248.017L269.9 246.017L267.124 246.017L267.124 248.017Z" fill="white" fill-opacity="0.015" mask="url(#path-1-inside-1)"/>
</svg>
