<svg width="258" height="238" viewBox="0 0 258 238" fill="none" xmlns="http://www.w3.org/2000/svg">
<path d="M236.893 228.588C242.711 231.241 247.995 233.357 252.651 235.195C247.883 233.559 242.378 231.55 236.316 228.983C228.989 225.88 220.87 221.969 212.918 216.112C212.422 215.698 211.928 215.326 211.444 214.963L211.44 214.959C210.949 214.59 210.469 214.229 209.991 213.829L208.521 212.601L207.052 211.372L207.037 211.36L207.022 211.35C206.481 210.962 206.012 210.532 205.546 210.085C205.457 210 205.368 209.913 205.278 209.826C204.91 209.47 204.532 209.104 204.13 208.767C203.638 208.274 203.147 207.822 202.664 207.379L202.661 207.376C202.173 206.927 201.693 206.486 201.215 206.006C199.426 204.05 197.63 202.084 195.67 200.118C194.206 198.382 192.852 196.646 191.42 194.812C191.109 194.414 190.795 194.012 190.475 193.603C183.82 184.483 178.614 173.558 174.05 162.112C172.615 158.515 171.242 154.859 169.86 151.181C166.852 143.178 163.803 135.064 159.993 127.196L159.991 127.191L157.868 122.933C157.209 121.609 156.385 120.122 155.559 118.797C155.155 118.149 154.751 117.459 154.342 116.762L154.339 116.758C153.933 116.064 153.522 115.364 153.11 114.703L153.106 114.697L153.102 114.691L150.49 110.76L149.183 108.795L149.17 108.775L149.155 108.756L147.685 106.954L144.753 103.359C143.753 102.024 142.592 100.859 141.459 99.7232L141.451 99.7156L138.19 96.2807L138.183 96.273L138.175 96.2656C128.979 87.3711 118.149 80.7907 106.681 75.6967C98.9642 72.269 90.9345 69.5058 82.982 66.7692C79.1371 65.4461 75.3102 64.1292 71.5454 62.7464C59.9699 58.4947 48.7515 53.5998 39.007 46.9223C36.5612 45.1233 34.1237 43.3303 31.8495 41.5383C29.7413 39.7487 27.7937 37.9583 25.8383 36.1605L25.5193 35.8405L25.1652 36.1936L25.5193 35.8405L25.356 35.6768L25.2095 35.5298L25.0462 35.5298L24.8857 35.3688L24.2499 34.5716L24.2326 34.55L24.2131 34.5304L22.7436 33.0564C21.7602 32.0701 20.7975 31.104 19.9983 30.142C19.5826 29.6417 19.1271 29.1432 18.6811 28.6552L18.6766 28.6503C18.226 28.1573 17.7852 27.6748 17.3859 27.1942C16.985 26.7117 16.5829 26.1874 16.1735 25.6536L16.1706 25.6499C15.7664 25.1228 15.3551 24.5864 14.9424 24.0893C8.97055 16.3641 4.66725 8.32865 1.29593 1.15526L13.7488 1.15526C16.3377 6.49256 19.4183 12.3118 23.4557 17.8193L23.4781 17.8499L23.5049 17.8767C24.2803 18.6545 24.907 19.5942 25.5652 20.5845L25.58 20.6068L25.597 20.6273C26.0036 21.1166 26.3696 21.5653 26.7371 22.0159L26.7393 22.0186C27.1058 22.4679 27.4739 22.9191 27.8829 23.4114C28.298 23.9111 28.7123 24.3681 29.1186 24.8164L29.1216 24.8197C29.5307 25.2711 29.9318 25.7138 30.3321 26.1955L30.3466 26.213L30.3626 26.229L31.6688 27.5392L32.3219 28.1943L32.4852 28.358L32.8118 28.6856L32.8194 28.6933L32.8275 28.7006C33.8023 29.597 34.778 30.5347 35.7584 31.4771L35.7598 31.4785C36.7383 32.4191 37.7215 33.3641 38.7055 34.2688L38.7142 34.2768L38.7232 34.2844C39.7116 35.1105 40.7396 35.8941 41.7571 36.6698L41.7614 36.6731C42.7834 37.4522 43.7949 38.2233 44.7645 39.0338L44.7785 39.0454L44.7933 39.0561C53.4924 45.312 63.8199 50.4066 74.9434 54.8366C78.1961 56.132 81.5259 57.3969 84.9068 58.6813C93.1 61.7937 101.593 65.0201 110.017 69.0708L110.022 69.0732C121.893 74.6189 133.265 82.1163 142.683 91.8856L145.94 95.6424L145.941 95.6435C146.326 96.0843 146.717 96.4963 147.094 96.8924C147.282 97.0907 147.467 97.285 147.645 97.477C148.189 98.0621 148.699 98.6537 149.167 99.3584L149.178 99.3754L149.191 99.3914L152.283 103.309L153.739 105.418L155.199 107.695L155.204 107.704L157.811 111.953L157.816 111.961L157.821 111.969C158.46 112.93 158.945 113.87 159.445 114.837C159.702 115.334 159.962 115.838 160.249 116.356C161.068 117.834 161.873 119.288 162.515 120.738L164.472 125.155C164.473 125.156 164.473 125.157 164.473 125.158C167.864 133.022 170.559 140.867 173.199 148.554C174.623 152.699 176.031 156.799 177.524 160.83C181.612 172.146 186.363 182.999 192.601 192.22L192.61 192.232L192.619 192.244C193.432 193.304 194.246 194.406 195.063 195.512L195.063 195.513C195.879 196.618 196.698 197.726 197.517 198.795L197.53 198.812L197.545 198.828C198.438 199.806 199.292 200.784 200.15 201.767L200.152 201.77C201.005 202.748 201.863 203.731 202.762 204.715C203.19 205.229 203.698 205.695 204.176 206.135L204.188 206.146C204.683 206.601 205.147 207.029 205.53 207.49L205.559 207.525L205.594 207.554C206.063 207.947 206.497 208.381 206.948 208.834L206.956 208.841C207.4 209.287 207.862 209.75 208.37 210.174C208.85 210.576 209.291 210.978 209.741 211.388L209.744 211.391C210.191 211.799 210.647 212.214 211.145 212.631C211.645 213.048 212.143 213.423 212.63 213.79L212.635 213.793C213.126 214.163 213.606 214.524 214.084 214.924L214.084 214.924L214.095 214.933C221.813 221.027 229.69 225.14 236.885 228.584L236.893 228.588Z" stroke="white" stroke-opacity="0.015"/>
</svg>
