<svg width="133" height="150" viewBox="0 0 133 150" fill="none" xmlns="http://www.w3.org/2000/svg">
<path d="M1.31641 1.43591C5.18332 3.28821 9.21072 5.13544 13.5312 6.83794C13.5312 6.83792 13.5311 6.8379 13.5311 6.83788L1.31641 1.43591ZM1.31641 1.43591L1.31641 12.4183C4.15518 13.5212 7.14086 14.6245 10.1313 15.7296C13.7098 17.0348 17.4114 18.259 21.1827 19.5063L21.1995 19.5118C24.9743 20.7603 28.8181 22.0317 32.6629 23.4266C40.3476 26.2145 48.0466 29.3355 55.424 33.282L55.4281 33.2842C57.2368 34.2737 59.0425 35.4261 60.8311 36.5677C62.6593 37.5697 64.476 38.8967 66.1141 40.2112C66.7386 40.7123 67.3854 41.1877 68.0475 41.6743C68.2403 41.816 68.4343 41.9587 68.6296 42.1032C69.4882 42.7389 70.36 43.4046 71.1939 44.1569L75.925 48.2478L75.939 48.2599L75.952 48.273C82.3431 54.6834 87.4297 60.9362 92.0241 68.3424L92.0258 68.3451C96.4531 75.5818 100.057 83.3054 103.165 90.8523C104.652 94.4638 106.064 98.0748 107.453 101.627L107.638 102.099C109.087 105.805 110.514 109.444 111.981 112.959L111.984 112.968L111.984 112.968C114.752 119.989 117.845 126.522 120.94 132.403C121.145 132.774 121.348 133.142 121.549 133.507C122.949 136.048 124.252 138.415 125.802 140.534L125.808 140.543L125.814 140.552C127.45 143.014 129.067 145.445 130.842 147.549L130.88 147.594L130.907 147.648C130.998 147.83 131.169 148.028 131.323 148.19L131.391 148.19C131.264 148.01 131.14 147.832 131.032 147.671C129.384 145.52 127.907 143.048 126.441 140.435C125.158 138.502 124.07 136.264 122.968 133.997C122.652 133.346 122.335 132.694 122.011 132.045L122.006 132.035L122.007 132.035C119.226 126.128 116.443 119.561 113.987 112.336C112.542 108.44 111.187 104.315 109.797 100.082C108.68 96.6823 107.541 93.2127 106.313 89.7352C103.542 81.8896 100.287 73.8914 96.0587 66.0614C91.8351 58.404 86.1486 50.5816 80.3035 44.3916L1.31641 1.43591Z" stroke="white" stroke-opacity="0.015"/>
</svg>
