<svg width="432" height="452" viewBox="0 0 432 452" fill="none" xmlns="http://www.w3.org/2000/svg">
<mask id="path-1-inside-1" fill="white">
<path d="M431.347 451.025C430.857 449.879 430.204 448.732 429.714 447.422C425.469 437.923 421.551 425.804 416.489 412.211C414.04 405.333 410.937 398.127 407.182 390.921C406.202 389.119 405.223 387.318 404.08 385.517C402.937 383.715 401.794 381.914 400.651 380.112C399.345 378.311 398.038 376.673 396.732 374.871L395.753 373.561L394.61 372.251C393.793 371.432 393.14 370.613 392.324 369.795C386.119 363.244 379.098 356.857 370.608 351.943C362.28 346.867 353.137 342.772 343.503 339.006C333.87 335.239 324.073 331.8 314.277 327.542C304.643 323.284 295.01 318.043 286.683 311.165C286.193 310.673 285.54 310.346 285.05 309.854L283.58 308.38L280.478 305.433L279.008 303.959L277.702 302.485L274.926 299.373C272.967 297.408 271.498 295.115 269.702 292.822C267.906 290.693 266.599 288.237 265.13 285.78C259.252 276.118 255.007 265.472 251.088 254.5C247.169 243.527 243.414 232.063 238.189 221.091C237.046 218.306 235.413 215.686 233.944 212.902C232.474 210.282 230.678 207.661 229.209 205.041C227.412 202.421 225.453 199.964 223.657 197.507L217.616 190.793C208.962 181.949 198.675 174.907 187.736 169.503C176.796 164.098 165.53 160.168 154.59 156.073C143.651 151.979 133.201 147.557 123.894 141.662C121.608 140.188 119.159 138.714 117.199 137.076C115.077 135.438 112.954 133.964 110.995 131.999L107.893 129.051L106.586 127.741L105.28 126.267L102.668 123.319C101.688 122.337 100.872 121.354 100.055 120.208C93.5241 111.855 88.4625 102.52 84.5438 92.8579C80.4618 83.1954 77.3595 73.2054 73.7674 63.5429C70.1753 53.7166 66.0933 44.2179 61.0316 35.5381C59.7254 33.4091 58.4192 31.28 56.9497 29.151C55.4802 27.022 53.8474 25.0567 52.3779 23.0915C51.5615 22.1089 50.9084 21.1262 50.092 20.3074C49.2756 19.4885 48.6225 18.6697 47.8061 17.687C46.9897 16.7044 46.1733 15.8856 45.3569 14.9029C44.5405 14.0841 43.5609 13.2652 42.7445 12.4464C41.9281 11.6275 40.9484 10.8087 40.132 9.98981L38.8258 8.84341L37.5196 7.69702C35.7235 6.22308 33.9274 4.91291 32.1314 3.43897C30.4986 2.29258 28.8658 1.14618 27.233 0.163557L0.618622 0.163555C5.517 2.12881 10.4153 4.4216 15.1504 7.04193C16.7832 8.02456 18.5793 8.84341 20.212 9.98981C21.8448 11.1362 23.4776 12.1188 25.2737 13.2652C26.9065 14.4116 28.5392 15.7218 30.172 17.032L31.4783 18.0146L32.6212 18.9972C33.4376 19.6523 34.0907 20.4711 34.9071 21.1262C35.7235 21.7813 36.5399 22.6002 37.193 23.2553C37.8461 24.0741 38.6625 24.7292 39.3156 25.548C40.132 26.3669 40.9484 27.1858 41.6015 28.0046C42.4179 28.8235 43.2343 29.6423 43.7242 30.4612C45.0304 32.0989 46.3366 33.9004 47.6428 35.5381C48.9491 37.3396 50.092 39.3048 51.3982 41.2701C56.1333 49.1311 60.052 57.9747 63.8074 67.3096C67.3995 76.6446 70.8284 86.7984 75.2369 96.9522C79.6454 107.106 85.1969 117.26 92.5444 126.267C93.3608 127.414 94.3405 128.56 95.4834 129.543L98.4224 132.818L99.8919 134.456C99.8919 134.456 100.382 134.783 100.218 134.783L100.382 134.947L100.708 135.275L101.525 135.93L104.627 138.714C106.586 140.679 109.199 142.48 111.648 144.282C114.097 146.247 116.71 147.557 119.159 149.195C129.445 155.418 140.548 159.84 151.651 163.771C162.754 167.701 173.857 171.468 184.307 176.381C194.757 181.294 204.39 187.681 212.554 195.706L218.432 202.093C220.065 204.386 221.861 206.515 223.657 208.808C225.127 211.264 226.923 213.557 228.392 216.177C229.698 218.798 231.331 221.091 232.474 223.875C237.699 234.356 241.454 245.329 245.7 256.465C249.782 267.438 254.353 278.41 260.721 288.4C262.354 290.857 263.824 293.477 265.62 295.606C267.416 297.899 269.048 300.356 271.171 302.321L274.11 305.433C274.6 305.924 275.09 306.415 275.743 307.07L277.376 308.544L280.478 311.328L282.111 312.802C282.601 313.294 283.254 313.621 283.744 314.112C292.724 321.318 302.684 326.559 312.644 330.653C322.604 334.911 332.727 338.023 342.197 341.626C351.667 345.065 360.811 348.996 368.975 353.909C377.302 358.658 384.323 364.718 390.364 370.941C391.181 371.76 391.834 372.579 392.65 373.397L393.793 374.544L394.773 375.854C396.079 377.492 397.385 379.293 398.692 380.931C399.835 382.732 400.977 384.37 402.12 386.172C403.263 387.809 404.243 389.775 405.223 391.412C409.141 398.454 412.244 405.497 414.856 412.375C420.081 425.968 424.163 437.923 428.735 447.422C429.388 449.06 430.204 450.534 430.857 451.844L430.857 451.025L431.347 451.025Z"/>
</mask>
<path d="M431.347 451.025C430.857 449.879 430.204 448.732 429.714 447.422C425.469 437.923 421.551 425.804 416.489 412.211C414.04 405.333 410.937 398.127 407.182 390.921C406.202 389.119 405.223 387.318 404.08 385.517C402.937 383.715 401.794 381.914 400.651 380.112C399.345 378.311 398.038 376.673 396.732 374.871L395.753 373.561L394.61 372.251C393.793 371.432 393.14 370.613 392.324 369.795C386.119 363.244 379.098 356.857 370.608 351.943C362.28 346.867 353.137 342.772 343.503 339.006C333.87 335.239 324.073 331.8 314.277 327.542C304.643 323.284 295.01 318.043 286.683 311.165C286.193 310.673 285.54 310.346 285.05 309.854L283.58 308.38L280.478 305.433L279.008 303.959L277.702 302.485L274.926 299.373C272.967 297.408 271.498 295.115 269.702 292.822C267.906 290.693 266.599 288.237 265.13 285.78C259.252 276.118 255.007 265.472 251.088 254.5C247.169 243.527 243.414 232.063 238.189 221.091C237.046 218.306 235.413 215.686 233.944 212.902C232.474 210.282 230.678 207.661 229.209 205.041C227.412 202.421 225.453 199.964 223.657 197.507L217.616 190.793C208.962 181.949 198.675 174.907 187.736 169.503C176.796 164.098 165.53 160.168 154.59 156.073C143.651 151.979 133.201 147.557 123.894 141.662C121.608 140.188 119.159 138.714 117.199 137.076C115.077 135.438 112.954 133.964 110.995 131.999L107.893 129.051L106.586 127.741L105.28 126.267L102.668 123.319C101.688 122.337 100.872 121.354 100.055 120.208C93.5241 111.855 88.4625 102.52 84.5438 92.8579C80.4618 83.1954 77.3595 73.2054 73.7674 63.5429C70.1753 53.7166 66.0933 44.2179 61.0316 35.5381C59.7254 33.4091 58.4192 31.28 56.9497 29.151C55.4802 27.022 53.8474 25.0567 52.3779 23.0915C51.5615 22.1089 50.9084 21.1262 50.092 20.3074C49.2756 19.4885 48.6225 18.6697 47.8061 17.687C46.9897 16.7044 46.1733 15.8856 45.3569 14.9029C44.5405 14.0841 43.5609 13.2652 42.7445 12.4464C41.9281 11.6275 40.9484 10.8087 40.132 9.98981L38.8258 8.84341L37.5196 7.69702C35.7235 6.22308 33.9274 4.91291 32.1314 3.43897C30.4986 2.29258 28.8658 1.14618 27.233 0.163557L0.618622 0.163555C5.517 2.12881 10.4153 4.4216 15.1504 7.04193C16.7832 8.02456 18.5793 8.84341 20.212 9.98981C21.8448 11.1362 23.4776 12.1188 25.2737 13.2652C26.9065 14.4116 28.5392 15.7218 30.172 17.032L31.4783 18.0146L32.6212 18.9972C33.4376 19.6523 34.0907 20.4711 34.9071 21.1262C35.7235 21.7813 36.5399 22.6002 37.193 23.2553C37.8461 24.0741 38.6625 24.7292 39.3156 25.548C40.132 26.3669 40.9484 27.1858 41.6015 28.0046C42.4179 28.8235 43.2343 29.6423 43.7242 30.4612C45.0304 32.0989 46.3366 33.9004 47.6428 35.5381C48.9491 37.3396 50.092 39.3048 51.3982 41.2701C56.1333 49.1311 60.052 57.9747 63.8074 67.3096C67.3995 76.6446 70.8284 86.7984 75.2369 96.9522C79.6454 107.106 85.1969 117.26 92.5444 126.267C93.3608 127.414 94.3405 128.56 95.4834 129.543L98.4224 132.818L99.8919 134.456C99.8919 134.456 100.382 134.783 100.218 134.783L100.382 134.947L100.708 135.275L101.525 135.93L104.627 138.714C106.586 140.679 109.199 142.48 111.648 144.282C114.097 146.247 116.71 147.557 119.159 149.195C129.445 155.418 140.548 159.84 151.651 163.771C162.754 167.701 173.857 171.468 184.307 176.381C194.757 181.294 204.39 187.681 212.554 195.706L218.432 202.093C220.065 204.386 221.861 206.515 223.657 208.808C225.127 211.264 226.923 213.557 228.392 216.177C229.698 218.798 231.331 221.091 232.474 223.875C237.699 234.356 241.454 245.329 245.7 256.465C249.782 267.438 254.353 278.41 260.721 288.4C262.354 290.857 263.824 293.477 265.62 295.606C267.416 297.899 269.048 300.356 271.171 302.321L274.11 305.433C274.6 305.924 275.09 306.415 275.743 307.07L277.376 308.544L280.478 311.328L282.111 312.802C282.601 313.294 283.254 313.621 283.744 314.112C292.724 321.318 302.684 326.559 312.644 330.653C322.604 334.911 332.727 338.023 342.197 341.626C351.667 345.065 360.811 348.996 368.975 353.909C377.302 358.658 384.323 364.718 390.364 370.941C391.181 371.76 391.834 372.579 392.65 373.397L393.793 374.544L394.773 375.854C396.079 377.492 397.385 379.293 398.692 380.931C399.835 382.732 400.977 384.37 402.12 386.172C403.263 387.809 404.243 389.775 405.223 391.412C409.141 398.454 412.244 405.497 414.856 412.375C420.081 425.968 424.163 437.923 428.735 447.422C429.388 449.06 430.204 450.534 430.857 451.844L430.857 451.025L431.347 451.025Z" stroke="white" stroke-opacity="0.015" stroke-width="2" mask="url(#path-1-inside-1)"/>
</svg>
