<!DOCTYPE svg PUBLIC "-//W3C//DTD SVG 20010904//EN" "http://www.w3.org/TR/2001/REC-SVG-20010904/DTD/svg10.dtd">
<svg version="1.0" xmlns="http://www.w3.org/2000/svg" width="142px" height="121px" viewBox="0 0 1420 1210" preserveAspectRatio="xMidYMid meet">
<g id="layer101" fill="#e3b873" stroke="none">
 <path d="M21 1191 c-12 -21 -16 -397 -5 -425 5 -13 22 -16 80 -16 l74 0 0 40 c0 30 4 40 16 40 9 0 32 16 51 35 l35 35 159 0 159 0 0 -55 c0 -41 -6 -63 -21 -85 -19 -25 -21 -37 -16 -87 l6 -58 -120 -44 -121 -44 6 -31 c14 -68 14 -67 -46 -89 -32 -11 -59 -26 -62 -33 -3 -7 22 -88 56 -179 53 -142 64 -165 82 -165 12 1 248 85 526 188 480 178 505 189 505 212 0 21 -13 32 -75 65 l-75 40 0 63 c0 62 -2 65 -42 103 -39 36 -63 45 -114 41 -9 -1 -19 7 -22 18 -7 29 -37 25 -146 -15 -94 -35 -110 -35 -111 1 0 6 -11 23 -25 38 -24 26 -25 32 -25 166 0 152 -8 182 -50 200 -52 22 -110 -13 -110 -67 0 -23 0 -23 -164 -23 -161 0 -164 0 -179 23 -9 13 -29 30 -46 36 -24 11 -30 20 -33 49 l-3 37 -67 3 c-58 3 -68 0 -77 -17z m99 -211 l0 -170 -25 0 -25 0 0 170 0 170 25 0 25 0 0 -170z m570 89 c0 -5 -9 -9 -20 -9 -19 0 -27 20 -13 33 7 8 33 -11 33 -24z m-490 -28 c18 -35 12 -116 -10 -136 -20 -18 -20 -17 -20 68 0 86 9 106 30 68z m490 -61 c0 -19 -7 -20 -205 -20 -198 0 -205 1 -205 20 0 19 7 20 205 20 198 0 205 -1 205 -20z m0 -119 c0 -26 -5 -41 -16 -45 -24 -9 -24 -9 -24 39 0 38 3 45 20 45 17 0 20 -7 20 -39z m33 -113 c9 -7 19 -24 22 -38 5 -23 1 -27 -47 -44 -29 -10 -58 -21 -65 -23 -17 -7 -29 65 -14 80 10 10 63 34 82 36 3 1 13 -5 22 -11z m308 -93 c10 -27 19 -55 19 -61 0 -6 -41 -26 -91 -44 l-91 -32 -37 36 c-20 20 -41 36 -46 36 -6 0 -93 -31 -195 -69 -158 -58 -186 -66 -191 -52 -4 10 0 19 10 24 50 23 578 215 590 214 7 -1 22 -24 32 -52z m123 -6 c15 -18 26 -43 26 -60 0 -29 0 -29 -29 -15 -23 12 -61 75 -61 101 0 17 43 0 64 -26z m37 -165 c50 -25 89 -47 87 -49 -6 -7 -900 -336 -903 -333 -6 5 -85 225 -85 234 0 5 39 23 86 41 l86 31 14 -35 c21 -49 50 -42 48 12 -2 59 30 76 48 24 8 -23 16 -29 32 -27 21 3 24 17 15 63 -3 14 2 21 16 23 15 2 23 -6 32 -28 21 -56 65 -29 45 28 -9 27 -8 30 24 41 33 12 37 11 74 -23 22 -20 44 -36 49 -36 4 0 55 18 112 39 57 22 110 40 117 40 7 1 53 -20 103 -45z"/>
 </g>

</svg>